<svg width="15" height="12" viewBox="0 0 15 12" fill="none" xmlns="http://www.w3.org/2000/svg">
<path d="M14.1016 5.66406C14.1016 5.46094 14.0234 5.27344 13.8672 5.125L8.98438 0.25C8.8125 0.0859375 8.64062 0.015625 8.45312 0.015625C8.05469 0.015625 7.75 0.304688 7.75 0.703125C7.75 0.898438 7.82031 1.07812 7.95312 1.20312L9.60938 2.89062L11.9766 5.05469L10.2188 4.94531H1C0.585938 4.94531 0.289062 5.24219 0.289062 5.66406C0.289062 6.07812 0.585938 6.375 1 6.375H10.2188L11.9844 6.26562L9.60938 8.42969L7.95312 10.1172C7.82812 10.2422 7.75 10.4219 7.75 10.6172C7.75 11.0156 8.05469 11.3047 8.45312 11.3047C8.64062 11.3047 8.80469 11.2344 8.96875 11.0859L13.8672 6.19531C14.0234 6.04688 14.1016 5.85938 14.1016 5.66406Z" fill="#F9858D"/>
</svg>
