<svg width="192" height="192" viewBox="0 0 192 192" fill="none" xmlns="http://www.w3.org/2000/svg">
<path opacity="0.1" d="M96 192C149.019 192 192 149.019 192 96C192 42.9807 149.019 0 96 0C42.9807 0 0 42.9807 0 96C0 149.019 42.9807 192 96 192Z" fill="url(#paint0_linear_8709_13588)"/>
<g opacity="0.4">
<path opacity="0.4" d="M95.8201 154.96C89.5601 154.96 85.2201 150.44 85.2201 143.82C85.1408 142.383 85.3568 140.945 85.8547 139.594C86.3526 138.243 87.1218 137.009 88.115 135.967C89.1081 134.925 90.3041 134.098 91.6293 133.536C92.9545 132.974 94.3807 132.69 95.8201 132.7C97.2776 132.683 98.7234 132.961 100.071 133.516C101.419 134.071 102.641 134.892 103.664 135.93C104.687 136.968 105.491 138.202 106.026 139.558C106.561 140.913 106.818 142.363 106.78 143.82C106.85 145.286 106.615 146.751 106.092 148.122C105.568 149.493 104.766 150.741 103.737 151.787C102.707 152.834 101.473 153.656 100.11 154.202C98.7478 154.748 97.2871 155.006 95.8201 154.96ZM95.6601 36.96C100.34 36.96 105.66 38 105.66 42.96C105.624 45.2284 105.45 47.4925 105.14 49.74C103.92 63.12 100.44 94.44 99.1401 115.14H92.3401C90.7801 94.44 87.6601 64 86.2601 50C86.0801 47.74 85.7401 44.6 85.7401 42.86C85.7401 38.26 90.7801 37.04 95.6601 37.04V36.96Z" fill="url(#paint1_linear_8709_13588)"/>
</g>
<defs>
<linearGradient id="paint0_linear_8709_13588" x1="96" y1="192" x2="96" y2="0" gradientUnits="userSpaceOnUse">
<stop stop-opacity="0"/>
<stop offset="0.39" stop-color="#030303" stop-opacity="0.11"/>
<stop offset="0.72" stop-color="#0E0E0D" stop-opacity="0.47"/>
<stop offset="1" stop-color="#1D1D1B"/>
</linearGradient>
<linearGradient id="paint1_linear_8709_13588" x1="85.2201" y1="96" x2="106.78" y2="96" gradientUnits="userSpaceOnUse">
<stop stop-opacity="0.2"/>
<stop offset="0.53" stop-color="#070706" stop-opacity="0.27"/>
<stop offset="0.97" stop-color="#1B1B19" stop-opacity="0.48"/>
<stop offset="1" stop-color="#1D1D1B" stop-opacity="0.5"/>
</linearGradient>
</defs>
</svg>
