<svg width="24" height="24" viewBox="0 0 24 24" fill="none" xmlns="http://www.w3.org/2000/svg">
<g clip-path="url(#clip0_9908_13978)">
<path d="M20.689 7.52579C20.7023 7.71726 20.7023 7.90873 20.7023 8.10197C20.7023 13.9899 16.1959 20.7805 7.95564 20.7805V20.777C5.52145 20.7805 3.13782 20.087 1.08862 18.7793C1.44257 18.8217 1.7983 18.8428 2.15491 18.8437C4.17217 18.8455 6.13177 18.1723 7.71878 16.9326C5.80177 16.8964 4.12072 15.6531 3.53346 13.8381C4.20499 13.967 4.89693 13.9405 5.55604 13.7614C3.46604 13.3414 1.96241 11.5149 1.96241 9.39373C1.96241 9.37432 1.96241 9.35579 1.96241 9.33726C2.58516 9.68226 3.28241 9.87373 3.99564 9.89491C2.02717 8.58638 1.4204 5.98167 2.60911 3.9452C4.88362 6.72903 8.23951 8.42138 11.842 8.6005C11.481 7.05285 11.9742 5.43109 13.1381 4.34314C14.9424 2.65609 17.7802 2.74256 19.4764 4.53638C20.4797 4.33961 21.4413 3.97344 22.3213 3.45461C21.9868 4.48609 21.2869 5.36226 20.3519 5.91903C21.2399 5.81491 22.1075 5.57844 22.9245 5.21756C22.3231 6.11403 21.5655 6.89491 20.689 7.52579Z" fill="#C5C5C5"/>
</g>
<defs>
<clipPath id="clip0_9908_13978">
<rect width="22" height="18" fill="white" transform="translate(1 3)"/>
</clipPath>
</defs>
</svg>
