<svg width="24" height="24" viewBox="0 0 24 24" fill="none" xmlns="http://www.w3.org/2000/svg">
<path d="M9.66666 11.25C10.5417 11.5 11.2083 11.9583 11.6667 12.625C12.125 13.2917 12.375 14.0833 12.375 15C12.375 16.4166 11.8333 17.5 10.75 18.25C9.83334 18.9583 8.625 19.2916 7.16667 19.2916H0V4.5H6.95833C8.37499 4.5 9.5 4.75 10.2917 5.25C11.2083 5.83333 11.6667 6.83334 11.6667 8.20833C11.6667 9.625 11 10.625 9.66666 11.25ZM3.25001 7.04166V10.5H6.54167C7.125 10.5 7.625 10.375 7.95834 10.0833C8.29167 9.79167 8.5 9.33333 8.5 8.70834C8.5 7.62499 7.75 7.04166 6.29166 7.04166H3.25001ZM6.70833 16.7916C8.29167 16.7916 9.125 16.1667 9.125 14.8333C9.125 13.4167 8.33334 12.7083 6.79167 12.7083H3.25001V16.7916H6.70833ZM21.6666 6.75V5.29167H15.6666V6.75H21.6666ZM24 14.0833L23.9583 14.625H16.25C16.25 15.5416 16.4583 16.2084 16.9167 16.6666C17.3749 17.1666 18.0417 17.3749 18.875 17.3749C19.375 17.3749 19.8333 17.25 20.2917 16.9999C20.7499 16.75 21.0417 16.4166 21.2083 15.9583H23.7917C23 18.375 21.3333 19.5417 18.7917 19.5417C17.125 19.5417 15.7917 19.0416 14.7917 18C13.7917 16.9999 13.3333 15.625 13.3333 13.9583C13.3333 12.9167 13.5417 11.9583 14 11.0833C14.4583 10.25 15.1249 9.54166 15.9583 9.04167C16.7916 8.54166 17.7084 8.29167 18.7917 8.29167C20.375 8.29167 21.6666 8.875 22.6667 10C23.5416 11.0833 24 12.4583 24 14.0833ZM16.25 12.7917H21.0417C20.9583 12.0833 20.75 11.5417 20.375 11.125C19.9584 10.7083 19.4166 10.5 18.7083 10.5C18 10.5 17.4166 10.7083 17 11.125C16.5417 11.5417 16.2916 12.125 16.25 12.7917Z" fill="#C5C5C5"/>
</svg>
