<svg width="24" height="24" viewBox="0 0 24 24" fill="none" xmlns="http://www.w3.org/2000/svg">
<path d="M12 6.86608C12.8929 6.86608 13.7411 7.13392 14.5446 7.58036C15.3482 8.02679 15.9732 8.65179 16.4196 9.45536C16.8661 10.2589 17.1339 11.1071 17.1339 12C17.1339 12.9375 16.8661 13.7857 16.4196 14.5892C15.9732 15.3929 15.3482 16.0179 14.5446 16.4642C13.7411 16.9107 12.8929 17.1339 12 17.1339C11.0625 17.1339 10.2143 16.9107 9.41071 16.4642C8.60714 16.0179 7.98214 15.3929 7.53571 14.5892C7.08929 13.7857 6.86608 12.9375 6.86608 12C6.86608 11.1071 7.08929 10.2589 7.53571 9.45536C7.98214 8.65179 8.60714 8.02679 9.41071 7.58036C10.2143 7.13392 11.0625 6.86608 12 6.86608ZM12 15.3483C12.8929 15.3483 13.6964 15.0358 14.3661 14.3661C14.9911 13.7411 15.3483 12.9375 15.3483 12C15.3483 11.1071 14.9911 10.3036 14.3661 9.63392C13.6964 9.00892 12.8929 8.65179 12 8.65179C11.0625 8.65179 10.2589 9.00892 9.63392 9.63392C8.96429 10.3036 8.65179 11.1071 8.65179 12C8.65179 12.9375 8.96429 13.7411 9.63392 14.3661C10.2589 15.0358 11.0625 15.3483 12 15.3483ZM18.5625 6.64286C18.5625 6.33036 18.4286 6.0625 18.2054 5.79464C17.9375 5.57143 17.6696 5.4375 17.3571 5.4375C17 5.4375 16.7321 5.57143 16.5089 5.79464C16.2411 6.0625 16.1517 6.33036 16.1517 6.64286C16.1517 7 16.2411 7.26786 16.5089 7.49108C16.7321 7.75892 17 7.84821 17.3571 7.84821C17.6696 7.84821 17.9375 7.75892 18.1608 7.49108C18.3839 7.26786 18.5179 7 18.5625 6.64286ZM21.9554 7.84821C21.9554 8.69642 22 10.0804 22 12C22 13.9643 21.9554 15.3482 21.9108 16.1964C21.8661 17.0446 21.7321 17.7589 21.5536 18.3839C21.2858 19.1429 20.8393 19.8125 20.3036 20.3483C19.7679 20.8839 19.0982 21.2858 18.3839 21.5536C17.7589 21.7768 17 21.9107 16.1517 21.9554C15.3036 22 13.9196 22 12 22C10.0357 22 8.65179 22 7.80358 21.9554C6.95536 21.9107 6.24108 21.7767 5.61608 21.5089C4.85714 21.2857 4.1875 20.8839 3.65179 20.3483C3.11607 19.8125 2.71429 19.1429 2.44643 18.3839C2.22321 17.7589 2.08929 17.0446 2.04464 16.1964C2 15.3482 2 13.9643 2 12C2 10.0804 2 8.69642 2.04464 7.84821C2.08929 7 2.22321 6.24108 2.44643 5.61608C2.71429 4.90179 3.11607 4.23214 3.65179 3.69642C4.1875 3.16071 4.85714 2.71429 5.61608 2.44643C6.24108 2.26786 6.95536 2.13393 7.80358 2.08929C8.65179 2.04464 10.0357 2 12 2C13.9196 2 15.3036 2.04464 16.1517 2.08929C17 2.13393 17.7589 2.26786 18.3839 2.44643C19.0982 2.71429 19.7679 3.16071 20.3036 3.69642C20.8393 4.23214 21.2858 4.90179 21.5536 5.61608C21.7321 6.24108 21.8661 7 21.9554 7.84821ZM19.8125 17.8929C19.9911 17.4018 20.0804 16.5982 20.1696 15.4821C20.1696 14.8571 20.2142 13.9196 20.2142 12.7143V11.2857C20.2142 10.0804 20.1696 9.14286 20.1696 8.51786C20.0804 7.40179 19.9911 6.59821 19.8125 6.10714C19.4554 5.21429 18.7857 4.54464 17.8929 4.1875C17.4018 4.00892 16.5982 3.91964 15.4821 3.83036C14.8125 3.83036 13.875 3.78571 12.7143 3.78571H11.2857C10.0804 3.78571 9.14286 3.83036 8.51786 3.83036C7.40179 3.91964 6.59821 4.00892 6.10714 4.1875C5.16964 4.54464 4.54464 5.21429 4.1875 6.10714C4.00892 6.59821 3.875 7.40179 3.83036 8.51786C3.78571 9.1875 3.78571 10.125 3.78571 11.2857V12.7143C3.78571 13.9196 3.78571 14.8571 3.83036 15.4821C3.875 16.5982 4.00892 17.4018 4.1875 17.8929C4.54464 18.8304 5.21429 19.4554 6.10714 19.8125C6.59821 19.9911 7.40179 20.125 8.51786 20.1696C9.14286 20.2143 10.0804 20.2142 11.2857 20.2142H12.7143C13.9196 20.2142 14.8571 20.2143 15.4821 20.1696C16.5982 20.125 17.4018 19.9911 17.8929 19.8125C18.7857 19.4554 19.4554 18.7857 19.8125 17.8929Z" fill="#C5C5C5"/>
</svg>
