<svg width="24" height="24" viewBox="0 0 24 24" fill="none" xmlns="http://www.w3.org/2000/svg">
<path d="M22.5568 7.34376C22.718 8.04688 22.8791 9.14065 22.9597 10.5469L23 12.5L22.9597 14.4532C22.8791 15.9375 22.718 16.9922 22.5568 17.6954C22.3955 18.1642 22.1538 18.5547 21.8315 18.8672C21.4688 19.2189 21.0659 19.4532 20.5825 19.5704C19.8572 19.7657 18.2454 19.8828 15.6667 19.9609L12 20L8.33333 19.9609C5.75459 19.8828 4.10256 19.7657 3.41758 19.5704C2.93406 19.4532 2.49084 19.2189 2.1685 18.8672C1.80586 18.5547 1.5641 18.1642 1.44322 17.6954C1.24176 16.9922 1.12088 15.9375 1.04029 14.4532L1 12.5C1 11.9532 1 11.2891 1.04029 10.5469C1.12088 9.14065 1.24176 8.04688 1.44322 7.34376C1.5641 6.875 1.80586 6.48438 2.1685 6.13282C2.49084 5.82031 2.93406 5.58594 3.41758 5.42968C4.10256 5.27344 5.75459 5.11719 8.33333 5.03906L12 5L15.6667 5.03906C18.2454 5.11719 19.8572 5.27344 20.5825 5.42968C21.0659 5.58594 21.4688 5.82031 21.8315 6.13282C22.1538 6.48438 22.3955 6.875 22.5568 7.34376ZM9.74358 15.7032L15.5056 12.5L9.74358 9.33596V15.7032Z" fill="#C5C5C5"/>
</svg>
