<svg width="18" height="18" viewBox="0 0 18 18" fill="none" xmlns="http://www.w3.org/2000/svg">
<path d="M3.7326 7.71429V14.1429C3.7326 14.3134 3.80033 14.4769 3.92089 14.5974C4.04145 14.718 4.20497 14.7857 4.37546 14.7857H14.6612C14.8317 14.7857 14.9952 14.718 15.1157 14.5974C15.2363 14.4769 15.304 14.3134 15.304 14.1429V7.71429M3.7326 7.71429H15.304M3.7326 7.71429V5.14287C3.7326 4.97237 3.80033 4.80886 3.92089 4.6883C4.04145 4.56774 4.20497 4.50001 4.37546 4.50001H14.6612C14.8317 4.50001 14.9952 4.56774 15.1157 4.6883C15.2363 4.80886 15.304 4.97237 15.304 5.14287V7.71429M12.0897 3.21429V5.78572M6.94689 3.21429V5.78572" stroke="white" stroke-linecap="square" stroke-linejoin="round"/>
</svg>
