<svg width="18" height="18" viewBox="0 0 18 18" fill="none" xmlns="http://www.w3.org/2000/svg">
<path d="M3.21429 7.71429V14.1429C3.21429 14.3134 3.28202 14.4769 3.40258 14.5974C3.52314 14.718 3.68666 14.7857 3.85715 14.7857H14.1429C14.3134 14.7857 14.4769 14.718 14.5974 14.5974C14.718 14.4769 14.7857 14.3134 14.7857 14.1429V7.71429M3.21429 7.71429H14.7857M3.21429 7.71429V5.14287C3.21429 4.97237 3.28202 4.80886 3.40258 4.6883C3.52314 4.56774 3.68666 4.50001 3.85715 4.50001H14.1429C14.3134 4.50001 14.4769 4.56774 14.5974 4.6883C14.718 4.80886 14.7857 4.97237 14.7857 5.14287V7.71429M11.5714 3.21429V5.78572M6.42858 3.21429V5.78572" stroke="white" stroke-linecap="square" stroke-linejoin="round"/>
</svg>
