<svg width="64" height="64" viewBox="0 0 64 64" fill="none" xmlns="http://www.w3.org/2000/svg">
<rect width="64" height="64" rx="24" fill="black"/>
<path d="M33.286 39L27.886 26.31H25.33L19.93 39H22.756L23.908 36.174H29.236L30.388 39H33.286ZM28.246 33.726H24.898L26.572 29.64L28.246 33.726ZM37.2647 39V25.86H34.5287V39H37.2647ZM42.1564 39V25.86H39.4204V39H42.1564Z" fill="white"/>
<path fill-rule="evenodd" clip-rule="evenodd" d="M49.8418 37.3417C49.8418 37.9847 49.6163 38.5208 49.1659 38.9492C48.7148 39.3776 48.1765 39.5922 47.55 39.5922C47.2291 39.5922 46.927 39.5349 46.6446 39.4202C46.3616 39.305 46.1134 39.1483 45.8995 38.9492C45.6856 38.7504 45.5176 38.5169 45.3954 38.2486C45.273 37.9811 45.2119 37.6861 45.2119 37.3644C45.2119 37.0584 45.273 36.7673 45.3954 36.4921C45.5176 36.2162 45.6856 35.9748 45.8995 35.7682C46.1134 35.5616 46.3616 35.3974 46.6446 35.2744C46.927 35.1523 47.2291 35.0908 47.55 35.0908C48.1765 35.0908 48.7148 35.3052 49.1659 35.7338C49.6163 36.1625 49.8418 36.6986 49.8418 37.3417Z" fill="#FFB200"/>
</svg>
