<svg width="161" height="19" viewBox="0 0 161 19" fill="none" xmlns="http://www.w3.org/2000/svg">
<path d="M15.776 15.288L13.424 12.912C12.104 14.112 10.928 14.88 9.008 14.88C6.128 14.88 4.136 12.48 4.136 9.6V9.552C4.136 6.672 6.176 4.32 9.008 4.32C10.688 4.32 12.008 5.04 13.304 6.216L15.656 3.504C14.096 1.968 12.2 0.912 9.032 0.912C3.872 0.912 0.272 4.824 0.272 9.6V9.648C0.272 14.472 3.944 18.288 8.888 18.288C12.128 18.288 14.048 17.136 15.776 15.288ZM30.6924 11.592V11.544C30.6924 7.848 27.7404 4.896 23.7564 4.896C19.7484 4.896 16.7724 7.896 16.7724 11.592V11.64C16.7724 15.336 19.7244 18.288 23.7084 18.288C27.7164 18.288 30.6924 15.288 30.6924 11.592ZM27.0924 11.64C27.0924 13.536 25.8444 15.144 23.7564 15.144C21.7404 15.144 20.3724 13.488 20.3724 11.592V11.544C20.3724 9.648 21.6204 8.04 23.7084 8.04C25.7244 8.04 27.0924 9.696 27.0924 11.592V11.64ZM36.4299 18V0.48H32.7819V18H36.4299ZM52.4321 11.592V11.544C52.4321 7.848 49.4801 4.896 45.4961 4.896C41.4881 4.896 38.5121 7.896 38.5121 11.592V11.64C38.5121 15.336 41.4641 18.288 45.4481 18.288C49.4561 18.288 52.4321 15.288 52.4321 11.592ZM48.8321 11.64C48.8321 13.536 47.5841 15.144 45.4961 15.144C43.4801 15.144 42.1121 13.488 42.1121 11.592V11.544C42.1121 9.648 43.3601 8.04 45.4481 8.04C47.4641 8.04 48.8321 9.696 48.8321 11.592V11.64ZM63.7856 14.088V14.04C63.7856 11.688 61.6976 10.824 59.8976 10.224C58.5056 9.744 57.2816 9.408 57.2816 8.688V8.64C57.2816 8.136 57.7376 7.752 58.6256 7.752C59.5616 7.752 60.8336 8.208 62.1056 8.952L63.4976 6.432C62.1056 5.496 60.3296 4.944 58.6976 4.944C56.1056 4.944 53.9936 6.408 53.9936 9.024V9.072C53.9936 11.568 56.0336 12.408 57.8336 12.936C59.2496 13.368 60.4976 13.632 60.4976 14.424V14.472C60.4976 15.048 60.0176 15.432 58.9616 15.432C57.7616 15.432 56.2976 14.904 54.9056 13.896L53.3456 16.296C55.0496 17.64 57.0656 18.24 58.8656 18.24C61.6496 18.24 63.7856 16.944 63.7856 14.088ZM78.9764 11.592V11.544C78.9764 7.848 76.0244 4.896 72.0404 4.896C68.0324 4.896 65.0564 7.896 65.0564 11.592V11.64C65.0564 15.336 68.0084 18.288 71.9924 18.288C76.0004 18.288 78.9764 15.288 78.9764 11.592ZM75.3764 11.64C75.3764 13.536 74.1284 15.144 72.0404 15.144C70.0244 15.144 68.6564 13.488 68.6564 11.592V11.544C68.6564 9.648 69.9044 8.04 71.9924 8.04C74.0084 8.04 75.3764 9.696 75.3764 11.592V11.64ZM102.517 15.336L101.269 14.112C99.6613 15.648 98.1492 16.536 95.8452 16.536C92.1492 16.536 89.3412 13.488 89.3412 9.576C89.3412 5.664 92.1252 2.664 95.8452 2.664C98.1252 2.664 99.7092 3.624 101.125 4.968L102.421 3.576C100.741 1.992 98.9172 0.912 95.8692 0.912C90.9252 0.912 87.3732 4.824 87.3732 9.624C87.3732 14.472 90.9492 18.288 95.7972 18.288C98.8452 18.288 100.765 17.112 102.517 15.336ZM109.292 7.056C111.62 7.056 112.988 8.208 112.988 10.44V10.872C111.884 10.56 110.756 10.344 109.172 10.344C106.028 10.344 103.868 11.736 103.868 14.376C103.868 16.968 106.196 18.264 108.5 18.264C110.684 18.264 112.124 17.256 112.988 16.128V18H114.764V10.416C114.764 7.152 112.868 5.424 109.484 5.424C107.684 5.424 106.34 5.832 104.972 6.456L105.524 7.968C106.676 7.44 107.828 7.056 109.292 7.056ZM109.364 11.712C110.876 11.712 112.1 11.976 113.012 12.24V13.44C113.012 15.408 111.14 16.8 108.86 16.8C107.18 16.8 105.74 15.888 105.74 14.304C105.74 12.72 107.036 11.712 109.364 11.712ZM119.83 13.056C119.83 9.312 122.038 7.368 124.75 7.368H124.894V5.376C122.542 5.28 120.742 6.768 119.83 8.832V5.592H117.982V18H119.83V13.056ZM127.554 12.48H137.394C137.418 12.264 137.418 12.072 137.418 11.904C137.418 8.256 135.306 5.328 131.634 5.328C128.202 5.328 125.682 8.208 125.682 11.808C125.682 15.672 128.466 18.288 131.874 18.288C134.226 18.288 135.738 17.352 136.986 15.96L135.834 14.928C134.826 15.984 133.626 16.68 131.922 16.68C129.738 16.68 127.818 15.168 127.554 12.48ZM127.554 11.112C127.794 8.688 129.426 6.888 131.586 6.888C134.058 6.888 135.354 8.856 135.546 11.112H127.554ZM141.037 12.48H150.877C150.901 12.264 150.901 12.072 150.901 11.904C150.901 8.256 148.789 5.328 145.117 5.328C141.685 5.328 139.165 8.208 139.165 11.808C139.165 15.672 141.949 18.288 145.357 18.288C147.709 18.288 149.221 17.352 150.469 15.96L149.317 14.928C148.309 15.984 147.109 16.68 145.405 16.68C143.221 16.68 141.301 15.168 141.037 12.48ZM141.037 11.112C141.277 8.688 142.909 6.888 145.069 6.888C147.541 6.888 148.837 8.856 149.029 11.112H141.037ZM155.264 13.056C155.264 9.312 157.472 7.368 160.184 7.368H160.328V5.376C157.976 5.28 156.176 6.768 155.264 8.832V5.592H153.416V18H155.264V13.056Z" fill="white"/>
</svg>
