<svg width="24" height="24" viewBox="0 0 24 24" fill="none" xmlns="http://www.w3.org/2000/svg">
<path d="M12.0031 18C15.2831 18 18 15.2831 18 11.9969C18 8.71686 15.2769 6 11.9969 6C8.71686 6 6 8.71686 6 11.9969C6 15.2831 8.72305 18 12.0031 18ZM12.0031 16.9293C9.26766 16.9293 7.07684 14.7385 7.07684 11.9969C7.07684 9.26148 9.26148 7.06447 11.9969 7.06447C14.7323 7.06447 16.9293 9.26148 16.9355 11.9969C16.9417 14.7385 14.7385 16.9293 12.0031 16.9293ZM11.9536 9.94843C12.3868 9.94843 12.7272 9.60186 12.7272 9.17483C12.7272 8.73543 12.3868 8.39505 11.9536 8.39505C11.5266 8.39505 11.18 8.73543 11.18 9.17483C11.18 9.60186 11.5266 9.94843 11.9536 9.94843ZM10.9696 15.2089H13.3522C13.5998 15.2089 13.7978 15.0294 13.7978 14.7757C13.7978 14.5405 13.5998 14.3548 13.3522 14.3548H12.6529V11.4461C12.6529 11.1181 12.4858 10.9015 12.1826 10.9015H11.0748C10.8272 10.9015 10.6354 11.0872 10.6354 11.3223C10.6354 11.5761 10.8272 11.7555 11.0748 11.7555H11.6875V14.3548H10.9696C10.7282 14.3548 10.5302 14.5405 10.5302 14.7757C10.5302 15.0294 10.7282 15.2089 10.9696 15.2089Z" fill="#A0A0A0"/>
</svg>
