<svg width="24" height="24" viewBox="0 0 24 24" fill="none" xmlns="http://www.w3.org/2000/svg">
  <path fill-rule="evenodd" clip-rule="evenodd" d="M8.5 5.5C5.73858 5.5 3.5 7.73858 3.5 10.5V13.5C3.5 16.2614 5.73858 18.5 8.5 18.5H10.5L12 20L13.5 18.5H15.5C18.2614 18.5 20.5 16.2614 20.5 13.5V10.5C20.5 7.73858 18.2614 5.5 15.5 5.5H8.5Z" fill="#898989"/>
  <path d="M7.5 9.94126L7.73534 10.8679L8.63256 10.6473V14.6848H9.75042V9.5H8.97821L7.5 9.94126Z" fill="white"/>
  <path d="M12.8457 11.9196V10.7429H11.6543V11.9196H12.8457ZM12.8457 14.6848V13.5081H11.6543V14.6848H12.8457Z" fill="white"/>
  <path d="M14.2496 9.94126L14.4849 10.8679L15.3821 10.6473V14.6848H16.5V9.5H15.7278L14.2496 9.94126Z" fill="white"/>
</svg>
