<svg width="16" height="16" viewBox="0 0 16 16" fill="none" xmlns="http://www.w3.org/2000/svg">
<path d="M8.00406 16C12.384 16 16 12.384 16 7.99594C16 3.61605 12.3758 0 7.99594 0C3.61605 0 0 3.61605 0 7.99594C0 12.384 3.61605 16 8.00406 16ZM3.35602 3.25038C4.11986 2.50279 5.05434 1.9421 6.08634 1.62519C5.5419 2.16963 5.07059 2.94159 4.72118 3.89233C4.19299 3.72169 3.72981 3.51041 3.35602 3.25038ZM9.91366 1.62519C10.9538 1.9421 11.8883 2.51092 12.644 3.25038C12.2702 3.51041 11.8151 3.72169 11.2788 3.89233C10.9294 2.94972 10.4662 2.16963 9.91366 1.62519ZM5.82631 4.16049C6.24073 3.05536 6.81767 2.23464 7.44337 1.92585V4.33113C6.87456 4.30675 6.33012 4.24987 5.82631 4.16049ZM8.55663 1.92585C9.18233 2.23464 9.75927 3.05536 10.1737 4.16049C9.66988 4.24987 9.13357 4.30675 8.55663 4.33113V1.92585ZM1.36516 7.44337C1.4708 6.19198 1.93398 5.03809 2.64093 4.0711C3.09599 4.42052 3.69731 4.71305 4.40427 4.93245C4.21737 5.70442 4.09548 6.54139 4.05485 7.44337H1.36516ZM11.9451 7.44337C11.9045 6.54139 11.7908 5.70442 11.5957 4.93245C12.3027 4.71305 12.904 4.42052 13.3591 4.07923C14.0741 5.03809 14.5292 6.19198 14.6348 7.44337H11.9451ZM8.55663 7.44337V5.43626C9.23921 5.41188 9.88928 5.33875 10.4987 5.21686C10.6612 5.89944 10.775 6.65515 10.8156 7.44337H8.55663ZM5.19248 7.44337C5.22499 6.65515 5.33875 5.89944 5.5094 5.21686C6.11072 5.33875 6.76892 5.41188 7.44337 5.43626V7.44337H5.19248ZM1.36516 8.5485H4.05485C4.09548 9.45861 4.21737 10.32 4.41239 11.0919C3.71356 11.3113 3.11224 11.6039 2.65719 11.9451C1.9421 10.97 1.4708 9.80802 1.36516 8.5485ZM5.18436 8.5485H7.44337V10.5881C6.76892 10.6206 6.11884 10.6938 5.51752 10.8156C5.33875 10.1168 5.22499 9.34484 5.18436 8.5485ZM8.55663 10.5881V8.5485H10.8156C10.7831 9.34484 10.6612 10.1087 10.4906 10.8156C9.88116 10.6938 9.23108 10.6206 8.55663 10.5881ZM11.5957 11.0919C11.7908 10.32 11.9126 9.45861 11.9451 8.5485H14.6348C14.5292 9.80802 14.066 10.97 13.3428 11.9451C12.8878 11.6039 12.2946 11.3113 11.5957 11.0919ZM5.84256 11.8639C6.33824 11.7745 6.87456 11.7257 7.44337 11.7014V14.0741C6.8258 13.7654 6.25698 12.9528 5.84256 11.8639ZM8.55663 11.7014C9.12544 11.7257 9.66176 11.7745 10.1656 11.8639C9.75114 12.9528 9.18233 13.7654 8.55663 14.0741V11.7014ZM3.3804 12.7659C3.74606 12.514 4.20112 12.3027 4.7293 12.132C5.07872 13.0665 5.5419 13.8304 6.07821 14.3667C5.05434 14.0498 4.13611 13.4972 3.3804 12.7659ZM11.2707 12.132C11.7989 12.3027 12.2539 12.514 12.6277 12.7659C11.872 13.4972 10.9457 14.0498 9.92179 14.3667C10.4662 13.8304 10.9294 13.0665 11.2707 12.132Z" fill="white"/>
</svg>