<svg width="12" height="12" viewBox="0 0 12 12" fill="none" xmlns="http://www.w3.org/2000/svg">
<path d="M6.00309 12C9.28314 12 12 9.28314 12 5.99691C12 2.71686 9.27695 0 5.99691 0C2.71686 0 0 2.71686 0 5.99691C0 9.28314 2.72305 12 6.00309 12ZM6.00309 10.9293C3.26766 10.9293 1.07684 8.73853 1.07684 5.99691C1.07684 3.26148 3.26148 1.06447 5.99691 1.06447C8.73234 1.06447 10.9293 3.26148 10.9355 5.99691C10.9417 8.73853 8.73853 10.9293 6.00309 10.9293ZM5.95358 3.94843C6.3868 3.94843 6.72718 3.60186 6.72718 3.17483C6.72718 2.73543 6.3868 2.39505 5.95358 2.39505C5.52656 2.39505 5.17999 2.73543 5.17999 3.17483C5.17999 3.60186 5.52656 3.94843 5.95358 3.94843ZM4.96957 9.20887H7.35224C7.59979 9.20887 7.79783 9.0294 7.79783 8.77566C7.79783 8.54049 7.59979 8.35482 7.35224 8.35482H6.65291V5.44611C6.65291 5.1181 6.48582 4.9015 6.18257 4.9015H5.07478C4.82723 4.9015 4.63538 5.08716 4.63538 5.32233C4.63538 5.57607 4.82723 5.75554 5.07478 5.75554H5.68747V8.35482H4.96957C4.72821 8.35482 4.53017 8.54049 4.53017 8.77566C4.53017 9.0294 4.72821 9.20887 4.96957 9.20887Z" fill="#333333"/>
</svg>
