<svg width="24" height="24" viewBox="0 0 24 24" fill="none" xmlns="http://www.w3.org/2000/svg">
  <path fill-rule="evenodd" clip-rule="evenodd" d="M3.5 11C3.5 8.23858 5.73858 6 8.5 6H11.5V10.2989L11.2721 10.0709C10.3015 9.10038 8.72792 9.10038 7.75736 10.0709C7.35577 10.4725 7.12035 10.9774 7.05109 11.5H3.5V11ZM12.5 10.2989V6H15.5C18.2614 6 20.5 8.23858 20.5 11V11.5H16.9489C16.8797 10.9774 16.6442 10.4725 16.2426 10.0709C15.2721 9.10038 13.6985 9.10038 12.7279 10.0709L12.5 10.2989ZM16.8785 12.5H20.5V13C20.5 15.7614 18.2614 18 15.5 18H12.5V13.3577L12.7279 13.5857C13.6985 14.5562 15.2721 14.5562 16.2426 13.5857C16.5554 13.2729 16.7673 12.8976 16.8785 12.5ZM15.8104 12.5C15.7412 12.6365 15.6496 12.7645 15.5355 12.8785C14.9555 13.4586 14.0151 13.4586 13.435 12.8785L13.0565 12.5H15.8104ZM15.934 11.5H12.7131L13.435 10.778C14.0151 10.198 14.9555 10.198 15.5355 10.778C15.7415 10.984 15.8743 11.2354 15.934 11.5ZM10.565 10.778L11.2869 11.5H8.06598C8.12567 11.2354 8.2585 10.984 8.46447 10.778C9.04451 10.198 9.98493 10.198 10.565 10.778ZM10.9435 12.5H8.18955C8.25876 12.6365 8.3504 12.7645 8.46447 12.8785C9.04451 13.4586 9.98493 13.4586 10.565 12.8785L10.9435 12.5ZM7.75736 13.5857C7.44464 13.2729 7.23267 12.8976 7.12147 12.5H3.5V13C3.5 15.7614 5.73858 18 8.5 18H11.5V13.3577L11.2721 13.5857C10.3015 14.5562 8.72792 14.5562 7.75736 13.5857Z" fill="#898989"/>
</svg>
