<svg width="17" height="16" viewBox="0 0 17 16" fill="none" xmlns="http://www.w3.org/2000/svg">
<path d="M0.765137 7.92432C0.765137 9.62354 1.60742 10.627 3.19678 10.8174L4.77881 14.3184C5.16699 15.1826 5.70898 15.6074 6.52197 15.6074C7.55469 15.6074 8.29443 14.8677 8.06738 13.6665L7.56201 11.0444C9.54688 11.418 11.561 12.1211 13.3774 13.1831C13.5898 13.9448 14.2344 14.4282 15.1133 14.4282C16.1973 14.4282 16.9224 13.6958 16.9224 12.6191V2.13818C16.9224 1.06152 16.1973 0.329102 15.1133 0.329102C14.2124 0.329102 13.5532 0.834473 13.3628 1.63281C11.2314 2.8999 8.50684 3.71289 6.34619 3.94727H3.80469C1.82715 3.94727 0.765137 4.97266 0.765137 6.87695V7.92432ZM14.4907 12.6191V2.13818C14.4907 1.76465 14.7397 1.5083 15.1133 1.5083C15.4941 1.5083 15.7432 1.76465 15.7432 2.13818V12.6191C15.7432 12.9927 15.4941 13.249 15.1133 13.249C14.7397 13.249 14.4907 12.9927 14.4907 12.6191ZM6.5 9.7041V5.09717C8.95361 4.8042 11.29 4.11572 13.3042 2.96582V11.8354C11.2461 10.6636 8.93164 9.98975 6.5 9.7041ZM3.80469 9.6748C2.49365 9.6748 1.95166 9.16943 1.95166 7.92432V6.87695C1.95166 5.63916 2.49365 5.12646 3.80469 5.12646H5.31348V9.6748H3.80469ZM5.87744 13.9888L4.4126 10.854H6.30225C6.33887 10.8613 6.37549 10.8687 6.41211 10.8687L6.99805 13.8276C7.07861 14.2378 6.84424 14.4941 6.5 14.4941C6.19238 14.4941 6.03857 14.3403 5.87744 13.9888Z" fill="#333333"/>
</svg>
