<svg width="20" height="20" viewBox="0 0 20 20" fill="none" xmlns="http://www.w3.org/2000/svg">
<path d="M10.0036 17C13.8303 17 17 13.8287 17 10C17 6.17131 13.8231 3 9.99639 3C6.16968 3 3 6.17131 3 10C3 13.8287 6.1769 17 10.0036 17ZM10.3718 13.2147C9.99639 13.2147 9.76534 12.969 9.76534 12.5356V8.07843H9.7148L8.82671 8.65635C8.66065 8.77915 8.58123 8.7936 8.4657 8.7936C8.22744 8.7936 8.03971 8.58411 8.03971 8.34572C8.03971 8.15067 8.11913 8.02786 8.27798 7.9195L9.5343 7.06708C9.85199 6.85036 10.0469 6.77812 10.3285 6.77812C10.7401 6.77812 10.9856 7.02374 10.9856 7.45717V12.5356C10.9856 12.969 10.7617 13.2147 10.3718 13.2147Z" fill="#D0D0D0"/>
</svg>
