<svg width="20" height="20" viewBox="0 0 20 20" fill="none" xmlns="http://www.w3.org/2000/svg">
<path d="M10.0036 17C13.8303 17 17 13.8287 17 10C17 6.17131 13.8231 3 9.99639 3C6.16968 3 3 6.17131 3 10C3 13.8287 6.1769 17 10.0036 17ZM8.3935 13.2002C8.06137 13.2002 7.85921 13.0052 7.85921 12.7018C7.85921 12.5428 7.92419 12.3911 8.06137 12.2394L10.278 9.89164C10.704 9.4582 11.1155 9.03199 11.1155 8.54076C11.1155 7.98452 10.6968 7.60888 10.0469 7.60888C9.39711 7.60888 9.0361 8.04231 8.84838 8.45408C8.73285 8.65635 8.59567 8.81527 8.32852 8.81527C8.02527 8.81527 7.8231 8.62745 7.8231 8.33849C7.8231 8.23736 7.83755 8.15067 7.87365 8.04231C8.10469 7.24768 9 6.64087 10.0181 6.64087C11.3394 6.64087 12.213 7.36326 12.213 8.44685C12.213 9.21981 11.7798 9.78328 11.1372 10.4479L9.5343 12.1527V12.2033H12.0036C12.3069 12.2033 12.5235 12.3911 12.5235 12.6945C12.5235 13.0052 12.3069 13.2002 12.0036 13.2002H8.3935Z" fill="#D0D0D0"/>
</svg>
