<svg width="38" height="24" viewBox="0 0 38 24" fill="none" xmlns="http://www.w3.org/2000/svg">
<path d="M35 0H3C1.3 0 0 1.3 0 3V21C0 22.7 1.4 24 3 24H35C36.7 24 38 22.7 38 21V3C38 1.3 36.6 0 35 0Z" fill="#F2F2F2"/>
<path d="M35 1C36.1 1 37 1.9 37 3V21C37 22.1 36.1 23 35 23H3C1.9 23 1 22.1 1 21V3C1 1.9 1.9 1 3 1H35Z" fill="white"/>
<path fill-rule="evenodd" clip-rule="evenodd" d="M24.051 12.2836H24.0627H24.0852H24.1077H24.1302H24.1527H24.1752H24.1978H24.2203H24.2428H24.2653H24.2878H24.3104H24.3329H24.3554H24.3779H24.4004H24.4229H24.4455H24.468H24.4905H24.513H24.5355H24.558H24.5806H24.6031H24.6256H24.6481H24.6706H24.6931H24.7157H24.7382H24.7607H24.7832H24.8057H24.8283H24.8508H24.8733H24.8958H24.9183H24.9408H24.9634H24.9859H25.0084H25.0309H25.0534H25.076H25.0985H25.121H25.1435H25.166H25.1885H25.2111H25.2336H25.2561H25.2786H25.3011H25.3237H25.3462H25.3687H25.3912H25.4099L25.4137 12.2837C25.4207 12.2839 25.4283 12.2842 25.4363 12.2846C25.4435 12.285 25.451 12.2855 25.4588 12.2861C25.4662 12.2867 25.4737 12.2873 25.4813 12.288C25.4889 12.2887 25.4964 12.2894 25.5038 12.2903C25.5115 12.2911 25.5191 12.292 25.5263 12.293C25.5344 12.2941 25.542 12.2952 25.5488 12.2964C25.5538 12.2972 25.5584 12.2981 25.5625 12.299L25.5714 12.301C25.5789 12.3027 25.5864 12.3046 25.5939 12.3067C25.6014 12.3088 25.6089 12.311 25.6164 12.3134C25.624 12.3158 25.6315 12.3184 25.6389 12.3211C25.6465 12.3238 25.654 12.3267 25.6614 12.3297C25.669 12.3328 25.6765 12.3361 25.6839 12.3395C25.6915 12.343 25.699 12.3466 25.7065 12.3504C25.714 12.3542 25.7215 12.3582 25.729 12.3624C25.7366 12.3667 25.7441 12.3712 25.7515 12.3758C25.7591 12.3805 25.7666 12.3854 25.774 12.3905C25.7816 12.3957 25.7892 12.4011 25.7965 12.4066C25.8042 12.4124 25.8117 12.4184 25.8191 12.4245C25.8267 12.4309 25.8342 12.4375 25.8416 12.4442C25.8493 12.4513 25.8568 12.4585 25.8641 12.466C25.8718 12.4739 25.8793 12.482 25.8866 12.4903C25.8944 12.4991 25.9019 12.5082 25.9091 12.5175C25.9169 12.5275 25.9244 12.5378 25.9316 12.5484C25.9395 12.5599 25.947 12.5718 25.9542 12.584C25.9622 12.5977 25.9697 12.6119 25.9767 12.6264C25.985 12.6436 25.9925 12.6614 25.9992 12.6796C26.0082 12.7041 26.0158 12.7295 26.0217 12.7557C26.032 12.8012 26.0376 12.8491 26.0376 12.8991C26.0376 12.9493 26.032 12.9974 26.0217 13.043C26.0158 13.0693 26.0082 13.0947 25.9992 13.1193C25.9925 13.1376 25.985 13.1553 25.9767 13.1726C25.9697 13.1871 25.9622 13.2013 25.9542 13.2151C25.947 13.2273 25.9395 13.2391 25.9316 13.2507C25.9244 13.2613 25.9169 13.2716 25.9091 13.2816C25.9019 13.2909 25.8944 13.3 25.8866 13.3088C25.8793 13.3171 25.8718 13.3252 25.8641 13.3331C25.8568 13.3405 25.8492 13.3477 25.8416 13.3548C25.8342 13.3615 25.8267 13.3681 25.8191 13.3744C25.8117 13.3806 25.8042 13.3865 25.7965 13.3923C25.7892 13.3978 25.7816 13.4032 25.774 13.4084C25.7666 13.4134 25.7591 13.4183 25.7515 13.423C25.7441 13.4276 25.7366 13.432 25.729 13.4363C25.7216 13.4405 25.7141 13.4445 25.7065 13.4483C25.699 13.452 25.6915 13.4556 25.6839 13.4591C25.6765 13.4625 25.669 13.4657 25.6614 13.4688C25.654 13.4718 25.6465 13.4747 25.6389 13.4774C25.6315 13.48 25.624 13.4826 25.6164 13.4849C25.6089 13.4873 25.6014 13.4895 25.5939 13.4915C25.5864 13.4935 25.5789 13.4954 25.5714 13.4972L25.5625 13.4992C25.5584 13.5001 25.5538 13.501 25.5488 13.5019C25.542 13.5031 25.5344 13.5042 25.5263 13.5053C25.5191 13.5063 25.5115 13.5073 25.5038 13.5081C25.4964 13.5089 25.4889 13.5097 25.4813 13.5104C25.4737 13.511 25.4662 13.5117 25.4588 13.5122C25.451 13.5127 25.4435 13.5132 25.4363 13.5136C25.4283 13.514 25.4207 13.5143 25.4137 13.5145L25.4017 13.5146H25.3912H25.3687H25.3462H25.3237H25.3011H25.2786H25.2561H25.2336H25.2111H25.1885H25.166H25.1435H25.121H25.0985H25.076H25.0534H25.0309H25.0084H24.9859H24.9634H24.9408H24.9183H24.8958H24.8733H24.8508H24.8283H24.8057H24.7832H24.7607H24.7382H24.7157H24.6931H24.6706H24.6481H24.6256H24.6031H24.5806H24.558H24.5355H24.513H24.4905H24.468H24.4455H24.4229H24.4004H24.3779H24.3554H24.3329H24.3104H24.2878H24.2653H24.2428H24.2203H24.1978H24.1752H24.1527H24.1302H24.1077H24.0852H24.0627H24.051V12.2836ZM25.8642 10.8904C25.8732 10.9317 25.8781 10.9755 25.8781 11.0216C25.8781 11.0676 25.8732 11.1113 25.8642 11.1526C25.8583 11.1791 25.8508 11.2046 25.8416 11.2291C25.835 11.2469 25.8274 11.2642 25.8191 11.2809C25.8122 11.2949 25.8046 11.3084 25.7966 11.3215C25.7895 11.3332 25.782 11.3444 25.7741 11.3554C25.7669 11.3653 25.7594 11.375 25.7516 11.3844C25.7443 11.3931 25.7368 11.4016 25.7291 11.4098C25.7218 11.4176 25.7143 11.425 25.7066 11.4323C25.6992 11.4392 25.6917 11.4459 25.684 11.4524C25.6767 11.4586 25.6692 11.4646 25.6615 11.4704C25.6541 11.476 25.6466 11.4814 25.639 11.4866C25.6316 11.4916 25.6241 11.4965 25.6165 11.5012C25.6091 11.5057 25.6016 11.5101 25.594 11.5143C25.5865 11.5184 25.579 11.5224 25.5714 11.5262C25.564 11.5299 25.5565 11.5334 25.5489 11.5368C25.5415 11.5401 25.534 11.5432 25.5264 11.5462C25.519 11.5491 25.5115 11.5519 25.5039 11.5545C25.4964 11.5571 25.4889 11.5596 25.4814 11.5619C25.4739 11.5641 25.4664 11.5662 25.4589 11.5682C25.4514 11.5701 25.4439 11.5719 25.4363 11.5736C25.4289 11.5752 25.4214 11.5767 25.4138 11.578L25.4084 11.579C25.404 11.5798 25.3982 11.5806 25.3913 11.5815C25.3847 11.5823 25.377 11.5832 25.3688 11.584C25.3617 11.5848 25.3541 11.5855 25.3463 11.5861C25.3389 11.5867 25.3313 11.5873 25.3237 11.5878C25.3162 11.5882 25.3086 11.5887 25.3012 11.589C25.2934 11.5893 25.2859 11.5895 25.2787 11.5895L25.2752 11.5895H25.2562H25.2337H25.2112H25.1887H25.1661H25.1436H25.1211H25.0986H25.0761H25.0536H25.031H25.0085H24.986H24.9635H24.941H24.9184H24.8959H24.8734H24.8509H24.8284H24.8059H24.7833H24.7608H24.7383H24.7158H24.6933H24.6708H24.6483H24.6257H24.6032H24.5807H24.5582H24.5357H24.5132H24.4906H24.4681H24.4456H24.4231H24.4006H24.378H24.3555H24.333H24.3105H24.288H24.2655H24.2429H24.2204H24.1979H24.1754H24.1529H24.1304H24.1078H24.0853H24.0628H24.051V10.4536H24.0628H24.0853H24.1078H24.1304H24.1529H24.1754H24.1979H24.2204H24.2429H24.2655H24.288H24.3105H24.333H24.3555H24.378H24.4006H24.4231H24.4456H24.4681H24.4906H24.5132H24.5357H24.5582H24.5807H24.6032H24.6257H24.6483H24.6708H24.6933H24.7158H24.7383H24.7608H24.7833H24.8059H24.8284H24.8509H24.8734H24.8959H24.9184H24.941H24.9635H24.986H25.0085H25.031H25.0536H25.0761H25.0986H25.1211H25.1436H25.1661H25.1887H25.2112H25.2337H25.2562H25.2787H25.2882L25.3012 10.454C25.3086 10.4543 25.3162 10.4547 25.3237 10.4552C25.3313 10.4557 25.3389 10.4563 25.3463 10.4569C25.3541 10.4575 25.3617 10.4582 25.3688 10.4589C25.377 10.4597 25.3847 10.4605 25.3913 10.4613C25.3982 10.4621 25.404 10.4628 25.4084 10.4634L25.4138 10.4644C25.4214 10.4658 25.4289 10.4673 25.4363 10.4689C25.4439 10.4706 25.4514 10.4724 25.4589 10.4744C25.4664 10.4764 25.4739 10.4785 25.4814 10.4808C25.4889 10.4831 25.4964 10.4855 25.5039 10.4881C25.5115 10.4908 25.519 10.4936 25.5264 10.4965C25.534 10.4995 25.5415 10.5027 25.5489 10.506C25.5565 10.5094 25.564 10.5129 25.5714 10.5166C25.579 10.5204 25.5865 10.5244 25.594 10.5285C25.6016 10.5327 25.6091 10.5371 25.6165 10.5417C25.6241 10.5463 25.6316 10.5512 25.639 10.5563C25.6466 10.5615 25.6541 10.5669 25.6615 10.5725C25.6692 10.5783 25.6767 10.5843 25.684 10.5905C25.6917 10.597 25.6992 10.6037 25.7066 10.6106C25.7143 10.6179 25.7218 10.6254 25.7291 10.6331C25.7368 10.6413 25.7443 10.6498 25.7516 10.6585C25.7594 10.6679 25.7669 10.6776 25.7741 10.6876C25.782 10.6985 25.7895 10.7098 25.7966 10.7214C25.8046 10.7345 25.8122 10.7481 25.8191 10.7621C25.8274 10.7787 25.835 10.796 25.8416 10.8139C25.8508 10.8383 25.8583 10.8638 25.8642 10.8904ZM28.6567 5H28.6659L28.6659 16.6667C28.6659 16.7364 28.6627 16.8053 28.6567 16.8735C28.6514 16.9335 28.6439 16.9928 28.6342 17.0514C28.6276 17.0907 28.6201 17.1297 28.6116 17.1684C28.6048 17.1999 28.5973 17.2311 28.5891 17.2621C28.5821 17.2888 28.5746 17.3153 28.5666 17.3417C28.5594 17.3655 28.552 17.3892 28.5441 17.4127C28.5369 17.434 28.5293 17.4551 28.5216 17.4762C28.5143 17.4958 28.5068 17.5152 28.499 17.5345C28.4918 17.5527 28.4842 17.5707 28.4765 17.5887C28.4692 17.6057 28.4617 17.6226 28.454 17.6393C28.4467 17.6553 28.4392 17.6712 28.4315 17.687C28.4241 17.7021 28.4166 17.7172 28.4089 17.7321C28.4016 17.7464 28.3941 17.7607 28.3864 17.7748C28.3791 17.7884 28.3715 17.8019 28.3639 17.8153C28.3565 17.8283 28.349 17.8412 28.3414 17.8541C28.334 17.8666 28.3265 17.879 28.3189 17.8914C28.3114 17.9034 28.304 17.9154 28.2963 17.9273C28.2889 17.9388 28.2814 17.9502 28.2738 17.9615C28.2664 17.9726 28.2589 17.9836 28.2513 17.9945C28.2439 18.0052 28.2364 18.0159 28.2288 18.0265C28.2213 18.0369 28.2139 18.0472 28.2063 18.0574C28.1988 18.0674 28.1913 18.0772 28.1837 18.087C28.1763 18.0967 28.1688 18.1064 28.1612 18.116C28.1538 18.1253 28.1463 18.1347 28.1387 18.1439C28.1313 18.153 28.1237 18.1619 28.1162 18.1709C28.1087 18.1797 28.1013 18.1886 28.0936 18.1974C28.0862 18.2059 28.0787 18.2143 28.0711 18.2227C28.0637 18.2311 28.0562 18.2393 28.0486 18.2475C28.0411 18.2556 28.0337 18.2637 28.0261 18.2717C28.0187 18.2795 28.0111 18.2873 28.0036 18.295C27.9961 18.3027 27.9886 18.3104 27.981 18.318C27.9736 18.3254 27.966 18.3327 27.9585 18.34C27.951 18.3472 27.9436 18.3545 27.936 18.3617C27.9285 18.3687 27.921 18.3757 27.9135 18.3826C27.906 18.3895 27.8985 18.3964 27.8909 18.4032C27.8835 18.4099 27.876 18.4165 27.8684 18.4231C27.861 18.4297 27.8534 18.4361 27.8459 18.4426C27.8384 18.4489 27.831 18.4553 27.8234 18.4616C27.8159 18.4678 27.8084 18.4739 27.8009 18.48C27.7934 18.4861 27.7859 18.4921 27.7783 18.4981C27.7709 18.504 27.7633 18.5098 27.7558 18.5156C27.7483 18.5214 27.7409 18.5272 27.7333 18.5328C27.7259 18.5384 27.7183 18.5439 27.7108 18.5495C27.7033 18.5549 27.6958 18.5605 27.6882 18.5659C27.6808 18.5712 27.6733 18.5764 27.6657 18.5817C27.6582 18.5869 27.6508 18.5922 27.6432 18.5973C27.6357 18.6024 27.6282 18.6073 27.6207 18.6123C27.6132 18.6173 27.6057 18.6223 27.5982 18.6272C27.5907 18.632 27.5832 18.6367 27.5757 18.6415C27.5682 18.6462 27.5607 18.6509 27.5531 18.6556C27.5457 18.6601 27.5382 18.6647 27.5306 18.6692L27.5081 18.6825C27.5006 18.6869 27.4931 18.6913 27.4856 18.6956C27.4781 18.6998 27.4706 18.704 27.463 18.7082C27.4555 18.7123 27.4481 18.7165 27.4405 18.7206C27.4331 18.7246 27.4255 18.7285 27.418 18.7325C27.4105 18.7364 27.403 18.7405 27.3955 18.7444C27.388 18.7482 27.3805 18.7518 27.373 18.7556C27.3655 18.7593 27.358 18.7631 27.3504 18.7668C27.343 18.7704 27.3354 18.7739 27.3279 18.7775L27.3054 18.788L27.2829 18.7982C27.2754 18.8016 27.2679 18.8048 27.2603 18.8081C27.2528 18.8113 27.2454 18.8147 27.2378 18.8178C27.2304 18.821 27.2228 18.824 27.2153 18.827C27.2078 18.8301 27.2003 18.8333 27.1928 18.8362C27.1853 18.8392 27.1778 18.842 27.1703 18.8449C27.1628 18.8478 27.1553 18.8507 27.1478 18.8535L27.1252 18.8618C27.1177 18.8645 27.1102 18.8671 27.1027 18.8697C27.0952 18.8723 27.0877 18.8751 27.0802 18.8776C27.0727 18.8801 27.0652 18.8825 27.0577 18.8849L27.0351 18.8922C27.0277 18.8946 27.0201 18.8969 27.0126 18.8992L26.9901 18.9059C26.9826 18.9081 26.9751 18.9103 26.9676 18.9125C26.9601 18.9146 26.9526 18.9165 26.9451 18.9186C26.9375 18.9206 26.9301 18.9227 26.9225 18.9247L26.9 18.9303L26.8775 18.9358L26.855 18.9412C26.8475 18.9429 26.84 18.9445 26.8324 18.9461C26.8249 18.9478 26.8175 18.9495 26.8099 18.951L26.7874 18.9555L26.7649 18.9598C26.7574 18.9612 26.7499 18.9627 26.7424 18.9641C26.7349 18.9654 26.7273 18.9665 26.7198 18.9678L26.6973 18.9715L26.6748 18.9749L26.6523 18.9781C26.6448 18.9791 26.6373 18.9803 26.6297 18.9812C26.6223 18.9822 26.6147 18.9829 26.6072 18.9838C26.5997 18.9847 26.5922 18.9856 26.5847 18.9864C26.5772 18.9872 26.5697 18.988 26.5622 18.9887C26.5547 18.9895 26.5472 18.9901 26.5397 18.9907C26.5321 18.9914 26.5247 18.9921 26.5171 18.9927C26.5096 18.9933 26.5021 18.9938 26.4946 18.9943L26.4721 18.9957C26.4646 18.9962 26.4571 18.9967 26.4496 18.9971C26.4421 18.9974 26.4346 18.9976 26.427 18.9979L26.4045 18.9988L26.382 18.9994C26.3745 18.9995 26.367 18.9996 26.3595 18.9997L26.337 18.9999L26.3323 19H26.3145H26.2919H26.2694H26.2469H26.2244H26.2018H26.1793H26.1568H26.1343H26.1118H26.0892H26.0667H26.0442H26.0217H25.9991H25.9766H25.9541H25.9316H25.9091H25.8865H25.864H25.8415H25.819H25.7964H25.7739H25.7514H25.7289H25.7064H25.6838H25.6613H25.6388H25.6163H25.5938H25.5712H25.5487H25.5262H25.5037H25.4812H25.4586H25.4361H25.4136H25.3911H25.3685H25.346H25.3235H25.301H25.2785H25.2559H25.2334H25.2109H25.1884H25.1659H25.1433H25.1208H25.0983H25.0758H25.0532H25.0307H25.0082H24.9857H24.9632H24.9406H24.9181H24.8956H24.8731H24.8506H24.828H24.8055H24.783H24.7605H24.7379H24.7154H24.6929H24.6704H24.6479H24.6253H24.6028H24.5803H24.5578H24.5353H24.5127H24.4902H24.4677H24.4452H24.4226H24.4001H24.3776H24.3551H24.3326H24.31H24.2875H24.265H24.2425H24.2199H24.1974H24.1749H24.1524H24.1299H24.1073H24.0848H24.0623H24.0398H24.0173H23.9947H23.9722H23.9497H23.9272H23.9047H23.8821H23.8596H23.8371H23.8146H23.792H23.7695H23.747H23.7245H23.702H23.6794H23.6569H23.6344H23.6119H23.5893H23.5668H23.5443H23.5218H23.4993H23.4767H23.4542H23.4317H23.4092H23.3867H23.3641H23.3416H23.3191H23.2966H23.2741H23.2515H23.229H23.2065H23.184H23.1614H23.1389H23.1164H23.0939H23.0714H23.0488H23.0263H23.0038H22.9813H22.9587H22.9102V14.2431H22.9587H22.9813H23.0038H23.0263H23.0488H23.0714H23.0939H23.1164H23.1389H23.1614H23.184H23.2065H23.229H23.2515H23.2741H23.2966H23.3191H23.3416H23.3641H23.3867H23.4092H23.4317H23.4542H23.4767H23.4993H23.5218H23.5443H23.5668H23.5893H23.6119H23.6344H23.6569H23.6794H23.702H23.7245H23.747H23.7695H23.792H23.8146H23.8371H23.8596H23.8821H23.9047H23.9272H23.9497H23.9722H23.9947H24.0173H24.0398H24.0623H24.0848H24.1073H24.1299H24.1524H24.1749H24.1974H24.2199H24.2425H24.265H24.2875H24.31H24.3326H24.3551H24.3776H24.4001H24.4226H24.4452H24.4677H24.4902H24.5127H24.5353H24.5578H24.5803H24.6028H24.6253H24.6479H24.6704H24.6929H24.7154H24.7379H24.7605H24.783H24.8055H24.828H24.8506H24.8731H24.8956H24.9181H24.9406H24.9632H24.9857H25.0082H25.0307H25.0532H25.0758H25.0983H25.1208H25.1433H25.1659H25.1884H25.2109H25.2334H25.2559H25.2785H25.301H25.3235H25.346H25.3685H25.3911H25.4136H25.4361H25.4586H25.4812H25.5037H25.5262H25.5487H25.5712H25.5938H25.6163H25.6388H25.6613H25.6838H25.7064H25.7289H25.7514H25.7739H25.7964H25.819H25.8415H25.864H25.8865H25.9091H25.9316H25.9541H25.9766H25.9991H26.0217H26.0442H26.0667H26.0892H26.1118H26.1343H26.1568H26.1793H26.2018H26.2244H26.2469H26.2694H26.2919H26.3145H26.337H26.3595H26.382H26.4045H26.427H26.4496H26.4721H26.4946H26.5171H26.5291L26.5397 14.243L26.5622 14.2428L26.5847 14.2423C26.5922 14.2422 26.5997 14.242 26.6072 14.2418C26.6148 14.2415 26.6222 14.2412 26.6297 14.2408L26.6523 14.2398L26.6748 14.2384L26.6973 14.2369L26.7198 14.2351L26.7424 14.233C26.7499 14.2323 26.7574 14.2316 26.7649 14.2309C26.7724 14.2301 26.7799 14.2292 26.7874 14.2283L26.8099 14.2256C26.8175 14.2246 26.825 14.2237 26.8324 14.2226C26.84 14.2216 26.8475 14.2204 26.855 14.2193C26.8625 14.2182 26.87 14.217 26.8775 14.2158L26.9 14.212L26.9225 14.208C26.93 14.2066 26.9376 14.2052 26.9451 14.2037C26.9526 14.2022 26.9601 14.2006 26.9676 14.1991L26.9901 14.1942C26.9976 14.1925 27.0051 14.1908 27.0126 14.1891C27.0202 14.1873 27.0277 14.1854 27.0351 14.1836C27.0427 14.1817 27.0502 14.1798 27.0577 14.1778C27.0652 14.1759 27.0727 14.1739 27.0802 14.1718C27.0877 14.1697 27.0952 14.1675 27.1027 14.1654C27.1102 14.1632 27.1178 14.161 27.1252 14.1587L27.1478 14.1516C27.1553 14.1492 27.1628 14.1467 27.1703 14.1442C27.1778 14.1417 27.1853 14.1391 27.1928 14.1365C27.2003 14.1338 27.2079 14.1312 27.2153 14.1284C27.2229 14.1257 27.2303 14.1227 27.2378 14.1199C27.2454 14.117 27.2529 14.114 27.2603 14.111C27.2679 14.108 27.2754 14.1049 27.2829 14.1018C27.2904 14.0986 27.2979 14.0954 27.3054 14.0921C27.3129 14.0888 27.3204 14.0854 27.3279 14.0819C27.3355 14.0785 27.343 14.075 27.3504 14.0714C27.358 14.0678 27.3655 14.0642 27.373 14.0605C27.3805 14.0567 27.388 14.0528 27.3955 14.0489C27.403 14.045 27.4105 14.0409 27.418 14.0369C27.4256 14.0327 27.4331 14.0286 27.4405 14.0243C27.4481 14.02 27.4556 14.0157 27.463 14.0113C27.4706 14.0068 27.4781 14.0023 27.4856 13.9977C27.4931 13.9929 27.5006 13.9882 27.5081 13.9833C27.5157 13.9784 27.5232 13.9734 27.5306 13.9683C27.5382 13.9632 27.5457 13.958 27.5531 13.9527C27.5607 13.9473 27.5682 13.9419 27.5757 13.9363C27.5833 13.9307 27.5908 13.925 27.5982 13.9192C27.6058 13.9133 27.6133 13.9073 27.6207 13.9012C27.6283 13.895 27.6358 13.8887 27.6432 13.8823C27.6508 13.8758 27.6583 13.8692 27.6657 13.8625C27.6734 13.8556 27.6809 13.8486 27.6882 13.8415C27.6959 13.8342 27.7034 13.8269 27.7108 13.8194C27.7184 13.8117 27.7259 13.8039 27.7333 13.796C27.7409 13.7878 27.7484 13.7795 27.7558 13.7711C27.7635 13.7624 27.771 13.7536 27.7783 13.7446C27.786 13.7353 27.7935 13.7259 27.8009 13.7163C27.8085 13.7063 27.8161 13.6963 27.8234 13.686C27.8311 13.6751 27.8386 13.6641 27.8459 13.6529C27.8536 13.6411 27.8612 13.6291 27.8684 13.617C27.8762 13.6039 27.8837 13.5907 27.8909 13.5773C27.8988 13.5627 27.9063 13.5479 27.9135 13.533C27.9214 13.5162 27.9289 13.4992 27.936 13.4819C27.9441 13.4622 27.9516 13.4421 27.9585 13.4217C27.967 13.3965 27.9745 13.3709 27.981 13.3447C27.9906 13.3066 27.9982 13.2674 28.0036 13.2273C28.0101 13.1786 28.0135 13.1285 28.0135 13.0771C28.0135 13.027 28.0101 12.9784 28.0036 12.9311C27.9982 12.8923 27.9906 12.8545 27.981 12.8177C27.9745 12.7925 27.967 12.7679 27.9585 12.7438C27.9516 12.724 27.9441 12.7044 27.936 12.6853C27.9289 12.6687 27.9214 12.6523 27.9135 12.6363C27.9063 12.6218 27.8988 12.6075 27.8909 12.5934C27.8837 12.5805 27.8762 12.5677 27.8684 12.5551C27.8612 12.5434 27.8536 12.5318 27.8459 12.5204C27.8386 12.5097 27.8311 12.499 27.8234 12.4885C27.8161 12.4786 27.8086 12.4689 27.8009 12.4593C27.7935 12.4501 27.786 12.441 27.7783 12.432C27.771 12.4233 27.7635 12.4148 27.7558 12.4064C27.7484 12.3983 27.741 12.3903 27.7333 12.3824C27.7259 12.3748 27.7184 12.3673 27.7108 12.3598C27.7034 12.3526 27.6959 12.3455 27.6882 12.3385C27.6809 12.3317 27.6733 12.325 27.6657 12.3183C27.6583 12.3118 27.6508 12.3054 27.6432 12.2991C27.6358 12.293 27.6283 12.2869 27.6207 12.2809C27.6133 12.275 27.6058 12.2692 27.5982 12.2635C27.5907 12.2579 27.5832 12.2524 27.5757 12.2469C27.5682 12.2416 27.5607 12.2363 27.5531 12.2311C27.5457 12.226 27.5382 12.2209 27.5306 12.2159C27.5232 12.2111 27.5157 12.2062 27.5081 12.2015C27.5006 12.1968 27.4931 12.1922 27.4856 12.1876C27.4781 12.1832 27.4706 12.1787 27.463 12.1744C27.4556 12.1701 27.4481 12.1659 27.4405 12.1617C27.4331 12.1576 27.4256 12.1536 27.418 12.1496C27.4106 12.1457 27.403 12.1418 27.3955 12.138C27.388 12.1342 27.3805 12.1304 27.373 12.1268C27.3655 12.1231 27.358 12.1195 27.3504 12.116C27.343 12.1125 27.3355 12.1092 27.3279 12.1058C27.3205 12.1025 27.3129 12.0992 27.3054 12.096C27.2979 12.0928 27.2904 12.0897 27.2829 12.0866C27.2754 12.0835 27.2679 12.0804 27.2603 12.0775C27.2529 12.0745 27.2454 12.0716 27.2378 12.0688C27.2304 12.066 27.2228 12.0633 27.2153 12.0606C27.2078 12.0579 27.2003 12.0553 27.1928 12.0527C27.1853 12.0501 27.1778 12.0475 27.1703 12.045C27.1628 12.0426 27.1553 12.0402 27.1478 12.0378C27.1403 12.0354 27.1327 12.0332 27.1252 12.0309L27.1027 12.0243C27.0952 12.0221 27.0877 12.02 27.0802 12.0179C27.0727 12.0159 27.0652 12.0139 27.0577 12.012C27.0502 12.0101 27.0427 12.0082 27.0351 12.0063C27.0277 12.0045 27.0201 12.0027 27.0126 12.0009C27.0051 11.9991 26.9976 11.9974 26.9901 11.9958C26.9826 11.9941 26.9751 11.9925 26.9676 11.991C26.9601 11.9894 26.9526 11.9878 26.9451 11.9864L26.9225 11.982L26.9 11.978C26.8925 11.9767 26.885 11.9754 26.8775 11.9742L26.855 11.9707C26.8475 11.9695 26.84 11.9685 26.8324 11.9674L26.8099 11.9643L26.7874 11.9615L26.7649 11.959L26.7424 11.9566L26.7198 11.9545L26.6973 11.9526L26.6765 11.951L26.6765 11.924L26.6973 11.9208L26.7198 11.9171C26.7274 11.9158 26.7349 11.9145 26.7424 11.9131L26.7649 11.9088C26.7724 11.9073 26.7799 11.9058 26.7874 11.9042L26.8099 11.8993C26.8175 11.8976 26.825 11.8958 26.8324 11.8941C26.84 11.8922 26.8475 11.8903 26.855 11.8884C26.8625 11.8865 26.87 11.8845 26.8775 11.8825C26.885 11.8804 26.8925 11.8783 26.9 11.8762C26.9076 11.874 26.9151 11.8718 26.9225 11.8696C26.9301 11.8673 26.9376 11.8649 26.9451 11.8625C26.9526 11.8601 26.9601 11.8576 26.9676 11.8551C26.9751 11.8525 26.9826 11.8499 26.9901 11.8473C26.9977 11.8446 27.0052 11.8418 27.0126 11.839C27.0202 11.8362 27.0277 11.8333 27.0351 11.8304C27.0427 11.8274 27.0502 11.8244 27.0577 11.8213C27.0652 11.8182 27.0727 11.815 27.0802 11.8118C27.0878 11.8084 27.0952 11.8051 27.1027 11.8017C27.1103 11.7982 27.1178 11.7947 27.1252 11.7911C27.1328 11.7874 27.1403 11.7837 27.1478 11.78C27.1553 11.7762 27.1628 11.7723 27.1703 11.7683C27.1778 11.7643 27.1854 11.7602 27.1928 11.7561C27.2004 11.7519 27.2079 11.7476 27.2153 11.7433C27.2229 11.7389 27.2304 11.7344 27.2378 11.7298C27.2454 11.7252 27.2529 11.7205 27.2603 11.7157C27.2679 11.7108 27.2754 11.7058 27.2829 11.7008C27.2905 11.6957 27.298 11.6905 27.3054 11.6852C27.313 11.6798 27.3205 11.6743 27.3279 11.6688C27.3355 11.6631 27.343 11.6573 27.3504 11.6515C27.358 11.6455 27.3656 11.6394 27.373 11.6332C27.3806 11.6269 27.3881 11.6205 27.3955 11.614C27.4031 11.6072 27.4106 11.6004 27.418 11.5935C27.4256 11.5864 27.4332 11.5792 27.4405 11.5719C27.4482 11.5644 27.4557 11.5568 27.463 11.5491C27.4707 11.541 27.4782 11.5329 27.4856 11.5246C27.4932 11.516 27.5007 11.5073 27.5081 11.4985C27.5158 11.4893 27.5233 11.48 27.5306 11.4706C27.5383 11.4606 27.5458 11.4505 27.5531 11.4403C27.5609 11.4295 27.5684 11.4186 27.5757 11.4075C27.5834 11.3957 27.5909 11.3838 27.5982 11.3718C27.606 11.3587 27.6135 11.3454 27.6207 11.3321C27.6286 11.3173 27.6361 11.3024 27.6432 11.2874C27.6512 11.2704 27.6587 11.2532 27.6657 11.2359C27.6739 11.2156 27.6814 11.1951 27.6882 11.1743C27.6968 11.1482 27.7044 11.1217 27.7108 11.0948C27.7212 11.0512 27.7287 11.0067 27.7333 10.9614C27.737 10.9257 27.7389 10.8895 27.7389 10.8529C27.7389 10.8143 27.7369 10.7766 27.7333 10.7399C27.7287 10.693 27.7211 10.6477 27.7108 10.6039C27.7043 10.5766 27.6968 10.5499 27.6882 10.5238C27.6814 10.503 27.6739 10.4825 27.6657 10.4625C27.6587 10.4452 27.6512 10.4282 27.6432 10.4116C27.6361 10.3967 27.6286 10.3821 27.6207 10.3677C27.6135 10.3546 27.606 10.3416 27.5982 10.3289C27.5909 10.317 27.5834 10.3053 27.5757 10.2938C27.5684 10.2831 27.5609 10.2725 27.5531 10.262C27.5458 10.2521 27.5383 10.2423 27.5306 10.2327C27.5233 10.2235 27.5158 10.2145 27.5081 10.2055C27.5007 10.197 27.4932 10.1887 27.4856 10.1804C27.4782 10.1725 27.4707 10.1646 27.463 10.1569C27.4557 10.1494 27.4482 10.142 27.4405 10.1348C27.4331 10.1278 27.4256 10.1208 27.418 10.114C27.4106 10.1073 27.4031 10.1008 27.3955 10.0943C27.3881 10.088 27.3806 10.0819 27.373 10.0757C27.3655 10.0698 27.358 10.0639 27.3504 10.0582C27.343 10.0525 27.3355 10.047 27.3279 10.0415C27.3205 10.0362 27.313 10.0309 27.3054 10.0257C27.298 10.0206 27.2905 10.0156 27.2829 10.0107C27.2754 10.0058 27.2679 10.001 27.2603 9.99632C27.2529 9.99171 27.2454 9.98718 27.2378 9.9827C27.2304 9.97829 27.2229 9.97396 27.2153 9.96969C27.2079 9.96549 27.2004 9.96134 27.1928 9.95727C27.1853 9.95326 27.1778 9.94934 27.1703 9.94544C27.1628 9.94161 27.1553 9.93784 27.1478 9.93413C27.1403 9.93047 27.1328 9.92683 27.1252 9.9233C27.1178 9.91981 27.1102 9.91636 27.1027 9.913C27.0952 9.90968 27.0877 9.90646 27.0802 9.90323C27.0727 9.90006 27.0652 9.89694 27.0577 9.89386C27.0502 9.89084 27.0427 9.88785 27.0351 9.88492C27.0277 9.88203 27.0202 9.87916 27.0126 9.87636C27.0051 9.87359 26.9977 9.87089 26.9901 9.86822C26.9826 9.86559 26.9751 9.86303 26.9676 9.86049C26.9601 9.85799 26.9526 9.85554 26.9451 9.85313C26.9376 9.85075 26.9301 9.84839 26.9225 9.8461C26.915 9.84382 26.9076 9.84154 26.9 9.83936C26.8925 9.83721 26.885 9.83514 26.8775 9.83309C26.87 9.83103 26.8625 9.82906 26.855 9.8271L26.8324 9.82136C26.825 9.81952 26.8175 9.81771 26.8099 9.81595C26.8024 9.81422 26.7949 9.81254 26.7874 9.81089L26.7649 9.8061C26.7574 9.80455 26.7499 9.80298 26.7424 9.80152C26.7349 9.80007 26.7274 9.79872 26.7198 9.79734L26.6973 9.79338C26.6898 9.79212 26.6823 9.79083 26.6748 9.78963L26.6523 9.78622L26.6297 9.78304L26.6072 9.78006L26.5847 9.77739L26.5622 9.77496L26.5397 9.7727L26.5171 9.77072L26.4946 9.76899L26.4721 9.76738L26.4496 9.7661L26.4406 9.76559L26.427 9.76475L26.4045 9.76343L26.382 9.76218L26.3595 9.761L26.337 9.75992L26.3145 9.75895L26.2919 9.75812L26.2694 9.75743L26.2469 9.75693L26.2244 9.75663L26.2119 9.75659H26.2018H26.1793H26.1568H26.1343H26.1118H26.0892H26.0667H26.0442H26.0217H25.9991H25.9766H25.9541H25.9316H25.9091H25.8865H25.864H25.8415H25.819H25.7964H25.7739H25.7514H25.7289H25.7064H25.6838H25.6613H25.6388H25.6163H25.5938H25.5712H25.5487H25.5262H25.5037H25.4812H25.4586H25.4361H25.4136H25.3911H25.3685H25.346H25.3235H25.301H25.2785H25.2559H25.2334H25.2109H25.1884H25.1659H25.1433H25.1208H25.0983H25.0758H25.0532H25.0307H25.0082H24.9857H24.9632H24.9406H24.9181H24.8956H24.8731H24.8506H24.828H24.8055H24.783H24.7605H24.7379H24.7154H24.6929H24.6704H24.6479H24.6253H24.6028H24.5803H24.5578H24.5353H24.5127H24.4902H24.4677H24.4452H24.4226H24.4001H24.3776H24.3551H24.3326H24.31H24.2875H24.265H24.2425H24.2199H24.1974H24.1749H24.1524H24.1299H24.1073H24.0848H24.0623H24.0398H24.0173H23.9947H23.9722H23.9497H23.9272H23.9047H23.8821H23.8596H23.8371H23.8146H23.792H23.7695H23.747H23.7245H23.702H23.6794H23.6569H23.6344H23.6119H23.5893H23.5668H23.5443H23.5218H23.4993H23.4767H23.4542H23.4317H23.4092H23.3867H23.3641H23.3416H23.3191H23.2966H23.2741H23.2515H23.229H23.2065H23.184H23.1614H23.1389H23.1164H23.0939H23.0714H23.0488H23.0263H23.0038H22.9813H22.9587H22.9102V7.33353C22.9102 7.17051 22.9269 7.01144 22.9587 6.85786C22.9656 6.82497 22.9731 6.79236 22.9813 6.76001C22.9883 6.73233 22.9958 6.70485 23.0038 6.67758C23.0109 6.65322 23.0184 6.62903 23.0263 6.60501C23.0335 6.58305 23.041 6.56122 23.0488 6.53956C23.0561 6.51948 23.0636 6.49951 23.0714 6.47968C23.0787 6.46117 23.0861 6.44274 23.0939 6.42447C23.1012 6.40722 23.1087 6.39005 23.1164 6.37301C23.1237 6.35682 23.1313 6.34075 23.1389 6.32477C23.1462 6.30952 23.1538 6.29438 23.1614 6.27932C23.1688 6.26483 23.1763 6.25046 23.184 6.23615C23.1913 6.22235 23.1988 6.20865 23.2065 6.19502C23.2139 6.18181 23.2214 6.1687 23.229 6.15566C23.2364 6.143 23.2439 6.1304 23.2515 6.11791C23.2589 6.1058 23.2664 6.09378 23.2741 6.08181C23.2814 6.07022 23.289 6.05874 23.2966 6.0473C23.304 6.0361 23.3115 6.02494 23.3191 6.01387C23.3265 6.00302 23.334 5.99218 23.3416 5.98146C23.349 5.97109 23.3566 5.96084 23.3641 5.95059C23.3715 5.94051 23.3791 5.93051 23.3867 5.92056C23.3941 5.91076 23.4016 5.90092 23.4092 5.89125C23.4166 5.88184 23.4242 5.87259 23.4317 5.86329C23.4391 5.85412 23.4466 5.84503 23.4542 5.836C23.4617 5.82708 23.4692 5.81815 23.4767 5.80934C23.4842 5.80076 23.4917 5.79232 23.4993 5.78385C23.5067 5.77545 23.5142 5.76703 23.5218 5.75874C23.5292 5.75062 23.5368 5.74258 23.5443 5.73455C23.5518 5.72663 23.5593 5.71878 23.5668 5.71096C23.5743 5.70325 23.5818 5.69554 23.5893 5.68792C23.5968 5.68044 23.6043 5.67306 23.6119 5.66569C23.6194 5.65835 23.6268 5.65094 23.6344 5.64372C23.6418 5.63665 23.6494 5.62974 23.6569 5.62276C23.6644 5.61581 23.6719 5.60885 23.6794 5.602C23.6869 5.59526 23.6944 5.58865 23.702 5.58203C23.7094 5.57544 23.7169 5.56885 23.7245 5.56235C23.732 5.55595 23.7395 5.54964 23.747 5.54333C23.7545 5.53708 23.762 5.53085 23.7695 5.52469C23.777 5.51858 23.7845 5.51255 23.792 5.50656L23.8146 5.48885L23.8371 5.4716C23.8446 5.46594 23.8521 5.46033 23.8596 5.45476C23.8671 5.44926 23.8746 5.44377 23.8821 5.43834L23.9047 5.42234C23.9121 5.41709 23.9196 5.41189 23.9272 5.40673L23.9497 5.39148L23.9722 5.37664C23.9797 5.37177 23.9872 5.36692 23.9947 5.36214L24.0173 5.34807C24.0248 5.34342 24.0322 5.33877 24.0398 5.33422C24.0472 5.3297 24.0548 5.32531 24.0623 5.32089C24.0698 5.31647 24.0773 5.312 24.0848 5.30767C24.0923 5.3034 24.0998 5.29927 24.1073 5.29507C24.1149 5.29087 24.1223 5.2866 24.1299 5.28249C24.1373 5.27844 24.1449 5.27452 24.1524 5.27055C24.1599 5.26657 24.1674 5.26258 24.1749 5.25868C24.1824 5.25481 24.1899 5.25106 24.1974 5.24729C24.2049 5.24354 24.2124 5.23977 24.2199 5.23609L24.2425 5.22521C24.25 5.22164 24.2575 5.21817 24.265 5.21468C24.2725 5.21121 24.28 5.20768 24.2875 5.20428C24.295 5.20092 24.3025 5.19771 24.31 5.19443C24.3175 5.19114 24.325 5.1878 24.3326 5.18459C24.34 5.18142 24.3476 5.17839 24.3551 5.17529C24.3626 5.17221 24.3701 5.1691 24.3776 5.16609L24.4001 5.15722L24.4226 5.14866C24.4302 5.14582 24.4376 5.14295 24.4452 5.1402C24.4526 5.13748 24.4602 5.13492 24.4677 5.13227C24.4752 5.12962 24.4827 5.12691 24.4902 5.12434C24.4977 5.12178 24.5052 5.11937 24.5127 5.11689L24.5353 5.10959C24.5428 5.1072 24.5502 5.10479 24.5578 5.10248C24.5652 5.10018 24.5728 5.09802 24.5803 5.09579C24.5878 5.09355 24.5953 5.09124 24.6028 5.08909C24.6103 5.08697 24.6178 5.08499 24.6253 5.08293C24.6328 5.08088 24.6403 5.07881 24.6479 5.07683L24.6704 5.07101C24.6779 5.06912 24.6854 5.06733 24.6929 5.06552C24.7004 5.06371 24.7079 5.06177 24.7154 5.06003C24.7229 5.05831 24.7304 5.05675 24.7379 5.05508L24.7605 5.05017L24.783 5.04553C24.7905 5.04403 24.798 5.04263 24.8055 5.04121C24.813 5.03978 24.8205 5.03825 24.828 5.03688C24.8355 5.03552 24.8431 5.03436 24.8506 5.0331L24.8731 5.02936C24.8806 5.02817 24.8881 5.02694 24.8956 5.02582C24.9031 5.0247 24.9106 5.02371 24.9181 5.02266C24.9256 5.02162 24.9331 5.02048 24.9406 5.01951C24.9481 5.01854 24.9557 5.01768 24.9632 5.01678L24.9857 5.01421C24.9932 5.01338 25.0007 5.01247 25.0082 5.01172C25.0157 5.01098 25.0232 5.0104 25.0307 5.00973L25.0532 5.00773L25.0758 5.00603C25.0833 5.00549 25.0908 5.00506 25.0983 5.00459C25.1058 5.00414 25.1133 5.00357 25.1208 5.00317C25.1283 5.00278 25.1358 5.00256 25.1433 5.00224L25.1659 5.0014C25.1734 5.00116 25.1809 5.00084 25.1884 5.00067C25.1959 5.0005 25.2034 5.00049 25.2109 5.00037C25.2184 5.00026 25.2259 5.00013 25.2334 5.00009L25.2391 5.00002H25.2559H25.2785H25.301H25.3235H25.346H25.3685H25.3911H25.4136H25.4361H25.4586H25.4812H25.5037H25.5262H25.5487H25.5712H25.5938H25.6163H25.6388H25.6613H25.6838H25.7064H25.7289H25.7514H25.7739H25.7964H25.819H25.8415H25.864H25.8865H25.9091H25.9316H25.9541H25.9766H25.9991H26.0217H26.0442H26.0667H26.0892H26.1118H26.1343H26.1568H26.1793H26.2018H26.2244H26.2469H26.2694H26.2919H26.3145H26.337H26.3595H26.382H26.4045H26.427H26.4496H26.4721H26.4946H26.5171H26.5397H26.5622H26.5847H26.6072H26.6297H26.6523H26.6748H26.6973H26.7198H26.7424H26.7649H26.7874H26.8099H26.8324H26.855H26.8775H26.9H26.9225H26.9451H26.9676H26.9901H27.0126H27.0351H27.0577H27.0802H27.1027H27.1252H27.1478H27.1703H27.1928H27.2153H27.2378H27.2603H27.2829H27.3054H27.3279H27.3504H27.373H27.3955H27.418H27.4405H27.463H27.4856H27.5081H27.5306H27.5531H27.5757H27.5982H27.6207H27.6432H27.6657H27.6882H27.7108H27.7333H27.7558H27.7783H27.8009H27.8234H27.8459H27.8684H27.8909H27.9135H27.936H27.9585H27.981H28.0036H28.0261H28.0486H28.0711H28.0936H28.1162H28.1387H28.1612H28.1837H28.2063H28.2288H28.2513H28.2738H28.2963H28.3189H28.3414H28.3639H28.3864H28.4089H28.4315H28.454H28.4765H28.499H28.5216H28.5441H28.5666H28.5891H28.6116H28.6342H28.6567V5Z" fill="#54B230"/>
<path fill-rule="evenodd" clip-rule="evenodd" d="M10 13.0961V7.33351C10 7.17096 10.0166 7.0123 10.0483 6.85913C10.0551 6.82624 10.0626 6.79365 10.0708 6.76128C10.0778 6.73356 10.0853 6.70606 10.0933 6.67876C10.1004 6.65442 10.1079 6.63026 10.1157 6.60626C10.1229 6.58429 10.1304 6.56241 10.1382 6.54072C10.1455 6.52065 10.1529 6.5007 10.1607 6.4809C10.168 6.46238 10.1755 6.44392 10.1832 6.42562C10.1905 6.40838 10.198 6.39124 10.2057 6.37422C10.213 6.35803 10.2205 6.34198 10.2281 6.326C10.2355 6.31073 10.243 6.29558 10.2506 6.2805C10.258 6.26601 10.2655 6.25164 10.2731 6.23734C10.2805 6.22355 10.288 6.20984 10.2956 6.19622C10.303 6.18302 10.3104 6.1699 10.3181 6.15687C10.3255 6.14421 10.3329 6.1316 10.3405 6.11909C10.3479 6.10699 10.3554 6.09499 10.363 6.08305C10.3704 6.07147 10.378 6.05997 10.3855 6.04853C10.3929 6.03733 10.4004 6.02617 10.408 6.0151C10.4155 6.00424 10.4228 5.99339 10.4305 5.98266C10.4379 5.9723 10.4454 5.96207 10.453 5.95182C10.4604 5.94174 10.4679 5.93174 10.4754 5.92179C10.4829 5.91201 10.4903 5.90215 10.4979 5.89248C10.5053 5.88309 10.5129 5.87385 10.5204 5.86458C10.5278 5.85541 10.5353 5.84628 10.5429 5.83723C10.5503 5.82833 10.5578 5.81944 10.5654 5.81065C10.5728 5.80205 10.5803 5.79359 10.5879 5.7851C10.5953 5.77668 10.6027 5.76828 10.6103 5.75999C10.6177 5.75187 10.6253 5.74386 10.6328 5.73586C10.6402 5.72792 10.6477 5.72006 10.6553 5.71224C10.6627 5.70453 10.6702 5.69683 10.6778 5.68921C10.6852 5.68172 10.6927 5.67435 10.7003 5.66698C10.7077 5.65964 10.7152 5.65225 10.7227 5.64503C10.7301 5.63795 10.7377 5.63105 10.7452 5.62406C10.7527 5.6171 10.7601 5.61012 10.7677 5.60327C10.7751 5.59655 10.7827 5.58996 10.7902 5.58333C10.7977 5.57675 10.8051 5.57014 10.8127 5.56364C10.8201 5.55724 10.8276 5.55095 10.8351 5.54464C10.8426 5.53839 10.8501 5.53213 10.8576 5.52597C10.8651 5.51989 10.8726 5.51386 10.8801 5.50785C10.8876 5.50189 10.895 5.496 10.9026 5.49013C10.91 5.48433 10.9176 5.4786 10.9251 5.47289C10.9325 5.46723 10.94 5.46159 10.9476 5.45603L10.97 5.43964C10.9775 5.43425 10.985 5.42889 10.9925 5.42359C11 5.41834 11.0075 5.41316 11.015 5.408C11.0225 5.40287 11.0299 5.39778 11.0375 5.39274C11.0449 5.38775 11.0524 5.38284 11.06 5.37793C11.0674 5.37306 11.0749 5.36815 11.0824 5.36335C11.0899 5.35861 11.0974 5.35398 11.1049 5.34932C11.1124 5.34467 11.1199 5.33997 11.1274 5.33541C11.1348 5.33091 11.1424 5.32655 11.1499 5.32212C11.1574 5.3177 11.1648 5.3132 11.1724 5.30885C11.1798 5.30458 11.1874 5.30049 11.1948 5.29629C11.2023 5.29209 11.2098 5.28783 11.2173 5.28371C11.2248 5.27964 11.2323 5.27572 11.2398 5.27174C11.2473 5.26777 11.2548 5.26377 11.2623 5.25987C11.2697 5.25601 11.2773 5.25222 11.2848 5.24843L11.3072 5.23727C11.3147 5.23359 11.3222 5.22991 11.3297 5.22633C11.3372 5.22276 11.3447 5.21931 11.3522 5.21582C11.3597 5.21233 11.3671 5.20876 11.3747 5.20536C11.3821 5.20199 11.3897 5.19881 11.3972 5.19553C11.4047 5.19224 11.4121 5.1889 11.4197 5.18569C11.4271 5.18252 11.4346 5.17946 11.4421 5.17636L11.4646 5.16717L11.4871 5.15825L11.5096 5.1497C11.5171 5.14687 11.5245 5.14393 11.5321 5.14117C11.5395 5.13845 11.5471 5.13591 11.5546 5.13326C11.562 5.13061 11.5695 5.12792 11.577 5.12534L11.5995 5.11782L11.622 5.11052C11.6295 5.10813 11.6369 5.10569 11.6445 5.10337C11.6519 5.10108 11.6595 5.09889 11.6669 5.09667C11.6744 5.09443 11.6819 5.09215 11.6894 5.08999C11.6969 5.08784 11.7044 5.08585 11.7119 5.08377L11.7344 5.07767C11.7419 5.07569 11.7494 5.07368 11.7569 5.07177C11.7643 5.06987 11.7719 5.06813 11.7794 5.0663C11.7868 5.06447 11.7943 5.06257 11.8018 5.06081C11.8093 5.05908 11.8168 5.05745 11.8243 5.05579L11.8468 5.0509C11.8543 5.0493 11.8618 5.04767 11.8693 5.04616C11.8768 5.04467 11.8843 5.04329 11.8918 5.04185C11.8993 5.04041 11.9067 5.03892 11.9143 5.03756C11.9217 5.03619 11.9292 5.03496 11.9367 5.03367L11.9592 5.02994C11.9667 5.02875 11.9742 5.02746 11.9817 5.02632C11.9892 5.02518 11.9967 5.02423 12.0042 5.02316C12.0117 5.02212 12.0191 5.021 12.0267 5.02001L12.0491 5.01719L12.0716 5.01463C12.0791 5.01379 12.0866 5.01282 12.0941 5.01206C12.1016 5.01129 12.1091 5.01073 12.1166 5.01004L12.1391 5.00806C12.1466 5.00743 12.154 5.00681 12.1615 5.00627C12.169 5.00573 12.1765 5.0053 12.184 5.00483C12.1915 5.00437 12.199 5.00383 12.2065 5.00342C12.214 5.00301 12.2215 5.00273 12.229 5.00239L12.2515 5.00153C12.259 5.00127 12.2664 5.00088 12.274 5.00069C12.2814 5.0005 12.2889 5.00052 12.2964 5.00041C12.3039 5.0003 12.3114 5.00017 12.3189 5.00013L12.3414 5H12.3639H12.3864H12.4088H12.4313H12.4538H12.4763H12.4988H12.5212H12.5437H12.5662H12.5887H12.6112H12.6336H12.6561H12.6786H12.7011H12.7236H12.7461H12.7685H12.791H12.8135H12.836H12.8585H12.881H12.9034H12.9259H12.9484H12.9709H12.9934H13.0158H13.0383H13.0608H13.0833H13.1058H13.1282H13.1507H13.1732H13.1957H13.2182H13.2407H13.2631H13.2856H13.3081H13.3306H13.3531H13.3755H13.398H13.4205H13.443H13.4655H13.4879H13.5104H13.5329H13.5554H13.5779H13.6003H13.6228H13.6453H13.6678H13.6903H13.7128H13.7352H13.7577H13.7802H13.8027H13.8252H13.8477H13.8701H13.8926H13.9151H13.9376H13.9601H13.9825H14.005H14.0275H14.05H14.0725H14.0949H14.1174H14.1399H14.1624H14.1849H14.2074H14.2298H14.2523H14.2748H14.2973H14.3198H14.3422H14.3647H14.3872H14.4097H14.4322H14.4546H14.4771H14.4996H14.5221H14.5446H14.5671H14.5895H14.612H14.6345H14.657H14.6795H14.702H14.7244H14.7469H14.7694H14.7919H14.8144H14.8368H14.8593H14.8818H14.9043H14.9268H14.9492H14.9717H14.9942H15.0167H15.0392H15.0616H15.0841H15.1066H15.1291H15.1516H15.1741H15.1965H15.219H15.2415H15.264H15.2865H15.3089H15.3314H15.3539H15.3764H15.3989H15.4213H15.4438H15.4663H15.4888H15.5113H15.5338H15.5562H15.5787H15.6012H15.6237H15.6462H15.6686H15.6911H15.7136H15.7361H15.7552V16.6667C15.7552 16.7682 15.7487 16.8681 15.7361 16.9662C15.73 17.0134 15.7224 17.0602 15.7136 17.1065C15.7069 17.1417 15.6994 17.1766 15.6911 17.2112C15.6841 17.2404 15.6767 17.2694 15.6686 17.2981C15.6616 17.3233 15.654 17.3484 15.6462 17.3732C15.639 17.3957 15.6315 17.4181 15.6237 17.4403C15.6165 17.4608 15.609 17.4813 15.6012 17.5016C15.5939 17.5205 15.5864 17.5393 15.5787 17.558C15.5714 17.5756 15.5639 17.5932 15.5562 17.6105C15.5489 17.627 15.5414 17.6434 15.5338 17.6597C15.5264 17.6753 15.5189 17.6907 15.5113 17.7061C15.5039 17.7208 15.4964 17.7355 15.4888 17.75C15.4814 17.7641 15.4739 17.778 15.4663 17.7919C15.4589 17.8053 15.4515 17.8186 15.4438 17.8318C15.4365 17.8446 15.429 17.8573 15.4213 17.8699C15.414 17.8821 15.4065 17.8942 15.3989 17.9063C15.3915 17.918 15.384 17.9297 15.3764 17.9414C15.3689 17.9527 15.3615 17.9641 15.3539 17.9753C15.3465 17.9862 15.339 17.997 15.3314 18.0077C15.324 18.0183 15.3165 18.0287 15.3089 18.0391C15.3015 18.0493 15.294 18.0595 15.2865 18.0695C15.2791 18.0794 15.2716 18.0892 15.264 18.0989C15.2566 18.1084 15.249 18.1178 15.2415 18.1272C15.234 18.1365 15.2266 18.1457 15.219 18.1549C15.2116 18.1638 15.2041 18.1727 15.1965 18.1815C15.1891 18.1902 15.1816 18.1988 15.1741 18.2074C15.1666 18.2159 15.1592 18.2244 15.1516 18.2327C15.1442 18.2409 15.1366 18.249 15.1291 18.257C15.1216 18.265 15.1142 18.2731 15.1066 18.281C15.0992 18.2887 15.0917 18.2963 15.0841 18.304C15.0767 18.3116 15.0692 18.3191 15.0616 18.3265C15.0542 18.3339 15.0467 18.3412 15.0392 18.3485C15.0317 18.3556 15.0242 18.3627 15.0167 18.3698C15.0092 18.3768 15.0018 18.3838 14.9942 18.3907C14.9868 18.3975 14.9792 18.4041 14.9717 18.4108C14.9642 18.4174 14.9568 18.4242 14.9492 18.4307C14.9418 18.4371 14.9343 18.4434 14.9268 18.4497C14.9193 18.4561 14.9118 18.4625 14.9043 18.4687C14.8968 18.4748 14.8893 18.4808 14.8818 18.4868C14.8743 18.4928 14.8669 18.4989 14.8593 18.5048C14.8519 18.5106 14.8443 18.5163 14.8368 18.522C14.8293 18.5277 14.8219 18.5335 14.8144 18.5391C14.8069 18.5447 14.7994 18.5501 14.7919 18.5555C14.7844 18.561 14.777 18.5664 14.7694 18.5718C14.762 18.5771 14.7544 18.5822 14.7469 18.5874C14.7394 18.5926 14.732 18.5978 14.7244 18.6029C14.717 18.6079 14.7095 18.6128 14.702 18.6177C14.6944 18.6226 14.687 18.6277 14.6795 18.6325C14.672 18.6373 14.6645 18.6419 14.657 18.6465C14.6495 18.6512 14.6421 18.656 14.6345 18.6606C14.627 18.6651 14.6195 18.6695 14.612 18.674C14.6045 18.6784 14.5971 18.6829 14.5895 18.6872C14.5821 18.6916 14.5746 18.6958 14.5671 18.7C14.5596 18.7042 14.5521 18.7085 14.5446 18.7126C14.5371 18.7167 14.5296 18.7208 14.5221 18.7248L14.4996 18.7366C14.4921 18.7405 14.4847 18.7444 14.4771 18.7483C14.4697 18.7521 14.4622 18.7557 14.4546 18.7594C14.4472 18.7631 14.4397 18.767 14.4322 18.7706C14.4247 18.7742 14.4172 18.7776 14.4097 18.7811C14.4022 18.7846 14.3947 18.7882 14.3872 18.7916C14.3798 18.795 14.3722 18.7982 14.3647 18.8016L14.3422 18.8114L14.3198 18.8209C14.3123 18.8241 14.3048 18.8271 14.2973 18.8301C14.2898 18.8332 14.2823 18.8363 14.2748 18.8392C14.2673 18.8422 14.2598 18.8449 14.2523 18.8478C14.2448 18.8506 14.2374 18.8535 14.2298 18.8563C14.2224 18.8591 14.2149 18.8617 14.2074 18.8644L14.1849 18.8723L14.1624 18.88C14.1549 18.8825 14.1474 18.8849 14.1399 18.8873C14.1324 18.8897 14.125 18.8923 14.1174 18.8946C14.11 18.8969 14.1024 18.8991 14.0949 18.9013L14.0725 18.908L14.05 18.9144C14.0425 18.9165 14.035 18.9185 14.0275 18.9205C14.02 18.9225 14.0125 18.9247 14.005 18.9266C13.9976 18.9285 13.99 18.9302 13.9825 18.9321C13.9751 18.9339 13.9676 18.9358 13.9601 18.9376L13.9376 18.9427L13.9151 18.9476C13.9076 18.9493 13.9001 18.951 13.8926 18.9526C13.8851 18.9541 13.8776 18.9554 13.8701 18.9568C13.8626 18.9583 13.8552 18.9598 13.8477 18.9612L13.8252 18.9652C13.8177 18.9665 13.8102 18.9677 13.8027 18.9689C13.7952 18.9702 13.7877 18.9715 13.7802 18.9727C13.7728 18.9738 13.7652 18.9748 13.7577 18.9759L13.7352 18.979C13.7278 18.98 13.7203 18.9811 13.7128 18.982C13.7053 18.9829 13.6978 18.9837 13.6903 18.9846C13.6828 18.9854 13.6753 18.9864 13.6678 18.9871C13.6603 18.9879 13.6528 18.9886 13.6453 18.9893L13.6228 18.9913C13.6153 18.9919 13.6079 18.9927 13.6003 18.9933C13.5929 18.9938 13.5854 18.9942 13.5779 18.9947L13.5554 18.9961L13.5329 18.9973C13.5254 18.9977 13.5179 18.9979 13.5104 18.9982C13.5029 18.9985 13.4954 18.9988 13.4879 18.999C13.4805 18.9992 13.473 18.9993 13.4655 18.9995L13.443 18.9997C13.4361 18.9998 13.4291 19 13.4221 19H13.398H13.3755H13.3531H13.3306H13.3081H13.2856H13.2631H13.2407H13.2182H13.1957H13.1732H13.1507H13.1282H13.1058H13.0833H13.0608H13.0383H13.0158H12.9934H12.9709H12.9484H12.9259H12.9034H12.881H12.8585H12.836H12.8135H12.791H12.7685H12.7461H12.7236H12.7011H12.6786H12.6561H12.6336H12.6112H12.5887H12.5662H12.5437H12.5212H12.4988H12.4763H12.4538H12.4313H12.4088H12.3864H12.3639H12.3414H12.3189H12.2964H12.274H12.2515H12.229H12.2065H12.184H12.1615H12.1391H12.1166H12.0941H12.0716H12.0491H12.0267H12.0042H11.9817H11.9592H11.9367H11.9143H11.8918H11.8693H11.8468H11.8243H11.8018H11.7794H11.7569H11.7344H11.7119H11.6894H11.6669H11.6445H11.622H11.5995H11.577H11.5546H11.5321H11.5096H11.4871H11.4646H11.4421H11.4197H11.3972H11.3747H11.3522H11.3297H11.3072H11.2848H11.2623H11.2398H11.2173H11.1948H11.1724H11.1499H11.1274H11.1049H11.0824H11.06H11.0375H11.015H10.9925H10.97H10.9476H10.9251H10.9026H10.8801H10.8576H10.8351H10.8127H10.7902H10.7677H10.7452H10.7227H10.7003H10.6778H10.6553H10.6328H10.6103H10.5879H10.5654H10.5429H10.5204H10.4979H10.4754H10.453H10.4305H10.408H10.3855H10.363H10.3405H10.3181H10.2956H10.2731H10.2506H10.2281H10.2057H10.1832H10.1607H10.1382H10.1157H10.0933H10.0708H10.0483H10V14.0826C10 14.0826 10.0166 14.0872 10.0483 14.0952L10.0708 14.1008L10.0933 14.1063L10.1157 14.1117L10.1382 14.117L10.1607 14.1222L10.1832 14.1274L10.2057 14.1325L10.2281 14.1375L10.2506 14.1424L10.2731 14.1473L10.2956 14.1521L10.3181 14.1568L10.3405 14.1615L10.363 14.1661L10.3855 14.1706L10.408 14.1751L10.4305 14.1796L10.453 14.1839L10.4754 14.1883L10.4979 14.1926L10.5204 14.1968L10.5429 14.2009L10.5654 14.205L10.5879 14.2091L10.6103 14.2131L10.6328 14.217L10.6553 14.2209L10.6778 14.2248L10.7003 14.2285L10.7227 14.2323L10.7452 14.236L10.7677 14.2396L10.7902 14.2432L10.8127 14.2467L10.8351 14.2502L10.8576 14.2537L10.8801 14.2571L10.9026 14.2604L10.9251 14.2637L10.9476 14.2669L10.97 14.2701L10.9925 14.2733L11.015 14.2764L11.0375 14.2794L11.06 14.2824L11.0824 14.2854L11.1049 14.2883L11.1274 14.2911L11.1499 14.2939L11.1724 14.2967L11.1948 14.2994L11.2173 14.302L11.2398 14.3047L11.2623 14.3072L11.2848 14.3097L11.3072 14.3122L11.3297 14.3146L11.3522 14.317L11.3747 14.3193L11.3972 14.3216L11.4197 14.3238L11.4421 14.326L11.4646 14.3281L11.4871 14.3302L11.5096 14.3323L11.5321 14.3342L11.5546 14.3361L11.577 14.338L11.5995 14.3399L11.622 14.3417L11.6445 14.3434L11.6669 14.3451L11.6894 14.3467L11.7119 14.3483L11.7344 14.3499L11.7569 14.3513L11.7794 14.3528L11.8018 14.3542L11.8243 14.3555L11.8468 14.3568L11.8693 14.358L11.8918 14.3592L11.9143 14.3604L11.9367 14.3615L11.9592 14.3625L11.9817 14.3635L12.0042 14.3644L12.0267 14.3654L12.0491 14.3661L12.0716 14.3669L12.0941 14.3677L12.1166 14.3683L12.1391 14.369L12.1615 14.3696L12.184 14.3701L12.2065 14.3706L12.229 14.371L12.2515 14.3713L12.274 14.3717L12.2964 14.3719L12.3189 14.3721L12.3414 14.3723L12.3639 14.3724L12.3864 14.3724L12.4088 14.3724L12.4313 14.3723L12.4538 14.3721L12.4763 14.372L12.4988 14.3719L12.5212 14.3715L12.5437 14.371L12.5662 14.3706L12.5887 14.3702L12.6112 14.3697L12.6336 14.369L12.6561 14.3683L12.6786 14.3676L12.7011 14.3668L12.7236 14.3658L12.7461 14.3648L12.7685 14.3638L12.791 14.3629L12.8135 14.3616L12.836 14.3603L12.8585 14.359L12.881 14.3577L12.9034 14.3562L12.9259 14.3546L12.9484 14.353L12.9709 14.3514L12.9934 14.3496L13.0158 14.3476L13.0383 14.3457L13.0608 14.3437L13.0833 14.3416L13.1058 14.3393L13.1282 14.337L13.1507 14.3347L13.1732 14.3322L13.1957 14.3296L13.2182 14.327L13.2407 14.3243L13.2631 14.3214L13.2856 14.3184L13.3081 14.3154L13.3306 14.3123C13.3382 14.3112 13.3455 14.31 13.3531 14.3089L13.3755 14.3056L13.398 14.3022L13.4205 14.2986C13.4281 14.2974 13.4355 14.2961 13.443 14.2948L13.4655 14.291C13.4729 14.2898 13.4806 14.2886 13.4879 14.2873C13.4955 14.2859 13.5029 14.2845 13.5104 14.2831L13.5329 14.2789L13.5554 14.2747L13.5779 14.2703C13.5854 14.2688 13.5928 14.2672 13.6003 14.2657L13.6228 14.261L13.6453 14.2563C13.6529 14.2547 13.6603 14.2529 13.6678 14.2513L13.6903 14.2462C13.6977 14.2445 13.7054 14.2429 13.7128 14.2411C13.7204 14.2393 13.7277 14.2375 13.7352 14.2356L13.7577 14.2301C13.7652 14.2282 13.7728 14.2265 13.7802 14.2246C13.7878 14.2227 13.7952 14.2206 13.8027 14.2187L13.8252 14.2127C13.8326 14.2106 13.8402 14.2087 13.8477 14.2066C13.8552 14.2046 13.8626 14.2024 13.8701 14.2003L13.8926 14.1938C13.9001 14.1916 13.9077 14.1894 13.9151 14.1872L13.9376 14.1803L13.9601 14.1733C13.9675 14.1709 13.9751 14.1686 13.9825 14.1662L14.005 14.1587L14.0275 14.1511C14.035 14.1486 14.0426 14.1461 14.05 14.1435C14.0576 14.1408 14.065 14.1381 14.0725 14.1353L14.0949 14.1272C14.1024 14.1244 14.11 14.1216 14.1174 14.1188C14.125 14.116 14.1324 14.113 14.1399 14.11C14.1474 14.1071 14.155 14.1042 14.1624 14.1012L14.1849 14.0921L14.2074 14.0826C14.2148 14.0795 14.2225 14.0764 14.2298 14.0732C14.2374 14.0699 14.2448 14.0665 14.2523 14.0631L14.2748 14.053L14.2973 14.0425C14.3048 14.039 14.3123 14.0353 14.3198 14.0317C14.3272 14.0281 14.3349 14.0245 14.3422 14.0208C14.3499 14.017 14.3572 14.0131 14.3647 14.0093C14.3722 14.0054 14.3798 14.0016 14.3872 13.9977C14.3948 13.9937 14.4022 13.9896 14.4097 13.9856C14.4172 13.9815 14.4247 13.9774 14.4322 13.9732C14.4397 13.969 14.4472 13.9647 14.4546 13.9605C14.4622 13.9561 14.4697 13.9517 14.4771 13.9473C14.4847 13.9428 14.4922 13.9383 14.4996 13.9338C14.5072 13.9292 14.5146 13.9245 14.5221 13.9198C14.5296 13.9151 14.5372 13.9103 14.5446 13.9055C14.5522 13.9006 14.5596 13.8955 14.5671 13.8905C14.5746 13.8855 14.5822 13.8805 14.5895 13.8754C14.5972 13.8701 14.6046 13.8647 14.612 13.8594C14.6195 13.854 14.6271 13.8486 14.6345 13.8432C14.6421 13.8376 14.6495 13.8319 14.657 13.8262C14.6645 13.8204 14.6721 13.8146 14.6795 13.8088C14.687 13.8028 14.6945 13.7967 14.702 13.7906C14.7095 13.7844 14.717 13.7781 14.7244 13.7718C14.732 13.7654 14.7395 13.759 14.7469 13.7525C14.7546 13.7458 14.7619 13.7389 14.7694 13.7321C14.7769 13.7252 14.7845 13.7183 14.7919 13.7113C14.7995 13.7041 14.8069 13.6967 14.8144 13.6894C14.822 13.6818 14.8294 13.6742 14.8368 13.6666C14.8444 13.6588 14.852 13.651 14.8593 13.6431C14.867 13.6348 14.8744 13.6265 14.8818 13.6181C14.8894 13.6095 14.8969 13.6008 14.9043 13.5921C14.9119 13.5831 14.9194 13.5741 14.9268 13.565C14.9344 13.5555 14.9419 13.5461 14.9492 13.5365C14.9569 13.5265 14.9643 13.5164 14.9717 13.5062C14.9794 13.4956 14.9869 13.485 14.9942 13.4743C15.0019 13.4631 15.0094 13.4519 15.0167 13.4405C15.0244 13.4287 15.0319 13.4167 15.0392 13.4046C15.0468 13.3919 15.0544 13.3791 15.0616 13.3662C15.0694 13.3525 15.0769 13.3388 15.0841 13.3249C15.0919 13.31 15.0994 13.2951 15.1066 13.28C15.1144 13.2638 15.1219 13.2474 15.1291 13.231C15.1369 13.2131 15.1444 13.1951 15.1516 13.177C15.1595 13.1569 15.167 13.1367 15.1741 13.1164C15.1821 13.0933 15.1895 13.0699 15.1965 13.0464C15.2047 13.0189 15.2122 12.9911 15.219 12.963C15.2275 12.9282 15.235 12.893 15.2415 12.8574C15.2511 12.8044 15.2586 12.7506 15.264 12.696C15.2715 12.62 15.2752 12.5425 15.2752 12.4639V9.75661H15.2415H15.219H15.1965H15.1741H15.1516H15.1291H15.1066H15.0841H15.0616H15.0392H15.0167H14.9942H14.9717H14.9492H14.9268H14.9043H14.8818H14.8593H14.8368H14.8144H14.7919H14.7694H14.7469H14.7244H14.702H14.6795H14.657H14.6345H14.612H14.5895H14.5671H14.5446H14.5221H14.4996H14.4771H14.4546H14.4322H14.4097H14.3872H14.3647H14.3422H14.3198H14.2973H14.2748H14.2523H14.2298H14.2074H14.1849H14.1624H14.1399H14.1174H14.0949H14.0725H14.05H14.0275H14.005H13.9825H13.9601H13.9376H13.9151H13.8926H13.8701H13.8477H13.8252H13.8027H13.7802H13.7577H13.7352H13.7128H13.6903H13.6678H13.6453H13.6228H13.6003H13.5779H13.5554H13.5329H13.5104H13.4879H13.4655H13.443H13.4205H13.398H13.3755H13.3531H13.3306H13.3081H13.2856L13.2686 12.4639C13.2686 12.5063 13.2667 12.548 13.2631 12.5889C13.2585 12.641 13.251 12.6917 13.2407 12.7411C13.2342 12.7716 13.2267 12.8016 13.2182 12.831C13.2113 12.8544 13.2039 12.8774 13.1957 12.9C13.1887 12.9193 13.1812 12.9383 13.1732 12.957C13.1661 12.9737 13.1586 12.9901 13.1507 13.0063C13.1435 13.0211 13.1361 13.0356 13.1282 13.05C13.121 13.0631 13.1135 13.076 13.1058 13.0889C13.0985 13.1009 13.091 13.1128 13.0833 13.1245C13.076 13.1355 13.0685 13.1463 13.0608 13.157C13.0535 13.1671 13.046 13.1772 13.0383 13.1871C13.031 13.1966 13.0235 13.2058 13.0158 13.2149C13.0085 13.2237 13.001 13.2323 12.9934 13.2408C12.986 13.249 12.9785 13.2572 12.9709 13.2651C12.9635 13.2728 12.956 13.2804 12.9484 13.2879C12.941 13.2951 12.9335 13.3023 12.9259 13.3093C12.9185 13.3161 12.911 13.3228 12.9034 13.3294C12.8961 13.3358 12.8886 13.3421 12.881 13.3483C12.8736 13.3544 12.866 13.3603 12.8585 13.3662C12.8511 13.3719 12.8436 13.3776 12.836 13.3831C12.8286 13.3886 12.8211 13.3939 12.8135 13.3991C12.8061 13.4043 12.7986 13.4093 12.791 13.4143C12.7836 13.4191 12.7761 13.4239 12.7685 13.4286C12.7611 13.4332 12.7536 13.4377 12.7461 13.4422C12.7386 13.4465 12.7311 13.4508 12.7236 13.455C12.7162 13.4591 12.7087 13.4631 12.7011 13.4671C12.6937 13.4711 12.6862 13.4749 12.6786 13.4787C12.6712 13.4824 12.6637 13.486 12.6561 13.4896C12.6487 13.4931 12.6412 13.4966 12.6336 13.5C12.6262 13.5033 12.6187 13.5066 12.6112 13.5098C12.6038 13.5129 12.5962 13.5159 12.5887 13.5189C12.5813 13.5219 12.5737 13.5248 12.5662 13.5276C12.5588 13.5304 12.5513 13.5332 12.5437 13.5358C12.5363 13.5385 12.5288 13.5411 12.5212 13.5437C12.5138 13.5461 12.5063 13.5486 12.4988 13.5509C12.4913 13.5533 12.4838 13.5555 12.4763 13.5577C12.4688 13.5599 12.4613 13.5621 12.4538 13.5642C12.4463 13.5662 12.4389 13.5683 12.4313 13.5702C12.4239 13.5722 12.4164 13.574 12.4088 13.5758C12.4014 13.5776 12.3939 13.5793 12.3864 13.581C12.3789 13.5827 12.3714 13.5843 12.3639 13.5859C12.3564 13.5874 12.349 13.5889 12.3414 13.5904C12.3339 13.5918 12.3264 13.5931 12.3189 13.5944C12.3115 13.5957 12.304 13.5971 12.2964 13.5983L12.274 13.6017C12.2665 13.6028 12.259 13.6038 12.2515 13.6048C12.244 13.6058 12.2365 13.6067 12.229 13.6076L12.2065 13.6101C12.1991 13.6109 12.1916 13.6115 12.184 13.6122C12.1766 13.6129 12.1691 13.6136 12.1615 13.6142C12.1541 13.6148 12.1466 13.6153 12.1391 13.6157C12.1316 13.6162 12.1241 13.6166 12.1166 13.617C12.1091 13.6174 12.1016 13.6178 12.0941 13.6181C12.0867 13.6184 12.0791 13.6186 12.0716 13.6188L12.0491 13.6193C12.0417 13.6195 12.0342 13.6195 12.0267 13.6195L12.0042 13.6196L11.9817 13.6194L11.9592 13.6191L11.9367 13.6186L11.9143 13.618L11.8918 13.6173L11.8693 13.6164L11.8468 13.6153L11.8243 13.6142L11.8018 13.6129L11.7794 13.6114L11.7569 13.6098L11.7344 13.6081L11.7119 13.6062L11.6894 13.6042L11.6669 13.602L11.6445 13.5997L11.622 13.5973L11.5995 13.5947L11.577 13.592L11.5546 13.5891L11.5321 13.5862L11.5096 13.5831L11.4871 13.5798L11.4646 13.5764L11.4421 13.5729L11.4197 13.5693L11.3972 13.5655L11.3747 13.5616L11.3522 13.5575L11.3297 13.5534L11.3072 13.5491L11.2848 13.5446L11.2623 13.5401L11.2398 13.5354L11.2173 13.5306L11.1948 13.5256L11.1724 13.5206L11.1499 13.5154L11.1274 13.5101L11.1049 13.5046L11.0824 13.4991L11.06 13.4934L11.0375 13.4875L11.015 13.4816L10.9925 13.4756L10.97 13.4694L10.9476 13.4631L10.9251 13.4567L10.9026 13.4502L10.8801 13.4435L10.8576 13.4367L10.8351 13.4298L10.8127 13.4228L10.7902 13.4157L10.7677 13.4085L10.7452 13.4011L10.7227 13.3937L10.7003 13.3861L10.6778 13.3784L10.6553 13.3706L10.6328 13.3626L10.6103 13.3546L10.5879 13.3465L10.5654 13.3382L10.5429 13.3298L10.5204 13.3214L10.4979 13.3128L10.4754 13.3041L10.453 13.2953L10.4305 13.2864L10.408 13.2774L10.3855 13.2683L10.363 13.2591L10.3405 13.2498L10.3181 13.2403L10.2956 13.2308L10.2731 13.2211L10.2506 13.2114L10.2281 13.2015L10.2057 13.1916L10.1832 13.1816L10.1607 13.1714L10.1382 13.1612L10.1157 13.1509L10.0933 13.1404L10.0708 13.1299L10.0483 13.1193C10.0322 13.1116 10.0161 13.1039 10 13.0961Z" fill="#006CB9"/>
<path fill-rule="evenodd" clip-rule="evenodd" d="M16.5038 10.3482C16.4874 10.3614 16.4713 10.3748 16.4556 10.3883V7.33351C16.4556 7.17106 16.4722 7.01249 16.5038 6.85937C16.5106 6.8265 16.5182 6.79393 16.5263 6.76158C16.5333 6.73382 16.5408 6.70629 16.5488 6.67894C16.5559 6.65458 16.5634 6.63039 16.5713 6.60637C16.5785 6.58442 16.586 6.56258 16.5938 6.54093C16.601 6.52086 16.6085 6.50089 16.6163 6.48108C16.6235 6.46257 16.631 6.44414 16.6387 6.42585C16.646 6.4086 16.6535 6.39147 16.6612 6.37442C16.6685 6.35824 16.6761 6.34217 16.6837 6.32619C16.691 6.31092 16.6985 6.2958 16.7062 6.28072C16.7135 6.26623 16.721 6.25186 16.7287 6.23755C16.736 6.22375 16.7435 6.21005 16.7511 6.19642C16.7585 6.18323 16.766 6.17009 16.7736 6.15706C16.781 6.1444 16.7885 6.1318 16.7961 6.1193C16.8035 6.10722 16.811 6.09522 16.8186 6.08329C16.826 6.07168 16.8335 6.0602 16.8411 6.04874C16.8485 6.03752 16.856 6.02638 16.8636 6.01531C16.871 6.00444 16.8784 5.99358 16.886 5.98286C16.8934 5.97249 16.901 5.96228 16.9085 5.95205C16.9159 5.94197 16.9234 5.93194 16.931 5.92199C16.9385 5.91219 16.9459 5.90238 16.9535 5.89271C16.9609 5.88332 16.9685 5.87406 16.976 5.86478C16.9834 5.85562 16.9909 5.84649 16.9985 5.83746C17.0059 5.82853 17.0134 5.81965 17.0209 5.81086C17.0284 5.80227 17.0359 5.7938 17.0434 5.78532C17.0509 5.77692 17.0583 5.76848 17.0659 5.76018C17.0733 5.75206 17.0808 5.74403 17.0884 5.73602C17.0958 5.72811 17.1033 5.72025 17.1108 5.71243C17.1183 5.70472 17.1258 5.69701 17.1333 5.6894C17.1408 5.68193 17.1483 5.67456 17.1558 5.66718C17.1633 5.65985 17.1707 5.65246 17.1783 5.64521C17.1857 5.63814 17.1933 5.63123 17.2008 5.62425C17.2082 5.61729 17.2157 5.61031 17.2233 5.60346C17.2307 5.59674 17.2382 5.59013 17.2457 5.5835C17.2532 5.5769 17.2607 5.57031 17.2682 5.56381C17.2757 5.55741 17.2832 5.55112 17.2907 5.54481C17.2982 5.53855 17.3057 5.5323 17.3132 5.52612C17.3207 5.52004 17.3282 5.51401 17.3357 5.50802C17.3431 5.50206 17.3506 5.49615 17.3582 5.49028C17.3656 5.4845 17.3731 5.47877 17.3806 5.47306C17.3881 5.4674 17.3956 5.46176 17.4031 5.4562C17.4106 5.45067 17.4181 5.44522 17.4256 5.43979C17.4331 5.43442 17.4406 5.42904 17.4481 5.42374C17.4556 5.41849 17.4631 5.41332 17.4706 5.40815C17.478 5.40302 17.4855 5.39791 17.4931 5.39287C17.5005 5.38788 17.508 5.38297 17.5155 5.37806C17.523 5.37317 17.5305 5.36828 17.538 5.36349C17.5455 5.35874 17.553 5.35411 17.5605 5.34945C17.568 5.3448 17.5754 5.3401 17.583 5.33554C17.5904 5.33103 17.598 5.32666 17.6055 5.32223C17.613 5.31781 17.6204 5.31329 17.628 5.30896C17.6354 5.30469 17.643 5.30058 17.6504 5.29638C17.6579 5.29218 17.6654 5.28794 17.6729 5.28384C17.6804 5.27977 17.6879 5.27585 17.6954 5.27185C17.7029 5.26788 17.7103 5.26388 17.7179 5.25998L17.7404 5.24854L17.7629 5.23736C17.7703 5.2337 17.7778 5.23 17.7853 5.22642C17.7928 5.22285 17.8003 5.2194 17.8078 5.21591C17.8153 5.21244 17.8228 5.20886 17.8303 5.20546C17.8377 5.20208 17.8453 5.19891 17.8528 5.19562C17.8603 5.19234 17.8677 5.18899 17.8753 5.18578C17.8827 5.18261 17.8902 5.17953 17.8977 5.17643L17.9202 5.16725C17.9277 5.16424 17.9352 5.16124 17.9427 5.15831C17.9502 5.1554 17.9577 5.1526 17.9652 5.14976C17.9727 5.14692 17.9801 5.14399 17.9877 5.14123C17.9951 5.1385 18.0027 5.13596 18.0102 5.13331C18.0176 5.13066 18.0251 5.12797 18.0326 5.1254C18.0401 5.12282 18.0476 5.12036 18.0551 5.11788L18.0776 5.11058C18.0851 5.10819 18.0926 5.10574 18.1001 5.10341C18.1075 5.10111 18.1151 5.09895 18.1226 5.09673C18.1301 5.09449 18.1375 5.09219 18.1451 5.09003C18.1525 5.08788 18.16 5.08588 18.1675 5.08381L18.19 5.07771C18.1975 5.07573 18.205 5.07371 18.2125 5.07181C18.22 5.06992 18.2275 5.06815 18.235 5.06632C18.2425 5.06449 18.2499 5.06259 18.2575 5.06083C18.2649 5.0591 18.2725 5.05747 18.2799 5.05581L18.3024 5.05092C18.3099 5.04933 18.3174 5.04769 18.3249 5.04618C18.3324 5.04467 18.3399 5.04331 18.3474 5.04187C18.3549 5.04043 18.3624 5.03892 18.3699 5.03756L18.3924 5.03367L18.4148 5.02996C18.4223 5.02875 18.4298 5.02746 18.4373 5.02632C18.4448 5.02518 18.4523 5.02423 18.4598 5.02316C18.4673 5.02212 18.4748 5.02102 18.4823 5.02003L18.5048 5.01721L18.5273 5.01463C18.5348 5.01379 18.5422 5.01282 18.5497 5.01206C18.5572 5.01129 18.5647 5.01073 18.5722 5.01004L18.5947 5.00806C18.6022 5.00743 18.6097 5.00681 18.6172 5.00627C18.6247 5.00573 18.6322 5.0053 18.6397 5.00483C18.6472 5.00437 18.6546 5.00383 18.6622 5.00342C18.6696 5.00301 18.6771 5.00273 18.6846 5.00239L18.7071 5.00153C18.7146 5.00127 18.7221 5.00088 18.7296 5.00069C18.7371 5.0005 18.7446 5.00052 18.7521 5.00041C18.7596 5.0003 18.7671 5.00017 18.7746 5.00013L18.7845 5H18.7971H18.8195H18.842H18.8645H18.887H18.9095H18.932H18.9544H18.9769H18.9994H19.0219H19.0444H19.0668H19.0893H19.1118H19.1343H19.1568H19.1793H19.2017H19.2242H19.2467H19.2692H19.2917H19.3141H19.3366H19.3591H19.3816H19.4041H19.4266H19.449H19.4715H19.494H19.5165H19.539H19.5615H19.5839H19.6064H19.6289H19.6514H19.6739H19.6964H19.7188H19.7413H19.7638H19.7863H19.8088H19.8313H19.8537H19.8762H19.8987H19.9212H19.9437H19.9662H19.9886H20.0111H20.0336H20.0561H20.0786H20.1011H20.1235H20.146H20.1685H20.191H20.2135H20.2359H20.2584H20.2809H20.3034H20.3259H20.3484H20.3708H20.3933H20.4158H20.4383H20.4608H20.4832H20.5057H20.5282H20.5507H20.5732H20.5956H20.6181H20.6406H20.6631H20.6856H20.7081H20.7305H20.753H20.7755H20.798H20.8205H20.843H20.8654H20.8879H20.9104H20.9329H20.9554H20.9779H21.0003H21.0228H21.0453H21.0678H21.0903H21.1128H21.1352H21.1577H21.1802H21.2027H21.2252H21.2477H21.2701H21.2926H21.3151H21.3376H21.3601H21.3825H21.405H21.4275H21.45H21.4725H21.495H21.5175H21.5399H21.5624H21.5849H21.6074H21.6299H21.6523H21.6748H21.6973H21.7198H21.7423H21.7647H21.7872H21.8097H21.8322H21.8547H21.8772H21.8996H21.9221H21.9446H21.9671H21.9896H22.0121H22.0345H22.057H22.0795H22.102H22.1245H22.147H22.1694H22.1919H22.211V16.6667C22.211 16.7681 22.2045 16.868 22.1919 16.9661C22.1859 17.0133 22.1783 17.06 22.1694 17.1062C22.1627 17.1415 22.1552 17.1764 22.147 17.2111C22.14 17.2403 22.1325 17.2692 22.1245 17.298C22.1174 17.3232 22.1099 17.3482 22.102 17.3731C22.0948 17.3956 22.0873 17.4179 22.0795 17.4401C22.0723 17.4607 22.0648 17.4811 22.057 17.5014C22.0498 17.5204 22.0423 17.5392 22.0345 17.5579C22.0273 17.5755 22.0198 17.593 22.0121 17.6104C22.0048 17.6269 21.9973 17.6433 21.9896 17.6596C21.9822 17.6751 21.9748 17.6906 21.9671 17.706C21.9598 17.7207 21.9522 17.7354 21.9446 17.7499C21.9372 17.7639 21.9298 17.7779 21.9221 17.7918C21.9147 17.8052 21.9073 17.8185 21.8996 17.8317C21.8923 17.8445 21.8848 17.8572 21.8772 17.8698C21.8698 17.882 21.8623 17.8941 21.8547 17.9061C21.8473 17.9179 21.8398 17.9296 21.8322 17.9412C21.8248 17.9526 21.8173 17.964 21.8097 17.9752C21.8023 17.9861 21.7948 17.9969 21.7872 18.0076C21.7798 18.0181 21.7723 18.0285 21.7647 18.0389C21.7573 18.0491 21.7499 18.0593 21.7423 18.0694C21.7349 18.0793 21.7274 18.089 21.7198 18.0987C21.7124 18.1082 21.7048 18.1177 21.6973 18.1271C21.6899 18.1363 21.6824 18.1456 21.6748 18.1548C21.6674 18.1637 21.6599 18.1725 21.6523 18.1814C21.6449 18.1901 21.6374 18.1987 21.6299 18.2073C21.6224 18.2157 21.615 18.2242 21.6074 18.2326C21.6 18.2408 21.5924 18.2488 21.5849 18.2569C21.5774 18.2649 21.57 18.273 21.5624 18.2809C21.555 18.2886 21.5475 18.2962 21.5399 18.3039C21.5325 18.3114 21.525 18.3189 21.5175 18.3264C21.51 18.3338 21.5025 18.3411 21.495 18.3484C21.4875 18.3555 21.48 18.3626 21.4725 18.3696C21.465 18.3766 21.4576 18.3837 21.45 18.3906C21.4426 18.3974 21.435 18.404 21.4275 18.4107C21.42 18.4174 21.4126 18.4241 21.405 18.4306C21.3976 18.4371 21.39 18.4433 21.3825 18.4497C21.3751 18.456 21.3676 18.4624 21.3601 18.4686C21.3526 18.4747 21.3451 18.4807 21.3376 18.4867C21.3301 18.4927 21.3227 18.4988 21.3151 18.5047C21.3077 18.5105 21.3001 18.5162 21.2926 18.5219C21.2851 18.5276 21.2777 18.5334 21.2701 18.539C21.2627 18.5446 21.2552 18.55 21.2477 18.5554C21.2402 18.5609 21.2327 18.5664 21.2252 18.5717C21.2177 18.577 21.2102 18.5821 21.2027 18.5873C21.1952 18.5925 21.1878 18.5977 21.1802 18.6028C21.1728 18.6078 21.1652 18.6127 21.1577 18.6176C21.1502 18.6226 21.1428 18.6276 21.1352 18.6324C21.1278 18.6372 21.1202 18.6418 21.1128 18.6465C21.1053 18.6511 21.0978 18.6559 21.0903 18.6605C21.0828 18.665 21.0753 18.6694 21.0678 18.6739C21.0603 18.6783 21.0528 18.6828 21.0453 18.6872C21.0378 18.6915 21.0303 18.6957 21.0228 18.6999L21.0003 18.7125L20.9779 18.7247L20.9554 18.7365C20.9479 18.7404 20.9404 18.7444 20.9329 18.7482C20.9254 18.752 20.9179 18.7557 20.9104 18.7594C20.9029 18.7631 20.8955 18.7669 20.8879 18.7705C20.8805 18.7741 20.8729 18.7775 20.8654 18.781C20.858 18.7845 20.8505 18.7881 20.843 18.7915C20.8355 18.7949 20.828 18.7982 20.8205 18.8015L20.798 18.8113L20.7755 18.8209L20.753 18.8301C20.7455 18.8331 20.7381 18.8362 20.7305 18.8392C20.7231 18.8421 20.7156 18.8448 20.7081 18.8477C20.7006 18.8506 20.6931 18.8535 20.6856 18.8563C20.6781 18.859 20.6706 18.8616 20.6631 18.8643L20.6406 18.8723L20.6181 18.88C20.6107 18.8825 20.6032 18.8848 20.5956 18.8873C20.5881 18.8897 20.5807 18.8922 20.5732 18.8946C20.5657 18.8969 20.5582 18.899 20.5507 18.9013L20.5282 18.908L20.5057 18.9144C20.4982 18.9165 20.4907 18.9185 20.4832 18.9205C20.4757 18.9225 20.4683 18.9246 20.4608 18.9265C20.4533 18.9285 20.4458 18.9302 20.4383 18.932C20.4308 18.9339 20.4233 18.9358 20.4158 18.9375L20.3933 18.9427L20.3708 18.9476C20.3633 18.9492 20.3559 18.9509 20.3484 18.9525C20.3409 18.954 20.3334 18.9554 20.3259 18.9568L20.3034 18.9611L20.2809 18.9652C20.2734 18.9665 20.2659 18.9677 20.2584 18.9689C20.2509 18.9701 20.2435 18.9715 20.2359 18.9726C20.2285 18.9738 20.2209 18.9748 20.2135 18.9758L20.191 18.979C20.1835 18.98 20.176 18.981 20.1685 18.982C20.161 18.9829 20.1535 18.9837 20.146 18.9845C20.1385 18.9854 20.131 18.9863 20.1235 18.9871C20.1161 18.9879 20.1086 18.9886 20.1011 18.9893L20.0786 18.9913C20.0711 18.9919 20.0636 18.9927 20.0561 18.9933C20.0486 18.9938 20.0411 18.9942 20.0336 18.9947L20.0111 18.9961L19.9886 18.9973C19.9812 18.9977 19.9736 18.9979 19.9662 18.9982C19.9586 18.9984 19.9512 18.9988 19.9437 18.999C19.9362 18.9992 19.9287 18.9993 19.9212 18.9994L19.8987 18.9997C19.8917 18.9998 19.8847 19 19.8777 19H19.8762H19.8537H19.8313H19.8088H19.7863H19.7638H19.7413H19.7188H19.6964H19.6739H19.6514H19.6289H19.6064H19.5839H19.5615H19.539H19.5165H19.494H19.4715H19.449H19.4266H19.4041H19.3816H19.3591H19.3366H19.3141H19.2917H19.2692H19.2467H19.2242H19.2017H19.1793H19.1568H19.1343H19.1118H19.0893H19.0668H19.0444H19.0219H18.9994H18.9769H18.9544H18.932H18.9095H18.887H18.8645H18.842H18.8195H18.7971H18.7746H18.7521H18.7296H18.7071H18.6846H18.6622H18.6397H18.6172H18.5947H18.5722H18.5497H18.5273H18.5048H18.4823H18.4598H18.4373H18.4148H18.3924H18.3699H18.3474H18.3249H18.3024H18.2799H18.2575H18.235H18.2125H18.19H18.1675H18.1451H18.1226H18.1001H18.0776H18.0551H18.0326H18.0102H17.9877H17.9652H17.9427H17.9202H17.8977H17.8753H17.8528H17.8303H17.8078H17.7853H17.7629H17.7404H17.7179H17.6954H17.6729H17.6504H17.628H17.6055H17.583H17.5605H17.538H17.5155H17.4931H17.4706H17.4481H17.4256H17.4031H17.3806H17.3582H17.3357H17.3132H17.2907H17.2682H17.2457H17.2233H17.2008H17.1783H17.1558H17.1333H17.1108H17.0884H17.0659H17.0434H17.0209H16.9985H16.976H16.9535H16.931H16.9085H16.886H16.8636H16.8411H16.8186H16.7961H16.7736H16.7511H16.7287H16.7062H16.6837H16.6612H16.6387H16.6163H16.5938H16.5713H16.5488H16.5263H16.5038H16.4556V13.6126C16.4713 13.6261 16.4874 13.6395 16.5038 13.6527C16.5113 13.6587 16.5188 13.6647 16.5263 13.6707C16.5338 13.6765 16.5412 13.6824 16.5488 13.6882C16.5563 13.6939 16.5637 13.6996 16.5713 13.7053C16.5787 13.7108 16.5862 13.7163 16.5938 13.7218C16.6012 13.7272 16.6087 13.7326 16.6163 13.7379C16.6237 13.7432 16.6312 13.7485 16.6387 13.7537L16.6612 13.7691C16.6686 13.7742 16.6762 13.7791 16.6837 13.7841L16.7062 13.7988C16.7136 13.8036 16.7211 13.8084 16.7287 13.8132C16.7361 13.8178 16.7436 13.8224 16.7511 13.8271L16.7736 13.8408C16.7811 13.8452 16.7886 13.8497 16.7961 13.8541C16.8035 13.8585 16.8111 13.8628 16.8186 13.8671L16.8411 13.8799L16.8636 13.8924L16.886 13.9045C16.8935 13.9085 16.901 13.9125 16.9085 13.9165C16.9159 13.9204 16.9235 13.9242 16.931 13.9281L16.9535 13.9395L16.976 13.9507L16.9985 13.9615C17.0059 13.9651 17.0134 13.9688 17.0209 13.9723L17.0434 13.9827L17.0659 13.993L17.0884 14.0029L17.1108 14.0127L17.1333 14.0223L17.1558 14.0317L17.1783 14.0409L17.2008 14.0499L17.2233 14.0588L17.2457 14.0673C17.2532 14.0701 17.2607 14.073 17.2682 14.0758L17.2907 14.084C17.2982 14.0867 17.3056 14.0895 17.3132 14.0922C17.3206 14.0949 17.3282 14.0974 17.3357 14.1L17.3582 14.1079L17.3806 14.1154C17.3881 14.1179 17.3956 14.1205 17.4031 14.1229C17.4105 14.1254 17.4181 14.1277 17.4256 14.1301L17.4481 14.1373L17.4706 14.1442L17.4931 14.1511L17.5155 14.1577L17.538 14.1643L17.5605 14.1707L17.583 14.177L17.6055 14.1831L17.628 14.1891L17.6504 14.195L17.6729 14.2007L17.6954 14.2064L17.7179 14.2118L17.7404 14.2173L17.7629 14.2225L17.7853 14.2276L17.8078 14.2326L17.8303 14.2375L17.8528 14.2424L17.8753 14.247L17.8977 14.2516L17.9202 14.256L17.9427 14.2604L17.9652 14.2647L17.9877 14.2688L18.0102 14.2729L18.0326 14.2768L18.0551 14.2807L18.0776 14.2845L18.1001 14.2881L18.1226 14.2918L18.1451 14.2952L18.1675 14.2986L18.19 14.3019L18.2125 14.3051L18.235 14.3083L18.2575 14.3112L18.2799 14.3142L18.3024 14.3171L18.3249 14.3198L18.3474 14.3226L18.3699 14.3251L18.3924 14.3277L18.4148 14.3302L18.4373 14.3325L18.4598 14.3348L18.4823 14.3371L18.5048 14.3392L18.5273 14.3413L18.5497 14.3433L18.5722 14.3452L18.5947 14.3471L18.6172 14.3488L18.6397 14.3505L18.6622 14.3522L18.6846 14.3537L18.7071 14.3552L18.7296 14.3567L18.7521 14.358L18.7746 14.3593L18.7971 14.3606L18.8195 14.3617L18.842 14.3629L18.8645 14.364L18.887 14.3649L18.9095 14.3658L18.932 14.3667L18.9544 14.3674L18.9769 14.3682L18.9994 14.3689L19.0219 14.3695L19.0444 14.37L19.0668 14.3706L19.0893 14.371L19.1118 14.3714L19.1343 14.3718L19.1568 14.372L19.1793 14.3722L19.2017 14.3724L19.2242 14.3725L19.2467 14.3725L19.2692 14.3726L19.2917 14.3725L19.3141 14.3724L19.3366 14.3722L19.3591 14.3721L19.3816 14.3718L19.4041 14.3715L19.4266 14.3712L19.449 14.3707L19.4715 14.3702L19.494 14.3698L19.5165 14.3692L19.539 14.3686L19.5615 14.3679L19.5839 14.3673L19.6064 14.3665L19.6289 14.3657L19.6514 14.3649L19.6739 14.364L19.6964 14.3631L19.7188 14.3621L19.7298 14.3617L19.7413 14.3611L19.7638 14.36L19.7863 14.3588L19.8088 14.3576L19.8313 14.3562L19.8537 14.3549L19.8762 14.3533L19.8987 14.3518L19.9212 14.3502L19.9437 14.3485L19.9662 14.3467L19.9886 14.3449L20.0111 14.3429L20.0336 14.341L20.0561 14.3389L20.0786 14.3368L20.1011 14.3346L20.1235 14.3324L20.146 14.3301L20.1685 14.3277L20.191 14.3253L20.2135 14.3229L20.2359 14.3203L20.2584 14.3177L20.2809 14.3151L20.3034 14.3124L20.3259 14.3096L20.3484 14.3068L20.3708 14.3039L20.3933 14.301L20.4158 14.298L20.4383 14.295L20.4608 14.2919L20.4832 14.2888L20.5057 14.2856L20.5282 14.2823L20.5507 14.2791L20.5732 14.2757L20.5956 14.2723L20.6181 14.2689L20.6406 14.2654L20.6631 14.2619L20.6856 14.2583L20.7081 14.2547L20.7305 14.2511L20.753 14.2473L20.7755 14.2436L20.798 14.2398L20.8205 14.2359L20.843 14.232L20.8654 14.2281L20.8879 14.2241L20.9104 14.2201L20.9329 14.216L20.9554 14.2119L20.9779 14.2077L21.0003 14.2035L21.0228 14.1992L21.0453 14.1949L21.0678 14.1906L21.0903 14.1862L21.1128 14.1818L21.1352 14.1773L21.1577 14.1728L21.1802 14.1683L21.2027 14.1637L21.2252 14.159L21.2477 14.1543L21.2701 14.1496L21.2926 14.1448L21.3151 14.14L21.3376 14.1351L21.3601 14.1301L21.3825 14.1252L21.405 14.1201L21.4275 14.115L21.45 14.1099L21.4725 14.1047L21.495 14.0994L21.5175 14.0941L21.5399 14.0886L21.5623 14.0831V13.0961L21.5399 13.1072L21.5175 13.1183L21.495 13.1293L21.4725 13.1402L21.45 13.151L21.4275 13.1617L21.405 13.1723L21.3825 13.1828L21.3601 13.1932L21.3376 13.2034L21.3151 13.2136L21.2926 13.2236L21.2701 13.2335L21.2477 13.2433L21.2252 13.253L21.2027 13.2625L21.1802 13.272L21.1577 13.2813L21.1352 13.2905L21.1128 13.2996L21.0903 13.3085L21.0678 13.3174L21.0453 13.326L21.0228 13.3346L21.0003 13.3431L20.9779 13.3514L20.9554 13.3596L20.9329 13.3677L20.9104 13.3756L20.8879 13.3834L20.8654 13.3911L20.843 13.3987L20.8205 13.4061L20.798 13.4134L20.7755 13.4206L20.753 13.4277L20.7305 13.4346L20.7081 13.4414L20.6856 13.448L20.6631 13.4546L20.6406 13.461L20.6181 13.4672L20.5956 13.4734L20.5732 13.4794L20.5507 13.4853L20.5282 13.4911L20.5057 13.4967L20.4832 13.5022L20.4608 13.5077L20.4383 13.5129L20.4158 13.518L20.3933 13.5231L20.3708 13.528L20.3484 13.5327L20.3259 13.5373L20.3034 13.5418L20.2809 13.5462L20.2584 13.5505L20.2359 13.5546L20.2135 13.5586L20.191 13.5625L20.1685 13.5663L20.146 13.5699L20.1235 13.5734L20.1011 13.5768L20.0786 13.5801L20.0561 13.5833L20.0336 13.5863L20.0111 13.5892L19.9886 13.592L19.9662 13.5947L19.9437 13.5972L19.9212 13.5996L19.8987 13.602L19.8762 13.6041L19.8537 13.6062L19.8313 13.6082L19.8088 13.61L19.7951 13.6111L19.7863 13.6117L19.7638 13.6132L19.7413 13.6147L19.7188 13.6159L19.6964 13.6171L19.6739 13.6181L19.6514 13.6188L19.6289 13.6196L19.6064 13.6201L19.5839 13.6204L19.5615 13.6207C19.5539 13.6207 19.5465 13.6206 19.539 13.6206L19.5165 13.6205L19.494 13.6202L19.4715 13.6197L19.449 13.6191C19.4415 13.6189 19.4341 13.6185 19.4266 13.6182C19.4191 13.6179 19.4115 13.6177 19.4041 13.6173L19.3816 13.616L19.3591 13.6147L19.3366 13.6131L19.3141 13.6114C19.3067 13.6107 19.2991 13.6102 19.2917 13.6095C19.2841 13.6088 19.2767 13.608 19.2692 13.6073L19.2467 13.605L19.2242 13.6024L19.2017 13.5997L19.1793 13.5967L19.1568 13.5935C19.1493 13.5924 19.1417 13.5913 19.1343 13.5902C19.1268 13.589 19.1193 13.5877 19.1118 13.5865C19.1043 13.5852 19.0968 13.584 19.0893 13.5827C19.0818 13.5814 19.0743 13.5799 19.0668 13.5785C19.0593 13.5771 19.0518 13.5758 19.0444 13.5743C19.0368 13.5728 19.0294 13.5712 19.0219 13.5696C19.0144 13.568 19.0068 13.5665 18.9994 13.5649C18.9919 13.5632 18.9844 13.5614 18.9769 13.5597L18.9544 13.5544C18.9469 13.5526 18.9394 13.5507 18.932 13.5487C18.9244 13.5468 18.9169 13.5449 18.9095 13.5429C18.9019 13.5409 18.8945 13.5388 18.887 13.5367C18.8795 13.5346 18.8719 13.5325 18.8645 13.5303C18.857 13.5281 18.8495 13.5258 18.842 13.5235C18.8345 13.5212 18.827 13.5188 18.8195 13.5165C18.812 13.514 18.8045 13.5115 18.7971 13.509C18.7895 13.5065 18.782 13.504 18.7746 13.5014C18.767 13.4988 18.7596 13.496 18.7521 13.4933C18.7446 13.4905 18.737 13.4878 18.7296 13.485C18.7221 13.4821 18.7146 13.4792 18.7071 13.4762C18.6996 13.4732 18.6921 13.4703 18.6846 13.4672C18.6771 13.4641 18.6696 13.4609 18.6622 13.4577C18.6546 13.4544 18.6471 13.4512 18.6397 13.4479C18.6321 13.4445 18.6247 13.441 18.6172 13.4376C18.6097 13.434 18.6021 13.4305 18.5947 13.427C18.5872 13.4233 18.5797 13.4196 18.5722 13.4158C18.5647 13.412 18.5572 13.4082 18.5497 13.4043C18.5422 13.4003 18.5347 13.3964 18.5273 13.3924C18.5197 13.3882 18.5122 13.384 18.5048 13.3797C18.4973 13.3755 18.4897 13.3712 18.4823 13.3668C18.4747 13.3624 18.4673 13.3578 18.4598 13.3533C18.4522 13.3486 18.4448 13.3439 18.4373 13.3391C18.4298 13.3343 18.4222 13.3296 18.4148 13.3247C18.4072 13.3196 18.3998 13.3144 18.3924 13.3092C18.3848 13.304 18.3773 13.2987 18.3699 13.2934C18.3623 13.2879 18.3548 13.2825 18.3474 13.2769C18.3398 13.2712 18.3324 13.2654 18.3249 13.2595C18.3173 13.2536 18.3099 13.2476 18.3024 13.2416C18.2949 13.2354 18.2873 13.2292 18.2799 13.2229C18.2723 13.2164 18.2649 13.2098 18.2575 13.2031C18.2499 13.1964 18.2424 13.1895 18.235 13.1826C18.2274 13.1755 18.2199 13.1684 18.2125 13.1611C18.2049 13.1537 18.1974 13.1463 18.19 13.1388C18.1824 13.131 18.1749 13.123 18.1675 13.115C18.1599 13.1068 18.1525 13.0985 18.1451 13.0901C18.1374 13.0815 18.1299 13.0728 18.1226 13.064C18.115 13.0549 18.1075 13.0458 18.1001 13.0365C18.0925 13.0269 18.085 13.0172 18.0776 13.0074C18.07 12.9972 18.0625 12.987 18.0551 12.9766C18.0475 12.9657 18.04 12.9548 18.0326 12.9438C18.025 12.9322 18.0175 12.9205 18.0102 12.9087C18.0025 12.8963 17.995 12.8837 17.9877 12.8711C17.98 12.8577 17.9725 12.8442 17.9652 12.8305C17.9574 12.816 17.95 12.8013 17.9427 12.7864C17.935 12.7706 17.9274 12.7545 17.9202 12.7383C17.9125 12.7209 17.9049 12.7032 17.8977 12.6853C17.8898 12.6655 17.8824 12.6453 17.8753 12.6249C17.8673 12.6023 17.8598 12.5795 17.8528 12.5562C17.8447 12.5291 17.8371 12.5017 17.8303 12.4738C17.8218 12.439 17.8144 12.4035 17.8078 12.3674C17.7981 12.3138 17.7906 12.2588 17.7853 12.2022C17.7793 12.1369 17.7762 12.0696 17.7762 12.0004C17.7762 11.9311 17.7793 11.8638 17.7853 11.7984C17.7906 11.7418 17.7981 11.6867 17.8078 11.6331C17.8144 11.597 17.8218 11.5615 17.8303 11.5267C17.8371 11.4988 17.8447 11.4713 17.8528 11.4443C17.8598 11.421 17.8673 11.3981 17.8753 11.3755C17.8824 11.3551 17.8898 11.3349 17.8977 11.315C17.9049 11.2971 17.9125 11.2795 17.9202 11.262C17.9274 11.2458 17.935 11.2297 17.9427 11.2139C17.95 11.199 17.9574 11.1843 17.9652 11.1698C17.9725 11.1561 17.98 11.1426 17.9877 11.1292C17.995 11.1165 18.0025 11.104 18.0102 11.0916C18.0175 11.0797 18.025 11.068 18.0326 11.0565C18.04 11.0454 18.0475 11.0345 18.0551 11.0237C18.0625 11.0133 18.07 11.003 18.0776 10.9929C18.085 10.983 18.0925 10.9733 18.1001 10.9637C18.1075 10.9545 18.115 10.9453 18.1226 10.9362C18.1299 10.9274 18.1374 10.9187 18.1451 10.91C18.1525 10.9017 18.1599 10.8933 18.1675 10.8851C18.1749 10.8772 18.1824 10.8692 18.19 10.8614C18.1974 10.8538 18.2049 10.8464 18.2125 10.839C18.2199 10.8318 18.2274 10.8247 18.235 10.8176C18.2424 10.8107 18.2499 10.8037 18.2575 10.797C18.2649 10.7903 18.2723 10.7837 18.2799 10.7772C18.2873 10.7709 18.2949 10.7647 18.3024 10.7586C18.3099 10.7525 18.3173 10.7465 18.3249 10.7406C18.3324 10.7347 18.3398 10.7289 18.3474 10.7231C18.3548 10.7176 18.3623 10.7122 18.3699 10.7067C18.3773 10.7013 18.3848 10.6961 18.3924 10.6908C18.3998 10.6857 18.4072 10.6805 18.4148 10.6754C18.4222 10.6705 18.4298 10.6657 18.4373 10.6609C18.4448 10.6562 18.4522 10.6514 18.4598 10.6468C18.4673 10.6422 18.4747 10.6377 18.4823 10.6332C18.4897 10.6288 18.4973 10.6246 18.5048 10.6203C18.5122 10.6161 18.5197 10.6118 18.5273 10.6077C18.5347 10.6036 18.5422 10.5997 18.5497 10.5958C18.5572 10.5919 18.5647 10.588 18.5722 10.5842C18.5797 10.5805 18.5872 10.5767 18.5947 10.5731C18.6021 10.5695 18.6097 10.566 18.6172 10.5625C18.6247 10.559 18.6321 10.5555 18.6397 10.5521C18.6471 10.5488 18.6546 10.5456 18.6622 10.5424C18.6696 10.5391 18.6771 10.5359 18.6846 10.5328C18.6921 10.5297 18.6996 10.5268 18.7071 10.5238C18.7146 10.5208 18.7221 10.5179 18.7296 10.515C18.737 10.5122 18.7446 10.5095 18.7521 10.5067C18.7596 10.504 18.767 10.5012 18.7746 10.4986C18.782 10.496 18.7895 10.4935 18.7971 10.491C18.8045 10.4885 18.812 10.486 18.8195 10.4835C18.827 10.4811 18.8345 10.4788 18.842 10.4765C18.8495 10.4742 18.857 10.4719 18.8645 10.4697L18.887 10.4633C18.8945 10.4612 18.9019 10.4591 18.9095 10.4571C18.9169 10.4551 18.9244 10.4532 18.932 10.4512C18.9394 10.4493 18.9469 10.4474 18.9544 10.4456L18.9769 10.4403C18.9844 10.4385 18.9919 10.4368 18.9994 10.4351C19.0068 10.4335 19.0144 10.4319 19.0219 10.4304C19.0294 10.4288 19.0368 10.4272 19.0444 10.4257C19.0518 10.4242 19.0593 10.4229 19.0668 10.4215C19.0743 10.4201 19.0818 10.4186 19.0893 10.4172C19.0968 10.4159 19.1043 10.4148 19.1118 10.4135C19.1193 10.4123 19.1268 10.411 19.1343 10.4098L19.1568 10.4065L19.1793 10.4032L19.2017 10.4003L19.2242 10.3976L19.2467 10.3949L19.2692 10.3927C19.2767 10.3919 19.2841 10.3911 19.2917 10.3904C19.2991 10.3897 19.3067 10.3892 19.3141 10.3886L19.3366 10.3868L19.3591 10.3852L19.3816 10.3839L19.4041 10.3827C19.4115 10.3823 19.4191 10.382 19.4266 10.3817C19.4341 10.3814 19.4415 10.3811 19.449 10.3808L19.4715 10.3802L19.494 10.3798L19.5165 10.3794L19.539 10.3794C19.5465 10.3793 19.5539 10.3792 19.5615 10.3793L19.5839 10.3796L19.6064 10.3799L19.6289 10.3804L19.6514 10.3811L19.6739 10.3818L19.6964 10.3829L19.7188 10.384L19.7413 10.3852L19.7638 10.3867L19.7863 10.3882L19.7951 10.3888L19.8088 10.3899L19.8313 10.3917L19.8537 10.3937L19.8762 10.3957L19.8987 10.3978L19.9212 10.4001L19.9437 10.4026L19.9662 10.4051L19.9886 10.4077L20.0111 10.4104L20.0336 10.4133L20.0561 10.4163L20.0786 10.4194L20.1011 10.4226L20.1235 10.426L20.146 10.4295L20.1685 10.4331L20.191 10.4368L20.2135 10.4406L20.2359 10.4446L20.2584 10.4487L20.2809 10.4529L20.3034 10.4572L20.3259 10.4617L20.3484 10.4663L20.3708 10.471L20.3933 10.4759L20.4158 10.4809L20.4383 10.4859L20.4608 10.4912L20.4832 10.4965L20.5057 10.502L20.5282 10.5076L20.5507 10.5134L20.5732 10.5193L20.5956 10.5252L20.6181 10.5314L20.6406 10.5377L20.6631 10.544L20.6856 10.5506L20.7081 10.5572L20.7305 10.564L20.753 10.5709L20.7755 10.578L20.798 10.5852L20.8205 10.5925L20.843 10.5999L20.8654 10.6075L20.8879 10.6152L20.9104 10.623L20.9329 10.631L20.9554 10.6391L20.9779 10.6473L21.0003 10.6557L21.0228 10.6642L21.0453 10.6728L21.0678 10.6815L21.0903 10.6904L21.1128 10.6994L21.1352 10.7085L21.1577 10.7178L21.1802 10.7272L21.2027 10.7367L21.2252 10.7463L21.2477 10.7561L21.2701 10.7659L21.2926 10.7759L21.3151 10.786L21.3376 10.7962L21.3601 10.8066L21.3825 10.817L21.405 10.8276L21.4275 10.8383L21.45 10.8491L21.4725 10.86L21.495 10.871L21.5175 10.8821L21.5399 10.8933L21.5623 10.9046V9.91682L21.5399 9.9113L21.5175 9.90589L21.495 9.90055L21.4725 9.89526L21.45 9.89006L21.4275 9.88492L21.405 9.87983L21.3825 9.87479L21.3601 9.86982L21.3376 9.86488L21.3151 9.86L21.2926 9.85519L21.2701 9.85037L21.2477 9.84565L21.2252 9.84096L21.2027 9.83632L21.1802 9.83171L21.1577 9.82715L21.1352 9.82263L21.1128 9.81817L21.0903 9.81377L21.0678 9.80936L21.0453 9.80503L21.0228 9.80074L21.0003 9.7965L20.9779 9.7923L20.9554 9.78814L20.9329 9.78403L20.9104 9.77996L20.8879 9.77593L20.8654 9.77196L20.843 9.76802L20.8205 9.76412L20.798 9.76029L20.7755 9.75648L20.753 9.75273L20.7305 9.74902L20.7081 9.74536L20.6856 9.74175L20.6631 9.73817L20.6406 9.73466L20.6181 9.73117L20.5956 9.72776L20.5732 9.72438L20.5507 9.72104L20.5282 9.71777L20.5057 9.71454L20.4832 9.71137L20.4608 9.70825L20.4383 9.70517L20.4158 9.70214L20.3933 9.69916L20.3708 9.69626L20.3484 9.69339L20.3259 9.69057L20.3034 9.68781L20.2809 9.68512L20.2584 9.68249L20.2359 9.67989L20.2135 9.67738L20.191 9.67489L20.1685 9.6725L20.146 9.67013L20.1235 9.66787L20.1011 9.66563L20.0786 9.66347L20.0561 9.66136L20.0336 9.65934L20.0111 9.65736L19.9886 9.65546L19.9662 9.65363L19.9437 9.65186L19.9212 9.6502L19.8987 9.64854L19.8762 9.64702L19.8537 9.64551L19.8313 9.64415L19.8088 9.64281L19.7863 9.64157L19.7638 9.6404L19.7413 9.63931L19.7298 9.63877L19.7188 9.63831L19.6964 9.63737L19.6739 9.63644L19.6514 9.63551L19.6289 9.63472L19.6064 9.63396L19.5839 9.63317L19.5615 9.6325L19.539 9.63187L19.5165 9.63125L19.494 9.63067L19.4715 9.63021L19.449 9.62976L19.4266 9.62929L19.4041 9.62899L19.3816 9.62869L19.3591 9.62839L19.3366 9.62821L19.3141 9.6281L19.2917 9.62797L19.2692 9.62791L19.2467 9.62795L19.2242 9.62798L19.2017 9.62806L19.1793 9.62826L19.1568 9.62849L19.1343 9.62871L19.1118 9.6291L19.0893 9.62948L19.0668 9.62987L19.0444 9.63043L19.0219 9.63099L18.9994 9.63155L18.9769 9.63228L18.9544 9.63302L18.932 9.63377L18.9095 9.63469L18.887 9.63562L18.8645 9.63653L18.842 9.63764L18.8195 9.63875L18.7971 9.63986L18.7746 9.64114L18.7521 9.64245L18.7296 9.64376L18.7071 9.64525L18.6846 9.64676L18.6622 9.64827L18.6397 9.64999L18.6172 9.65169L18.5947 9.65345L18.5722 9.65535L18.5497 9.65723L18.5273 9.65923L18.5048 9.66134L18.4823 9.66345L18.4598 9.66569L18.4373 9.66802L18.4148 9.67034L18.3924 9.67286L18.3699 9.67538L18.3474 9.67795L18.3249 9.68072L18.3024 9.68346L18.2799 9.68635L18.2575 9.68932L18.235 9.69229L18.2125 9.69546L18.19 9.69865L18.1675 9.70194L18.1451 9.70537L18.1226 9.70879L18.1001 9.71241L18.0776 9.71609L18.0551 9.71984L18.0326 9.72372L18.0102 9.72762L17.9877 9.73173L17.9652 9.73589L17.9427 9.74015L17.9202 9.74454L17.8977 9.74894L17.8753 9.75359L17.8528 9.75824L17.8303 9.76305L17.8078 9.76796L17.7853 9.77296L17.7629 9.77813L17.7404 9.78332L17.7179 9.78877L17.6954 9.79422L17.6729 9.79988L17.6504 9.80561L17.628 9.81151L17.6055 9.81752L17.583 9.82364L17.5605 9.82993L17.538 9.83632L17.5155 9.84291L17.4931 9.84953L17.4706 9.85642L17.4481 9.86335L17.4256 9.87055C17.4181 9.87296 17.4105 9.87531 17.4031 9.87776L17.3806 9.88528C17.3732 9.88778 17.3656 9.89024 17.3582 9.8928L17.3357 9.90064L17.3132 9.90848C17.3056 9.91117 17.2982 9.91395 17.2907 9.91667C17.2832 9.9194 17.2757 9.92209 17.2682 9.92487L17.2457 9.9334C17.2382 9.93625 17.2307 9.93906 17.2233 9.94195L17.2008 9.95083L17.1783 9.95979L17.1558 9.96903L17.1333 9.9784L17.1108 9.988L17.0884 9.99782L17.0659 10.0078L17.0434 10.0181L17.0209 10.0284C17.0134 10.032 17.0059 10.0356 16.9985 10.0392L16.976 10.0501L16.9535 10.0613L16.931 10.0727C16.9235 10.0766 16.9159 10.0804 16.9085 10.0843C16.901 10.0882 16.8935 10.0923 16.886 10.0963L16.8636 10.1084L16.8411 10.1209C16.8335 10.1251 16.8261 10.1294 16.8186 10.1337C16.8111 10.138 16.8035 10.1423 16.7961 10.1467C16.7886 10.1511 16.7811 10.1556 16.7736 10.1601C16.7661 10.1646 16.7586 10.1692 16.7511 10.1738C16.7436 10.1784 16.7361 10.183 16.7287 10.1877C16.7211 10.1924 16.7136 10.1973 16.7062 10.2021L16.6837 10.2168C16.6762 10.2217 16.6686 10.2267 16.6612 10.2317L16.6387 10.2471C16.6312 10.2524 16.6237 10.2577 16.6163 10.2629C16.6087 10.2683 16.6012 10.2737 16.5938 10.2791C16.5862 10.2846 16.5787 10.2901 16.5713 10.2956C16.5637 10.3013 16.5563 10.307 16.5488 10.3128C16.5412 10.3186 16.5338 10.3244 16.5263 10.3303C16.5188 10.3362 16.5113 10.3422 16.5038 10.3482V10.3482Z" fill="#E10238"/>
</svg>
