<svg width="65" height="24" viewBox="0 0 65 24" fill="none" xmlns="http://www.w3.org/2000/svg">
<path d="M62 0H3C1.3 0 0 1.3 0 3V21C0 22.7 1.4 24 3 24H62C63.7 24 65 22.7 65 21V3C65 1.3 63.6 0 62 0Z" fill="#F2F2F2"/>
<path d="M62 1C63.1 1 64 1.9 64 3V12V21C64 22.1 63.1 23 62 23H3C1.9 23 1 22.1 1 21V3C1 1.9 1.9 1 3 1H62Z" fill="white"/>
<path fill-rule="evenodd" clip-rule="evenodd" d="M41.9236 8.82734C41.7002 10.2942 40.58 10.2942 39.4962 10.2942H38.8797L39.3123 7.55542C39.3381 7.38997 39.4809 7.26826 39.6485 7.26826H39.9314C40.6691 7.26826 41.3656 7.26826 41.725 7.6882C41.9399 7.93953 42.0047 8.31257 41.9236 8.82734ZM41.452 4.99998H37.3654C37.0857 4.99998 36.848 5.20336 36.8043 5.47945L35.1519 15.9583C35.1193 16.1649 35.2795 16.3519 35.4881 16.3519H37.5852C37.7806 16.3519 37.9471 16.2097 37.9777 16.0168L38.4466 13.0457C38.4898 12.7696 38.728 12.5662 39.0072 12.5662H40.3002C42.9921 12.5662 44.546 11.2637 44.9517 8.68139C45.1345 7.55278 44.959 6.66549 44.4306 6.04429C43.8494 5.36143 42.8193 4.99998 41.452 4.99998Z" fill="#0079C1"/>
<path fill-rule="evenodd" clip-rule="evenodd" d="M12.7759 8.82734C12.5525 10.2942 11.4323 10.2942 10.3485 10.2942H9.73203L10.1646 7.55542C10.1904 7.38997 10.3332 7.26826 10.5008 7.26826H10.7837C11.5214 7.26826 12.2179 7.26826 12.5773 7.6882C12.7922 7.93953 12.857 8.31257 12.7759 8.82734ZM12.3043 4.99998H8.21774C7.93796 4.99998 7.70033 5.20336 7.6566 5.47945L6.00425 15.9583C5.97159 16.1649 6.13123 16.3519 6.34041 16.3519H8.29203C8.57129 16.3519 8.80891 16.1485 8.85265 15.873L9.29893 13.0457C9.34213 12.7696 9.58029 12.5662 9.85954 12.5662H11.1525C13.8444 12.5662 15.3983 11.2637 15.804 8.68139C15.9868 7.55278 15.8113 6.66549 15.2829 6.04429C14.7017 5.36143 13.6716 4.99998 12.3043 4.99998Z" fill="#00457C"/>
<path fill-rule="evenodd" clip-rule="evenodd" d="M21.7919 12.5892C21.6028 13.7073 20.7155 14.4581 19.5832 14.4581C19.0157 14.4581 18.561 14.2753 18.2691 13.9297C17.9798 13.5872 17.8708 13.0987 17.9625 12.5555C18.1384 11.4469 19.0405 10.6724 20.1554 10.6724C20.7113 10.6724 21.1623 10.8568 21.46 11.2056C21.7598 11.557 21.8778 12.0481 21.7919 12.5892ZM24.5191 8.78031H22.5622C22.3947 8.78031 22.2519 8.90202 22.2256 9.068L22.1397 9.61491L22.0032 9.4168C21.5791 8.80191 20.6343 8.5959 19.6912 8.5959C17.5293 8.5959 15.6826 10.2345 15.3232 12.5323C15.1362 13.6789 15.4017 14.7743 16.0519 15.5388C16.6489 16.2411 17.5009 16.5336 18.5162 16.5336C20.2592 16.5336 21.2255 15.4144 21.2255 15.4144L21.138 15.9582C21.1054 16.1647 21.265 16.3518 21.4747 16.3518H23.2367C23.5165 16.3518 23.7541 16.1489 23.7978 15.8728L24.8558 9.1739C24.8885 8.96736 24.7283 8.78031 24.5191 8.78031Z" fill="#00457C"/>
<path fill-rule="evenodd" clip-rule="evenodd" d="M50.9399 12.5892C50.7507 13.7073 49.8634 14.4581 48.7311 14.4581C48.1637 14.4581 47.709 14.2753 47.4171 13.9297C47.1273 13.5872 47.0187 13.0987 47.1104 12.5555C47.2864 11.4469 48.1884 10.6724 49.3033 10.6724C49.8592 10.6724 50.3102 10.8568 50.6079 11.2056C50.9077 11.557 51.0258 12.0481 50.9399 12.5892ZM53.6671 8.78031H51.7102C51.5426 8.78031 51.3999 8.90202 51.3735 9.068L51.2876 9.61491L51.1506 9.4168C50.727 8.80191 49.7823 8.5959 48.8391 8.5959C46.6773 8.5959 44.8305 10.2345 44.4712 12.5323C44.2841 13.6789 44.5497 14.7743 45.1999 15.5388C45.7969 16.2411 46.6488 16.5336 47.6642 16.5336C49.4071 16.5336 50.3735 15.4144 50.3735 15.4144L50.286 15.9582C50.2533 16.1647 50.413 16.3518 50.6227 16.3518H52.3846C52.6644 16.3518 52.902 16.1489 52.9458 15.8728L54.0038 9.1739C54.0364 8.96736 53.8763 8.78031 53.6671 8.78031Z" fill="#0079C1"/>
<path fill-rule="evenodd" clip-rule="evenodd" d="M34.9412 8.78035L32.9743 8.78035C32.7862 8.78035 32.6102 8.87361 32.5048 9.02957L29.7913 13.0255L28.6416 9.18553C28.5695 8.94527 28.3482 8.78035 28.0974 8.78035H26.1642C25.9308 8.78035 25.7664 9.01008 25.8417 9.23084L28.0073 15.5884L25.9703 18.4626C25.8106 18.6881 25.9719 19 26.2485 19H28.2133C28.3993 19 28.5737 18.9088 28.6801 18.756L35.221 9.31515C35.3775 9.08911 35.2162 8.78035 34.9412 8.78035Z" fill="#00457C"/>
<path fill-rule="evenodd" clip-rule="evenodd" d="M55.9731 5.28803L54.296 15.9587C54.2633 16.1652 54.423 16.3523 54.6322 16.3523H56.3193C56.5985 16.3523 56.8367 16.1489 56.8799 15.8728L58.5338 5.39394C58.5665 5.18739 58.4068 5.00035 58.1971 5.00035H56.3098C56.1417 5.00035 55.9989 5.12206 55.9731 5.28803Z" fill="#0079C1"/>
</svg>
