<svg width="135" height="40" viewBox="0 0 135 40" fill="none" xmlns="http://www.w3.org/2000/svg">
<g clip-path="url(#clip0_1110_4917)">
<path d="M130 0H5C2.23858 0 0 2.23858 0 5V35C0 37.7614 2.23858 40 5 40H130C132.761 40 135 37.7614 135 35V5C135 2.23858 132.761 0 130 0Z" fill="black"/>
<path d="M130 0.8C132.32 0.8 134.2 2.68 134.2 5V35C134.2 37.32 132.32 39.2 130 39.2H5C2.68 39.2 0.8 37.32 0.8 35V5C0.8 2.68 2.68 0.8 5 0.8H130ZM130 0H5C2.25 0 0 2.25 0 5V35C0 37.75 2.25 40 5 40H130C132.75 40 135 37.75 135 35V5C135 2.25 132.75 0 130 0Z" fill="#A6A6A6"/>
<path d="M47.42 10.2401C47.42 11.0801 47.17 11.7501 46.67 12.2401C46.11 12.8301 45.37 13.1301 44.47 13.1301C43.57 13.1301 42.87 12.8301 42.26 12.2301C41.65 11.6301 41.35 10.8801 41.35 10.0001C41.35 9.12012 41.65 8.37012 42.26 7.77012C42.87 7.17012 43.6 6.87012 44.47 6.87012C44.9 6.87012 45.31 6.95012 45.7 7.12012C46.09 7.29012 46.4 7.51012 46.64 7.79012L46.11 8.32012C45.71 7.85012 45.17 7.61012 44.47 7.61012C43.84 7.61012 43.29 7.83012 42.83 8.28012C42.37 8.72012 42.14 9.30012 42.14 10.0101C42.14 10.7201 42.37 11.3001 42.83 11.7401C43.29 12.1801 43.84 12.4101 44.47 12.4101C45.14 12.4101 45.7 12.1901 46.15 11.7401C46.44 11.4501 46.61 11.0401 46.65 10.5201H44.47V9.80012H47.38C47.41 9.96012 47.42 10.1101 47.42 10.2501V10.2401Z" fill="white" stroke="white" stroke-width="0.2" stroke-miterlimit="10"/>
<path d="M52.03 7.74H49.3V9.64H51.76V10.36H49.3V12.26H52.03V13H48.53V7H52.03V7.74Z" fill="white" stroke="white" stroke-width="0.2" stroke-miterlimit="10"/>
<path d="M55.28 13H54.51V7.74H52.83V7H56.95V7.74H55.27V13H55.28Z" fill="white" stroke="white" stroke-width="0.2" stroke-miterlimit="10"/>
<path d="M59.9399 13V7H60.7099V13H59.9399Z" fill="white" stroke="white" stroke-width="0.2" stroke-miterlimit="10"/>
<path d="M64.1299 13H63.3599V7.74H61.6799V7H65.7999V7.74H64.1199V13H64.1299Z" fill="white" stroke="white" stroke-width="0.2" stroke-miterlimit="10"/>
<path d="M73.61 12.2201C73.02 12.8301 72.29 13.1301 71.41 13.1301C70.53 13.1301 69.8 12.8301 69.21 12.2201C68.62 11.6101 68.33 10.8701 68.33 10.0001C68.33 9.13012 68.62 8.38012 69.21 7.78012C69.8 7.17012 70.53 6.87012 71.41 6.87012C72.29 6.87012 73.01 7.17012 73.61 7.78012C74.2 8.39012 74.5 9.13012 74.5 10.0001C74.5 10.8701 74.2 11.6201 73.62 12.2201H73.61ZM69.78 11.7201C70.22 12.1701 70.77 12.3901 71.41 12.3901C72.05 12.3901 72.6 12.1701 73.04 11.7201C73.48 11.2701 73.71 10.7001 73.71 10.0001C73.71 9.30012 73.49 8.73012 73.04 8.28012C72.6 7.83012 72.05 7.61012 71.41 7.61012C70.77 7.61012 70.22 7.83012 69.78 8.28012C69.34 8.73012 69.11 9.30012 69.11 10.0001C69.11 10.7001 69.33 11.2701 69.78 11.7201Z" fill="white" stroke="white" stroke-width="0.2" stroke-miterlimit="10"/>
<path d="M75.58 13V7H76.52L79.44 11.67H79.47L79.44 10.51V7H80.21V13H79.41L76.36 8.11H76.33L76.36 9.27V13.01H75.59L75.58 13Z" fill="white" stroke="white" stroke-width="0.2" stroke-miterlimit="10"/>
<path d="M68.14 21.75C65.79 21.75 63.87 23.54 63.87 26C63.87 28.46 65.79 30.25 68.14 30.25C70.49 30.25 72.4101 28.45 72.4101 26C72.4101 23.55 70.49 21.75 68.14 21.75ZM68.14 28.58C66.85 28.58 65.74 27.52 65.74 26C65.74 24.48 66.85 23.42 68.14 23.42C69.43 23.42 70.5401 24.47 70.5401 26C70.5401 27.53 69.43 28.58 68.14 28.58ZM58.8301 21.75C56.4801 21.75 54.5601 23.54 54.5601 26C54.5601 28.46 56.4801 30.25 58.8301 30.25C61.1801 30.25 63.1 28.45 63.1 26C63.1 23.55 61.1801 21.75 58.8301 21.75ZM58.8301 28.58C57.5401 28.58 56.43 27.52 56.43 26C56.43 24.48 57.5401 23.42 58.8301 23.42C60.1201 23.42 61.23 24.47 61.23 26C61.23 27.53 60.1201 28.58 58.8301 28.58ZM47.75 23.05V24.85H52.07C51.94 25.87 51.6 26.61 51.09 27.12C50.46 27.75 49.48 28.44 47.76 28.44C45.1 28.44 43.0201 26.3 43.0201 23.64C43.0201 20.98 45.1 18.84 47.76 18.84C49.19 18.84 50.24 19.4 51.01 20.13L52.28 18.86C51.2 17.83 49.7701 17.04 47.75 17.04C44.11 17.04 41.05 20 41.05 23.65C41.05 27.3 44.11 30.26 47.75 30.26C49.72 30.26 51.2001 29.62 52.3601 28.41C53.5501 27.22 53.92 25.54 53.92 24.19C53.92 23.77 53.89 23.38 53.82 23.06H47.75V23.05ZM93.06 24.45C92.71 23.5 91.63 21.74 89.42 21.74C87.21 21.74 85.4101 23.46 85.4101 25.99C85.4101 28.37 87.21 30.24 89.63 30.24C91.58 30.24 92.71 29.05 93.17 28.36L91.7201 27.39C91.2401 28.1 90.58 28.57 89.63 28.57C88.68 28.57 88 28.13 87.57 27.28L93.2601 24.93L93.07 24.45H93.06ZM87.2601 25.87C87.2101 24.23 88.5301 23.39 89.4801 23.39C90.2201 23.39 90.85 23.76 91.06 24.29L87.2601 25.87ZM82.64 29.99H84.5101V17.49H82.64V29.99ZM79.5801 22.69H79.52C79.1 22.19 78.3 21.74 77.28 21.74C75.15 21.74 73.2 23.61 73.2 26.01C73.2 28.41 75.15 30.25 77.28 30.25C78.3 30.25 79.1 29.8 79.52 29.28H79.5801V29.89C79.5801 31.52 78.71 32.39 77.31 32.39C76.17 32.39 75.46 31.57 75.17 30.88L73.5401 31.56C74.0101 32.69 75.25 34.07 77.31 34.07C79.5 34.07 81.35 32.78 81.35 29.64V22H79.5801V22.69ZM77.4401 28.57C76.1501 28.57 75.07 27.49 75.07 26.01C75.07 24.53 76.1501 23.42 77.4401 23.42C78.7301 23.42 79.71 24.52 79.71 26.01C79.71 27.5 78.7101 28.57 77.4401 28.57ZM101.82 17.49H97.35V29.99H99.2201V25.25H101.83C103.9 25.25 105.93 23.75 105.93 21.37C105.93 18.99 103.9 17.49 101.83 17.49H101.82ZM101.87 23.52H99.2201V19.23H101.87C103.27 19.23 104.06 20.39 104.06 21.37C104.06 22.35 103.27 23.51 101.87 23.51V23.52ZM113.4 21.72C112.05 21.72 110.65 22.32 110.07 23.63L111.73 24.32C112.08 23.63 112.74 23.4 113.43 23.4C114.39 23.4 115.38 23.98 115.39 25.01V25.14C115.05 24.95 114.33 24.66 113.44 24.66C111.65 24.66 109.84 25.64 109.84 27.47C109.84 29.14 111.3 30.22 112.94 30.22C114.19 30.22 114.89 29.66 115.32 29H115.38V29.97H117.18V25.18C117.18 22.96 115.52 21.72 113.38 21.72H113.4ZM113.17 28.57C112.56 28.57 111.71 28.26 111.71 27.51C111.71 26.55 112.77 26.18 113.69 26.18C114.51 26.18 114.9 26.36 115.39 26.6C115.25 27.76 114.25 28.58 113.17 28.58V28.57ZM123.75 21.99L121.61 27.41H121.55L119.33 21.99H117.32L120.65 29.57L118.75 33.78H120.7L125.83 21.99H123.76H123.75ZM106.94 29.99H108.81V17.49H106.94V29.99Z" fill="white"/>
<path d="M10.44 7.53997C10.15 7.84997 9.97998 8.32997 9.97998 8.93997V31.06C9.97998 31.68 10.15 32.16 10.44 32.46L10.51 32.53L22.9 20.14V19.85L10.51 7.46997L10.44 7.53997Z" fill="url(#paint0_linear_1110_4917)"/>
<path d="M27.03 24.28L22.9 20.15V19.86L27.03 15.73L27.12 15.78L32.01 18.56C33.41 19.35 33.41 20.65 32.01 21.45L27.12 24.23L27.03 24.28Z" fill="url(#paint1_linear_1110_4917)"/>
<path d="M27.1199 24.2298L22.8999 20.0098L10.4399 32.4698C10.8999 32.9598 11.6599 33.0198 12.5199 32.5298L27.1299 24.2298" fill="url(#paint2_linear_1110_4917)"/>
<path d="M27.1199 15.78L12.5099 7.47999C11.6499 6.98999 10.8899 7.04999 10.4299 7.53999L22.8899 20L27.1099 15.78H27.1199Z" fill="url(#paint3_linear_1110_4917)"/>
<path opacity="0.2" d="M27.0299 24.1299L12.5099 32.3799C11.6999 32.8399 10.9699 32.8099 10.5099 32.3899L10.4399 32.4599L10.5099 32.5299C10.9799 32.9499 11.6999 32.9799 12.5099 32.5199L27.1199 24.2199L27.0299 24.1299Z" fill="black"/>
<path opacity="0.12" d="M10.44 32.3199C10.15 32.0099 9.97998 31.5299 9.97998 30.9199V31.0699C9.97998 31.6899 10.15 32.1699 10.44 32.4699L10.51 32.3999L10.44 32.3299V32.3199Z" fill="black"/>
<path opacity="0.12" d="M32.01 21.3L27.02 24.13L27.11 24.22L32 21.44C32.7 21.04 33.05 20.52 33.05 20C32.99 20.47 32.64 20.94 32 21.3H32.01Z" fill="black"/>
<path opacity="0.25" d="M12.51 7.61994L32.01 18.6999C32.64 19.0599 33 19.5199 33.06 19.9999C33.06 19.4799 32.71 18.9499 32.01 18.5599L12.51 7.47994C11.11 6.68994 9.96997 7.34994 9.96997 8.94994V9.09994C9.96997 7.49994 11.11 6.83994 12.51 7.62994V7.61994Z" fill="white"/>
</g>
<defs>
<linearGradient id="paint0_linear_1110_4917" x1="21.8" y1="8.70997" x2="5.01998" y2="25.49" gradientUnits="userSpaceOnUse">
<stop stop-color="#00A1FF"/>
<stop offset="0.26" stop-color="#00BEFF"/>
<stop offset="0.51" stop-color="#00D2FF"/>
<stop offset="0.76" stop-color="#00DFFF"/>
<stop offset="1" stop-color="#00E3FF"/>
</linearGradient>
<linearGradient id="paint1_linear_1110_4917" x1="33.83" y1="20" x2="9.64003" y2="20" gradientUnits="userSpaceOnUse">
<stop stop-color="#FFE000"/>
<stop offset="0.41" stop-color="#FFBD00"/>
<stop offset="0.78" stop-color="#FFA500"/>
<stop offset="1" stop-color="#FF9C00"/>
</linearGradient>
<linearGradient id="paint2_linear_1110_4917" x1="24.8299" y1="22.2998" x2="2.06994" y2="45.0498" gradientUnits="userSpaceOnUse">
<stop stop-color="#FF3A44"/>
<stop offset="1" stop-color="#C31162"/>
</linearGradient>
<linearGradient id="paint3_linear_1110_4917" x1="7.29993" y1="0.179987" x2="17.4599" y2="10.34" gradientUnits="userSpaceOnUse">
<stop stop-color="#32A071"/>
<stop offset="0.07" stop-color="#2DA771"/>
<stop offset="0.48" stop-color="#15CF74"/>
<stop offset="0.8" stop-color="#06E775"/>
<stop offset="1" stop-color="#00F076"/>
</linearGradient>
<clipPath id="clip0_1110_4917">
<rect width="135" height="40" fill="white"/>
</clipPath>
</defs>
</svg>
