<svg width="18" height="18" viewBox="0 0 18 18" fill="none" xmlns="http://www.w3.org/2000/svg">
<path fill-rule="evenodd" clip-rule="evenodd" d="M15.5714 9.00002C15.5714 12.6293 12.6293 15.5714 8.99999 15.5714L8.99999 13.9822L5.7857 16.5536H8.99999L8.99999 16.5714C13.1816 16.5714 16.5714 13.1816 16.5714 9.00002C16.5714 4.81843 13.1816 1.42859 8.99999 1.42859C4.8184 1.42859 1.42856 4.81843 1.42856 9.00002C1.42856 11.3913 2.53768 13.5238 4.26761 14.9106L4.89308 14.1304C3.38973 12.9252 2.42856 11.075 2.42856 9.00002C2.42856 5.37072 5.37069 2.42859 8.99999 2.42859C12.6293 2.42859 15.5714 5.37072 15.5714 9.00002ZM4.49999 6.42859L5.04447 8.00002H4.49999V9.00002H5.39096L6.60962 12.5172L7.49751 12.4986L8.59461 9.00002H9.22153L10.3621 12.5172L11.25 12.4986L12.2306 9.00002H12.8571V8.00002H12.5109L12.9514 6.42859H12.0277L11.601 8.00002L9.83092 8.00002L9.34403 6.41003L8.45614 6.42859L7.96813 8.00002L6.05286 8.00002L5.55853 6.42859H4.49999ZM7.01666 11.0638L6.36744 9.00002L7.65758 9.00002L7.01666 11.0638ZM10.7691 11.0638L10.1371 9.00002L11.3295 9.00002L10.7691 11.0638Z" fill="white"/>
</svg>
