<svg width="24" height="24" viewBox="0 0 24 24" fill="none" xmlns="http://www.w3.org/2000/svg">
<path fill-rule="evenodd" clip-rule="evenodd" d="M14.7725 14.3616C16.5576 12.3993 16.5023 9.36013 14.6066 7.46447C12.654 5.51184 9.48816 5.51184 7.53553 7.46447C5.58291 9.41709 5.58291 12.5829 7.53553 14.5355C9.30579 16.3058 12.0732 16.4711 14.0297 15.0315L14.3429 15.3639L16.4003 17.5473L16.7432 17.9112L17.471 17.2254L17.1281 16.8615L15.0707 14.6781L14.7725 14.3616ZM13.8995 8.17157C15.4616 9.73367 15.4616 12.2663 13.8995 13.8284C12.3374 15.3905 9.80474 15.3905 8.24264 13.8284C6.68054 12.2663 6.68054 9.73367 8.24264 8.17157C9.80474 6.60948 12.3374 6.60948 13.8995 8.17157Z" fill="#333333"/>
</svg>
