<svg width="24" height="24" viewBox="0 0 24 24" fill="none" xmlns="http://www.w3.org/2000/svg">
<path fill-rule="evenodd" clip-rule="evenodd" d="M17.444 15.9893C19.7161 12.989 19.484 8.69665 16.7476 5.96028C13.7576 2.97025 8.90981 2.97025 5.91978 5.96028C2.92976 8.95031 2.92976 13.7981 5.91978 16.7881C8.68412 19.5525 13.0364 19.7611 16.0404 17.4141L19.2927 20.6664L19.9998 21.3735L21.414 19.9593L20.7069 19.2522L17.444 15.9893ZM15.3334 7.37449C17.5424 9.58347 17.5424 13.1649 15.3334 15.3739C13.1244 17.5829 9.54298 17.5829 7.334 15.3739C5.12502 13.1649 5.12502 9.58347 7.334 7.37449C9.54298 5.16551 13.1244 5.16551 15.3334 7.37449Z" fill="white"/>
</svg>
