<svg width="24" height="24" viewBox="0 0 24 24" fill="none" xmlns="http://www.w3.org/2000/svg">
<path d="M19.7 9.8L20 9.7L18 6.2L17.8 6.3C16.1 7.3 14 6.1 14 4.1V4H10V4.2C10 6.1 7.9 7.3 6.2 6.4L6 6.2L4 9.7L4.2 9.8C5.9 10.8 5.9 13.2 4.2 14.1L4 14.3L6 17.8L6.2 17.7C7.9 16.7 10 17.9 10 19.9V20H14V19.8C14 17.9 16.1 16.7 17.8 17.6L18 17.7L20 14.2L19.8 14.1C18.1 13.2 18.1 10.8 19.7 9.8ZM12 15.5C10.1 15.5 8.5 13.9 8.5 12C8.5 10.1 10.1 8.5 12 8.5C13.9 8.5 15.5 10.1 15.5 12C15.5 13.9 13.9 15.5 12 15.5Z" fill="white"/>
</svg>
