<svg width="20" height="20" viewBox="0 0 20 20" fill="none" xmlns="http://www.w3.org/2000/svg">
<circle cx="10" cy="10" r="6.5" stroke="#898989"/>
<path d="M8.31397 7.79999C8.9532 7.79999 9.53171 8.05206 9.95054 8.45999L9.13255 9.25559C8.97081 9.09812 8.7647 8.99084 8.54027 8.94731C8.31584 8.90379 8.08317 8.92597 7.8717 9.01106C7.66024 9.09615 7.47948 9.24032 7.35227 9.42535C7.22505 9.61037 7.15712 9.82793 7.15703 10.0505C7.15695 10.2731 7.22473 10.4907 7.35181 10.6758C7.47889 10.8609 7.65955 11.0052 7.87095 11.0904C8.08235 11.1757 8.315 11.198 8.53946 11.1547C8.76392 11.1113 8.97011 11.0041 9.13197 10.8468L9.94996 11.6418C9.62624 11.9562 9.214 12.1702 8.76529 12.2569C8.31658 12.3435 7.85153 12.2989 7.42888 12.1287C7.00624 11.9584 6.64493 11.6701 6.39061 11.3003C6.1363 10.9304 6.00037 10.4956 6 10.0506C6 8.80827 7.03665 7.79999 8.31397 7.79999ZM12.3634 7.79999C13.0027 7.79999 13.5812 8.05206 14 8.45999L13.182 9.25559C13.0203 9.09812 12.8142 8.99084 12.5897 8.94731C12.3653 8.90379 12.1326 8.92597 11.9212 9.01106C11.7097 9.09615 11.5289 9.24032 11.4017 9.42535C11.2745 9.61037 11.2066 9.82793 11.2065 10.0505C11.2064 10.2731 11.2742 10.4907 11.4013 10.6758C11.5283 10.8609 11.709 11.0052 11.9204 11.0904C12.1318 11.1757 12.3645 11.198 12.5889 11.1547C12.8134 11.1113 13.0196 11.0041 13.1814 10.8468L13.9994 11.6418C13.6757 11.9562 13.2635 12.1702 12.8147 12.2569C12.366 12.3435 11.901 12.2989 11.4783 12.1287C11.0557 11.9584 10.6944 11.6701 10.4401 11.3003C10.1858 10.9304 10.0498 10.4956 10.0495 10.0506C10.0495 8.80827 11.0861 7.79999 12.3634 7.79999Z" fill="#898989"/>
</svg>
