<svg width="24" height="24" viewBox="0 0 24 24" fill="none" xmlns="http://www.w3.org/2000/svg">
<path fill-rule="evenodd" clip-rule="evenodd" d="M2 3C1.44772 3 1 3.44772 1 4V14C1 14.5523 1.44772 15 2 15H10V18C10 19.1046 10.8954 20 12 20H21C22.1046 20 23 19.1046 23 18V9C23 7.89543 22.1046 7 21 7H13V4C13 3.44772 12.5523 3 12 3H2ZM10 12.0681C9.02424 11.7223 8.18073 11.2348 7.46572 10.628C8.37106 9.70897 9.05876 8.55361 9.57236 7.11816H10.9129V6.47921H7.30033V5H6.64744V6.47921H3.10446V7.11816H4.38411C4.8803 8.50985 5.5593 9.69147 6.45593 10.6455C5.52448 11.4158 4.38411 11.9759 3 12.3786C3.13928 12.5274 3.3482 12.8425 3.40914 13C4.81066 12.5449 5.98585 11.9409 6.94342 11.1182C7.77989 11.8751 8.78908 12.4517 10 12.8363V12.0681ZM11 15V18C11 18.5523 11.4477 19 12 19H21C21.5523 19 22 18.5523 22 18V9C22 8.44772 21.5523 8 21 8H13H12C11.4822 8 11.0564 8.3935 11.0052 8.89776C11.0017 8.93137 11 8.96548 11 9V12.361V15ZM8.82372 7.11816H5.09793C5.52448 8.29103 6.14255 9.32385 6.96953 10.1729C7.7704 9.35886 8.37976 8.3523 8.82372 7.11816Z" fill="#898989"/>
<path fill-rule="evenodd" clip-rule="evenodd" d="M16.0328 9.7251H16.934L20.4304 17.2751H19.2026L18.2392 15.3084H14.728L13.7645 17.2751H12.5714L16.0328 9.7251ZM16.4744 11.3331L15.2175 14.2251H17.7476L16.4744 11.3331Z" fill="#898989"/>
</svg>
