<svg viewBox="0 0 192 192" fill="none" xmlns="http://www.w3.org/2000/svg">
<path opacity="0.1" d="M96 192C149.019 192 192 149.019 192 96C192 42.9807 149.019 0 96 0C42.9807 0 0 42.9807 0 96C0 149.019 42.9807 192 96 192Z" fill="url(#paint0_linear)"/>
<path opacity="0.3" d="M135.18 49.8198L132.72 43.9998C131.94 44.3261 131.063 44.3305 130.279 44.012C129.496 43.6935 128.871 43.0779 128.54 42.2998L37.34 80.3998L47.2 104C50.2943 102.811 53.73 102.875 56.7778 104.179C59.8256 105.482 62.2454 107.922 63.5234 110.98C64.8015 114.039 64.8371 117.475 63.6229 120.559C62.4086 123.644 60.04 126.133 57.02 127.5L66.9 151.08L158.1 112.88C157.937 112.494 157.852 112.08 157.85 111.661C157.848 111.242 157.929 110.827 158.089 110.44C158.25 110.053 158.485 109.701 158.782 109.406C159.079 109.111 159.432 108.878 159.82 108.72L157.34 102.82C156.56 103.146 155.683 103.149 154.901 102.828C154.119 102.508 153.496 101.89 153.17 101.11C152.844 100.33 152.841 99.4527 153.161 98.6706C153.482 97.8886 154.1 97.266 154.88 96.9398L152.42 90.9998C152.032 91.1693 151.614 91.2597 151.191 91.2656C150.767 91.2715 150.347 91.1928 149.955 91.0341C149.562 90.8754 149.205 90.6399 148.905 90.3415C148.605 90.0431 148.367 89.6877 148.206 89.2962C148.045 88.9047 147.963 88.4849 147.967 88.0616C147.97 87.6382 148.058 87.2197 148.225 86.8307C148.392 86.4417 148.635 86.09 148.94 85.7962C149.245 85.5024 149.605 85.2725 150 85.1198L147.54 79.2398C146.758 79.5687 145.877 79.5733 145.091 79.2526C144.305 78.9319 143.679 78.3122 143.35 77.5298C143.021 76.7474 143.017 75.8664 143.337 75.0807C143.658 74.2949 144.278 73.6687 145.06 73.3398L142.6 67.4598C141.82 67.786 140.943 67.7891 140.161 67.4684C139.379 67.1478 138.756 66.5295 138.43 65.7498C138.104 64.9701 138.101 64.0927 138.421 63.3107C138.742 62.5286 139.36 61.906 140.14 61.5798L137.68 55.6998C137.294 55.8613 136.88 55.9452 136.461 55.9467C136.043 55.9482 135.628 55.8672 135.241 55.7084C134.854 55.5497 134.501 55.3161 134.204 55.0213C133.907 54.7264 133.671 54.3759 133.51 53.9898C133.348 53.6037 133.265 53.1896 133.263 52.7711C133.262 52.3526 133.343 51.9379 133.501 51.5507C133.822 50.7686 134.44 50.146 135.22 49.8198H135.18Z" fill="url(#paint1_linear)"/>
<defs>
<linearGradient id="paint0_linear" x1="96" y1="192" x2="96" y2="0" gradientUnits="userSpaceOnUse">
<stop stop-opacity="0"/>
<stop offset="0.39" stop-color="#030303" stop-opacity="0.11"/>
<stop offset="0.72" stop-color="#0E0E0D" stop-opacity="0.47"/>
<stop offset="1" stop-color="#1D1D1B"/>
</linearGradient>
<linearGradient id="paint1_linear" x1="52.1133" y1="115.697" x2="146.254" y2="76.2782" gradientUnits="userSpaceOnUse">
<stop stop-opacity="0.2"/>
<stop offset="0.53" stop-color="#070706" stop-opacity="0.27"/>
<stop offset="0.97" stop-color="#1B1B19" stop-opacity="0.48"/>
<stop offset="1" stop-color="#1D1D1B" stop-opacity="0.5"/>
</linearGradient>
</defs>
</svg>
