<svg width="18" height="18" viewBox="0 0 18 18" fill="none" xmlns="http://www.w3.org/2000/svg">
<path d="M3.26656 12.7065L3.49993 13.1487L3.26656 12.7065ZM5.31052 14.8566L4.95697 15.2101L5.31052 14.8566ZM5.2936 14.7336L4.85141 14.5002L5.2936 14.7336ZM14.7314 5.29043L14.9611 5.73458L14.7314 5.29043ZM11.192 1.64615L10.8384 1.9997L11.192 1.64615ZM6.80793 16.354L7.16148 16.0004L6.80793 16.354ZM12.6924 3.14652L12.3388 3.50008L12.6924 3.14652ZM12.7097 3.26871L12.2656 3.03909L12.7097 3.26871ZM13.0459 2.79297L11.5455 1.2926L10.8384 1.9997L12.3388 3.50008L13.0459 2.79297ZM13.3356 4.66454C13.0205 4.34943 12.959 3.87522 13.1539 3.49834L12.2656 3.03909C11.8766 3.79151 11.9967 4.73981 12.6285 5.37165L13.3356 4.66454ZM14.5018 4.84627C14.1249 5.04112 13.6507 4.97966 13.3356 4.66454L12.6285 5.37165C13.2603 6.00349 14.2086 6.12358 14.9611 5.73458L14.5018 4.84627ZM16.7074 6.45448L15.2072 4.95422L14.5001 5.66133L16.0003 7.16158L16.7074 6.45448ZM7.3029 16.7075L16.7074 7.303L16.0003 6.5959L6.59579 16.0004L7.3029 16.7075ZM4.95697 15.2101L6.45437 16.7075L7.16148 16.0004L5.66407 14.503L4.95697 15.2101ZM4.67354 13.3266C4.99074 13.6438 5.05089 14.1222 4.85141 14.5002L5.7358 14.9669C6.13416 14.2121 6.01664 13.2555 5.38065 12.6195L4.67354 13.3266ZM3.49993 13.1487C3.87793 12.9492 4.35634 13.0094 4.67354 13.3266L5.38065 12.6195C4.74465 11.9835 3.78802 11.866 3.03319 12.2643L3.49993 13.1487ZM1.29249 11.5456L2.79002 13.0432L3.49713 12.3361L1.9996 10.8385L1.29249 11.5456ZM10.697 1.2926L1.29249 10.6971L1.9996 11.4042L11.4041 1.9997L10.697 1.2926ZM1.9996 10.8385C2.15581 10.9947 2.15581 11.248 1.9996 11.4042L1.29249 10.6971C1.05818 10.9314 1.05818 11.3113 1.29249 11.5456L1.9996 10.8385ZM3.03319 12.2643C3.17268 12.1907 3.36361 12.2025 3.49713 12.3361L2.79002 13.0432C2.9883 13.2415 3.27945 13.2651 3.49993 13.1487L3.03319 12.2643ZM5.66407 14.503C5.79759 14.6365 5.80941 14.8275 5.7358 14.9669L4.85141 14.5002C4.73505 14.7207 4.75868 15.0118 4.95697 15.2101L5.66407 14.503ZM16.0003 7.16158C15.8441 7.00537 15.8441 6.75211 16.0003 6.5959L16.7074 7.303C16.9417 7.06869 16.9417 6.68879 16.7074 6.45448L16.0003 7.16158ZM14.9611 5.73458C14.8219 5.80653 14.6326 5.79385 14.5001 5.66133L15.2072 4.95422C15.0104 4.75741 14.7217 4.73257 14.5018 4.84627L14.9611 5.73458ZM11.5455 1.2926C11.3112 1.05828 10.9313 1.05828 10.697 1.2926L11.4041 1.9997C11.2479 2.15591 10.9946 2.15591 10.8384 1.9997L11.5455 1.2926ZM6.59579 16.0004C6.752 15.8442 7.00527 15.8442 7.16148 16.0004L6.45437 16.7075C6.68869 16.9418 7.06859 16.9418 7.3029 16.7075L6.59579 16.0004ZM12.3388 3.50008C12.2063 3.36755 12.1936 3.17826 12.2656 3.03909L13.1539 3.49834C13.2676 3.27839 13.2427 2.98979 13.0459 2.79297L12.3388 3.50008Z" fill="white"/>
</svg>
