<svg width="18" height="18" viewBox="0 0 18 18" fill="none" xmlns="http://www.w3.org/2000/svg" fill-rule="evenodd" fill="currentColor">
<path clip-rule="evenodd" d="M0.750244 11C1.16446 11 1.50024 11.3358 1.50024 11.75V15.25C1.50024 15.9404 2.05989 16.5 2.75024 16.5H15.2502C15.9406 16.5 16.5002 15.9404 16.5002 15.25V11.75C16.5002 11.3358 16.836 11 17.2502 11C17.6645 11 18.0002 11.3358 18.0002 11.75V15.25C18.0002 16.7688 16.769 18 15.2502 18H2.75024C1.23146 18 0.000244141 16.7688 0.000244141 15.25L0.000244141 11.75C0.000244141 11.3358 0.336031 11 0.750244 11Z"/>
<path clip-rule="evenodd" d="M9.00003 0C9.41425 0 9.75003 0.335786 9.75003 0.75V11C9.75003 11.4142 9.41425 11.75 9.00003 11.75C8.58582 11.75 8.25003 11.4142 8.25003 11V0.75C8.25003 0.335786 8.58582 0 9.00003 0Z"/>
<path clip-rule="evenodd" d="M4.46972 7.46965C4.76262 7.17676 5.23749 7.17678 5.53038 7.46968L9.00003 10.9395L12.4697 7.46968C12.7626 7.17678 13.2374 7.17676 13.5303 7.46965C13.8232 7.76253 13.8233 8.23741 13.5304 8.53031L9.53038 12.5305C9.38972 12.6712 9.19895 12.7502 9.00003 12.7502C8.80111 12.7502 8.61034 12.6712 8.46969 12.5305L4.46969 8.53031C4.1768 8.23741 4.17682 7.76253 4.46972 7.46965Z"/>
</svg>
