<svg width="24" height="24" viewBox="-3 -3 24 24" fill="currentColor" fill-rule="evenodd" clip-rule="evenodd" xmlns="http://www.w3.org/2000/svg">
  <path d="M16 1H2C1.44772 1 1 1.44772 1 2V16C1 16.5523 1.44772 17 2 17H16C16.5523 17 17 16.5523 17 16V2C17 1.44772 16.5523 1 16 1ZM2 0C0.895431 0 0 0.89543 0 2V16C0 17.1046 0.89543 18 2 18H16C17.1046 18 18 17.1046 18 16V2C18 0.895431 17.1046 0 16 0H2Z" />
  <path d="M8.5 12C8.22386 12 8 12.2239 8 12.5V13.5C8 13.7761 8.22386 14 8.5 14H9.5C9.77614 14 10 13.7761 10 13.5V12.5C10 12.2239 9.77614 12 9.5 12H8.5Z" />
  <path d="M8.5 4C8.22386 4 8 4.22386 8 4.5V10.5C8 10.7761 8.22386 11 8.5 11H9.5C9.77614 11 10 10.7761 10 10.5V4.5C10 4.22386 9.77614 4 9.5 4H8.5Z" />
</svg>
