<svg width="24" height="24" viewBox="0 0 24 24" fill="none" xmlns="http://www.w3.org/2000/svg">
<path stroke="none" d="M16.7809 9.6247C17.1259 9.19343 17.056 8.56414 16.6247 8.21913C16.1934 7.87412 15.5641 7.94404 15.2191 8.3753L16.7809 9.6247ZM12 14L11.2191 14.6247C11.4089 14.8619 11.6962 15 12 15C12.3038 15 12.5911 14.8619 12.7809 14.6247L12 14ZM8.78087 8.3753C8.43586 7.94404 7.80657 7.87412 7.3753 8.21913C6.94404 8.56414 6.87412 9.19343 7.21913 9.6247L8.78087 8.3753ZM15.2191 8.3753L11.2191 13.3753L12.7809 14.6247L16.7809 9.6247L15.2191 8.3753ZM12.7809 13.3753L8.78087 8.3753L7.21913 9.6247L11.2191 14.6247L12.7809 13.3753Z" fill="currentColor"/>
</svg>
