<svg width="16" height="16" viewBox="0 0 16 16" fill="none" xmlns="http://www.w3.org/2000/svg">
  <path fill-rule="evenodd" clip-rule="evenodd" d="M12 11.0568V4.94321L7.72047 8.00007L12 11.0568ZM12.2094 12.4353C12.5403 12.6717 13 12.4351 13 12.0284V3.9716C13 3.56491 12.5403 3.32835 12.2094 3.56474L6.56961 7.59321C6.29044 7.79262 6.29044 8.20754 6.56962 8.40694L12.2094 12.4353Z" fill="currentColor"/>
  <path fill-rule="evenodd" clip-rule="evenodd" d="M3.5 3C3.77614 3 4 3.22386 4 3.5V12.5C4 12.7761 3.77614 13 3.5 13C3.22386 13 3 12.7761 3 12.5V3.5C3 3.22386 3.22386 3 3.5 3Z" fill="currentColor"/>
</svg>
