<svg width="16" height="16" viewBox="0 0 16 16" fill="none" xmlns="http://www.w3.org/2000/svg">
  <path fill-rule="evenodd" clip-rule="evenodd" d="M4 11.0568V4.94321L8.27953 8.00007L4 11.0568ZM3.79062 12.4353C3.45968 12.6717 3 12.4351 3 12.0284V3.9716C3 3.56491 3.45969 3.32835 3.79062 3.56474L9.43039 7.59321C9.70956 7.79262 9.70956 8.20754 9.43038 8.40694L3.79062 12.4353Z" fill="currentColor"/>
  <path fill-rule="evenodd" clip-rule="evenodd" d="M12.5 3C12.2239 3 12 3.22386 12 3.5V12.5C12 12.7761 12.2239 13 12.5 13C12.7761 13 13 12.7761 13 12.5V3.5C13 3.22386 12.7761 3 12.5 3Z" fill="currentColor"/>
</svg>
