<svg width="16" height="16" viewBox="0 0 16 16" fill="none" xmlns="http://www.w3.org/2000/svg">
  <path
    fill-rule="evenodd"
    clip-rule="evenodd"
    d="M9.64645 5.64645C9.84171 5.45118 10.1583 5.45118 10.3536 5.64645L12.3536 7.64645C12.5488 7.84171 12.5488 8.15829 12.3536 8.35355L10.3536 10.3536C10.1583 10.5488 9.84171 10.5488 9.64645 10.3536C9.45118 10.1583 9.45118 9.84171 9.64645 9.64645L11.2929 8L9.64645 6.35355C9.45118 6.15829 9.45118 5.84171 9.64645 5.64645ZM6.35355 5.64645C6.54882 5.84171 6.54882 6.15829 6.35355 6.35355L4.70711 8L6.35355 9.64645C6.54882 9.84171 6.54882 10.1583 6.35355 10.3536C6.15829 10.5488 5.84171 10.5488 5.64645 10.3536L3.64645 8.35355C3.45118 8.15829 3.45118 7.84171 3.64645 7.64645L5.64645 5.64645C5.84171 5.45118 6.15829 5.45118 6.35355 5.64645ZM1 3H15V13H1V3ZM0.5 2C0.223858 2 0 2.22386 0 2.5V13.5C0 13.7761 0.223858 14 0.5 14H15.5C15.7761 14 16 13.7761 16 13.5V2.5C16 2.22386 15.7761 2 15.5 2H0.5Z"
    fill="currentColor"
  />
</svg>
